<svg id="Capa_1" data-name="Capa 1" xmlns="http://www.w3.org/2000/svg" viewBox="0 0 243 243"><defs><style>.cls-1{fill:#aabcd1;}.cls-2{fill:#8294ad;}.cls-3{fill:#97a5bc;}.cls-4{fill:#6e829f;}</style></defs><title>asteroid</title><path class="cls-1" d="M215.25,179.7a103.47,103.47,0,0,0,14.51-37,117.47,117.47,0,0,0,1.84-21.17q0-45.57-32.28-77.88T121.5,11.4Q87,11.4,60.09,29.89A117.77,117.77,0,0,0,48.56,39c-1.67,1.49-3.33,3-4.93,4.64A110.56,110.56,0,0,0,32,57.12Q11.43,85,11.4,121.5q0,45.57,32.22,77.82T121.5,231.6q45.56,0,77.82-32.28a6.43,6.43,0,0,1,.65-.59,119.55,119.55,0,0,0,15.28-19Z"/><path class="cls-2" d="M214.41,115.08c0-2.62-2.08-6.12-6.18-10.46-3.86-4.16-6.66-6.24-8.26-6.18H187.43c-2.56,2.62-4.58,6.36-5.94,11.3,2.26.89,4.76,3.15,7.55,6.65,3.69,3.09,9.69,4.64,18.08,4.64a7.65,7.65,0,0,0,5.17-2.14c1.43-1.3,2.14-2.55,2.14-3.8Z"/><path class="cls-3" d="M215.25,179.7a103.47,103.47,0,0,0,14.51-37c-1.13.77-2.32,1.54-3.57,2.44q-13.91,9.63-33.65,15.57c-12.3,3.68-23.48,5.53-33.65,5.53q-26,0-40.72-6.48a112.36,112.36,0,0,1-14.74-8.32c-7.19-4.87-13.2-8.86-18-11.89-13-8.38-21.7-19.38-25.92-33.05q-3.83-12.57-3.87-37.87c0-.12.36-7.31,1-21.52a56.26,56.26,0,0,1,3.39-17.18A117.77,117.77,0,0,0,48.56,39C48.2,43,48,48.2,48,54.8c0,22.17.42,39.12,1.25,50.71q.8,10.88,4.34,38.52a40.09,40.09,0,0,0,5.06,15.22A57.62,57.62,0,0,0,70.55,173.4a87.43,87.43,0,0,0,15.81,11.18c10.17,5.88,19.08,8.86,26.75,8.86,6.3,0,18.25-.54,35.79-1.55,23-1.31,38.7-2.86,47-4.64a65.25,65.25,0,0,0,19.38-7.55Z"/><path class="cls-2" d="M48,54.8c0-6.6.18-11.83.54-15.82-1.67,1.49-3.33,3-4.93,4.64A110.56,110.56,0,0,0,32,57.12c-.78,3.15-1.55,6.6-2.32,10.46-2.91,14.63-4.34,25.92-4.34,33.95q0,22,10.58,47.62Q47,176,61.81,186.24q15.34,10.7,56.48,13.85c2,.18,9,1.07,20.87,2.74a285.3,285.3,0,0,0,34.36,2.38c5.65,0,12.6-1.42,20.75-4.34,1.36-.48,3-1.07,4.87-1.84a4.64,4.64,0,0,1,.83-.3,119.55,119.55,0,0,0,15.28-19,65.25,65.25,0,0,1-19.38,7.55c-8.26,1.78-24,3.33-47,4.64-17.54,1-29.48,1.55-35.79,1.55-7.67,0-16.58-3-26.75-8.86A87.43,87.43,0,0,1,70.55,173.4a57.62,57.62,0,0,1-11.89-14.15A40.09,40.09,0,0,1,53.61,144Q50,116.39,49.27,105.51C48.44,93.92,48,77,48,54.8Z"/><path class="cls-4" d="M29.71,67.58c.78-3.86,1.55-7.31,2.32-10.46Q11.43,85,11.4,121.5q0,45.57,32.22,77.82T121.5,231.6q45.56,0,77.82-32.28l-.18-.3c-1.84.77-3.51,1.36-4.87,1.84-8.14,2.92-15.1,4.34-20.75,4.34a285.3,285.3,0,0,1-34.36-2.38c-11.89-1.67-18.85-2.56-20.87-2.74Q77.19,197,61.81,186.24,47,176,36,149.14q-10.61-25.59-10.58-47.62,0-12,4.34-33.95Z"/><path class="cls-2" d="M178.09,59.08c-.83.59-1.66,1.24-2.5,2-2.26,2-3.38,3.39-3.38,4.16s2.61,4,7.79,9.51c5.41,5.89,9.1,8.8,11,8.8A4.74,4.74,0,0,0,193.79,82c1-.89,1.55-1.54,1.55-1.84,0-2.73-1.9-6-5.65-9.87-4.22-3.92-8.09-7.67-11.59-11.17Z"/><path class="cls-2" d="M149.14,29.24c-5.53-3.51-11.06-5.29-16.47-5.29a2.06,2.06,0,0,0-1.48.59,4.92,4.92,0,0,0-.71.66l.18.3a2.82,2.82,0,0,0-.77.3,5.38,5.38,0,0,0-.89.29,78.58,78.58,0,0,0-10.16,4c1,2.26,6.24,4.76,15.58,7.55,8.74,2.56,15.34,3.8,19.86,3.8,3.38,0,5.41-.36,6.18-1.07a33.71,33.71,0,0,0-11.3-11.12Z"/><path class="cls-2" d="M121.92,63.48V60.92c-2.79-3.33-8.14-6.36-16.05-9.16-6.24-1.84-11.05-3.33-14.56-4.46a64,64,0,0,0-12.67,3.74c-4.69,2.08-7.07,4-7.07,5.77,0,2.86,3.44,4.7,10.28,5.53,3.75.41,9.27.83,16.47,1.13Z"/><path class="cls-2" d="M141.42,93.2a31.78,31.78,0,0,0-8.5-8.68H107.53a61.82,61.82,0,0,0-8.86,7.13c-1.6,1.61-2.44,2.68-2.44,3.15,0,2,3.27,4.4,9.75,7.2,3.33,1.48,7.25,3,11.83,4.58a21.85,21.85,0,0,1,3.15,2.62,53.63,53.63,0,0,0,8.62,6.18,35.42,35.42,0,0,0,10.94,4.1,37.7,37.7,0,0,0,7.61,1c5.35,0,9.57-.89,12.72-2.62,2.44-1.37,3.69-2.74,3.69-4.1a5.31,5.31,0,0,0-2.38-4.16,56.64,56.64,0,0,0-5.89-3.56c-6.84-3.81-11.77-8.09-14.86-12.84Z"/><path class="cls-2" d="M72.87,92.79c-1,0-2.38.83-4.34,2.55s-3.09,3.33-3.09,4.58S69.3,106,77,113.95c7.43,7.73,13,13,16.7,15.75h3.57c.12-.77.95-3.21,2.44-7.43,1.49-4,2.2-6.18,2.2-6.42v-.18c-4.58-6.78-9.1-12.12-13.67-16-5.41-4.57-10.52-6.89-15.34-6.89Z"/><path class="cls-2" d="M185.94,135.88A95.86,95.86,0,0,0,175.3,132c-13,.48-20.1.78-21.23.83Q125.63,134.67,124,145.1c4.52,1.13,8.32,2,11.48,2.62a143,143,0,0,0,22.89,2.55c1.72.06,6.3.83,13.73,2.38s11.54,2.26,12.66,2.26a76.48,76.48,0,0,0,6.54-4.64c2.08-1.54,4.1-3.09,6.13-4.64,0-3.15-3.8-6.36-11.48-9.75Z"/></svg>