<svg id="Capa_1" data-name="Capa 1" xmlns="http://www.w3.org/2000/svg" viewBox="0 0 288 288"><defs><style>.cls-1{fill:#eae7e2;}.cls-1,.cls-3,.cls-5,.cls-6{fill-rule:evenodd;}.cls-2{opacity:0.67;}.cls-3,.cls-4{fill:#dfdcd4;}.cls-4{opacity:0.27;}.cls-5{fill:#cbc6b8;}.cls-6{fill:#bdb8a5;}</style></defs><title>gray_asteroid</title><path class="cls-1" d="M262.57,89.69a6.07,6.07,0,0,1,4.76,4.14A170.53,170.53,0,0,1,279,138.52q.45,6.2-3.23,8.78-3.66,2.34-3.62,9.87-3.3,48.07-38.24,83l-.24.24a6.73,6.73,0,0,0-1.5,4.36,7.34,7.34,0,0,1-1.65,4.78,70.55,70.55,0,0,1-18.1,15.1,6.35,6.35,0,0,1-5.93.25,7.14,7.14,0,0,0-6.61.27q-26.74,13.58-59.11,13.58-54.56,0-93.15-38.59-3.79-3.79-7.2-7.73A133.1,133.1,0,0,1,28.1,215.91a4.56,4.56,0,0,0-4.79-1.24,2,2,0,0,1-2.15-.92,90,90,0,0,1-10.16-28,4.64,4.64,0,0,1,.94-4.1,3.47,3.47,0,0,0,.79-2.17A137.31,137.31,0,0,1,9,147Q9,92.48,47.57,53.89,70.52,31,99.11,21.67a8.76,8.76,0,0,0,5.45-6,6.63,6.63,0,0,1,4.79-3.41q3.53-.65,7.85-1.26a169.09,169.09,0,0,1,34.08-1.44l.65,0a5.39,5.39,0,0,1,5,2.9,8.55,8.55,0,0,0,4.8,4.36Q202.91,23,233.86,53.89a135,135,0,0,1,23.6,31.36Q259.25,89.07,262.57,89.69Z"/><g class="cls-2"><path class="cls-3" d="M262.56,89.69a6.07,6.07,0,0,1,4.76,4.14A170.5,170.5,0,0,1,279,138.52q.45,6.2-3.23,8.78-3.66,2.34-3.63,9.86-3.29,48.07-38.24,83l-.24.24a6.74,6.74,0,0,0-1.5,4.35,7.29,7.29,0,0,1-1.65,4.78,70.43,70.43,0,0,1-18.1,15.1,6.33,6.33,0,0,1-5.92.25,7.14,7.14,0,0,0-6.61.28q-26.74,13.58-59.11,13.58-54.56,0-93.15-38.59-3.79-3.79-7.2-7.73,5.22-13.62,63.06,6.57,38.26,11.54,75.82-25.39a86.69,86.69,0,0,0,19.24-34.69q5-21.27,20.91-45.06,33.89-57.14-59.45-84.51Q111,36,125.87,22q12.24-12.26-8.67-11a169.36,169.36,0,0,1,34.08-1.44l.65,0a5.42,5.42,0,0,1,5,2.9,8.53,8.53,0,0,0,4.79,4.36Q202.91,23,233.86,53.89a134.81,134.81,0,0,1,23.6,31.35Q259.24,89.07,262.56,89.69Z"/></g><path class="cls-4" d="M222.69,44.33a5.07,5.07,0,0,0-1-.19l-.26-.45-1.85-.38-.45.19A24.74,24.74,0,0,1,212,36.6l-1-.38-.51-.83c-.51-.26-.89-.51-1.4-.83l-.19-.19h-.06a124.13,124.13,0,0,0-26.94-12.45l.13.45-.83-.45v-.19A133.1,133.1,0,0,0,141,15.8q-54.19,0-92.48,38.3Q25.43,77.17,16.28,105.92v.26h-.06c-1,3.25-2,6.7-2.74,10.09h.77v1.91H13.08a2.25,2.25,0,0,0-.19.77H13l-.06.06c-.19.83-.32,1.66-.45,2.49h1v1.79l.32-.45-.13-1.6H13l1.66-.64v-.19c.38,0,.38.13,0,.19v.64l.38.64-.19.64-.57.19.38,3.51v.38l.83.64v.19c-.7.25-.77.45-.25.64l-.83.64-.38.64.64.76.58-.13.45-.64.45.64c.13,0,.26.13.38.13s.25.19,0,.45c-.06-.06-.13-.13-.19-.06-.26,0-.26.19,0,.45.19.45-.32.45-1.66.26v.57l.38.45-.38.19.19.64-.19.64.38.57h.13c0,.32,0,.32-.13,0l-.64.45.83.38.25.83.64-.19.13.83,1-1.09,2.17,1.09L19.6,138l-.45.19v.64h-.64l-.19.38-.83.19h.83l.64.45v.64l-.45.45.83,1.15v.77l.45.06-.13.77-1.15.32,1.28.64h-.64l-.83,1.21v1.85l.64.44h-.64l.64,1-1.85,3.89.77,1v-.38q.67.29,0,.38v.45h.64L19,155l-1.08-.45-.77.19.19,1.09-2.49,3.89.19.38-.38.45L15,164.9l.45.38.64,2.74,2.24.38.19-.64.45-.13.38-4.6.77-.58A11.81,11.81,0,0,1,22,164.13a2.37,2.37,0,0,1,.64,1.6l.45.19.38,4.15,1.4,1.47-1,2,1.47.26.38,1.21.83-.19.19,1.41v.25H27l-.19.83.45,1.21h1.21l.64.83-.83.64h1.21v-.13c.32,0,.32,0,0,.13l.83.58v.64l.45.25.83,2.23h.64l.19.38-1.66.64-.45.64.83.64H32l.45-.83h.76v1.66l.64.83-.38.19.19.38-.57.45.57.83,1-.13.32-.25,1.34-.26-.13-1.21-1,.38v-.64h1l-.83-.58.45-.64-1.28-.83h.83l.19-.38.64.19,1.85,4L37,190l.83,1L37.53,192l.25.38-.25.89-.83.58h.64l-1,.38,1.85,1.47c.13-.51.26-.77.57-.64a1.36,1.36,0,0,1,.7.64H38.17l1.28.44-1.28.64.45.83.89.13-.26-1,2-.45.38-1.08h.64v-.83H43.4l-.45.45v1.91l.45.19v.64l1.15-.13,1.09-.7.45-1.08.38-.19.51-1.91h1.21l1,2.11.64-.19.45.38-.64.25.83.51h.83l.19-1,.83.19V194.7l.58-.58H52l-.13-.83.77-.89.64.45v.64l1,.64v-.64l1-.83-.13,1.47,1.08,1-.7,3.13h.26c0,.38-.07.38-.26,0l-2,.06v.57l-.83.19-.19.38-1.21.25v1.85l-1,1.4v.64l-.89.45.26,1.4h.64l.51-.32.19.7-1.15.89,1.21.45.25,1.21.77.19.51,1.21-.26.64.19.64-.57.64v.64l1.85,1.6v.83l-.64.26.19.64,1,.13v.64l.64.26-.64.38H55.4l.13.38,2.11,1.08.83,3.7,1.66,1.15.83-1,1.21.25.45-.51,2.3,2.3-.64.45h1l.64.64v1.4h3.26l.26.45,1.41.45v.64l1.47,1.4v-1l.38-.64-.58-.38-.38-1.47.38-.19.45-1.85.58.57.45-.45-.89-1.15L73,222l.83-.64.45.64.13-.83.45,1.66h.64l.45-2.3,1.6-.19h-.19q0-.86.19,0l.64.45,1.28-.26-.89-.19.45-1.08,1-.13.25,1.21-.64.19-.45.83.83.38v.64l-.38.25-1,2.93-.83.13-.45-.83h-1l.38,1.28.64.38-.64,1.28.19.64h.64l1,2,.58.25.32.83,1.4,1,1.85-.44.25.44h1.21l.64-.44.38.83,1.47.89.83,1.4,1.21-.19a6.08,6.08,0,0,0-1.28-1.79,5.83,5.83,0,0,0-2.62-1.53l-.26-1,1-.25.25-.38,1.66-.19-.83.19,1.85,2.3,1.85.19.83-.83L92,232l.45.38.38-.83.38-.19v-.64L95,228l-1-1.21H92.61l-.19-.44-3.89.44-4-1.53.07-1,4.08-.76v-1.09h.64l1.47,1.27-1.08-.25-.19.64,1.66.39.64.64-.26.83.64-.38.45.19.57-.45-.13-.58.57-.25.45-.77-1.28-1v-3.38l-.38-.58,1.21.45a14.58,14.58,0,0,0,1.92,2.62,15.13,15.13,0,0,0,4,3.19l.64-.51h1.91l1.66,2.1.64-.83-.45-1.4,2.87.38.44-.38.19.57h.64l.19.38H109l.64,1.53,2.3.77.13-.38.45.19,2.3-1.47-.89-3.51.64-.19.25,1.09.64.13.13-.57,1.09.19.45.64,1-.64.26-.38,1.66-.45L119,222v-.44h.89v.64c.64,1,1.4,1,2.23,0l1-.19v-.83l.89-.64H124c0-.32.06-.32.13,0l.58-.38.38-1.28-.38-.38.25-1.66c.77-.89,1.47-1.79,2.23-2.75l-.83-.19-1.28-1.6-.77.13-.45-1v.19c-.25-.07-.25-.13,0-.19l.26-2.94-1.66-1,.19-.83-.45-.26-.19-1.59-1-.64.57-.19.26-1.28.57-.19.26-1.4,2.43-1.47.26-.64,1.4-.19v-.64l-.38-.45.83-1.15v-1.34l.64-.19-.45-1,.45-.25-.19-2.11-.64-.38.38-2.68-.77.19-.64-.7-2.87,2.55h-.64L122,190h-.83l-.38-.64,2-.64.38-1-.77-.45.19-.64.83-.13.57-1.28-1,.32-.38-1-1.21-.83,1.21-.45.45-.58-1.28-.38.19-.64-1.79-.77.25-1.4-.51-.7.64-.64-.38-1.15-2.55-.51-.38,1-.83-.64-.26-.83-.38-.38.83-1.85-.64-.64-1.21.19.38-.83-.38-1.4-1.66-1.28,1.21-1,3.7-.64.26-.76,1,.57.19-.38h.64l.19.57,1.85-.57.89.38-.25.38,2.68-.76-.19-.64.64-.45.64-1.47,1.72,1.09-1.15-1.91v.64l-2.87.19-.19-.38-1.47-.19-.19-2.49.64-.25-.25-.58,1,.58v-.19c.51.13.51.13,0,.19l.83.25.7-.25-.06.89,1.08-.32.58.7,1.85-.19-.38.64-1.08.38,2.11.83-.25,2.23,2.74.45-2.11-1.85.26-.64-.26-.64.64-.77v-.19c.32,0,.32,0,0,.19l.38.77.89-.13,3.25,1.78-.26.89c.19.06.26.19.45.19a6.1,6.1,0,0,0,5.43-.64l-.26.83-1,.83,1,.19.64,1.47,1.41-.06-.77-.38.64-1-1.47-.45.19-.58,1.28.83.38-.38-.83-.83,1.66.38.25.83.13-1.21.64-.64-.64-.44-.06-.64-1.79-.57.64-1-.19-.83,1-1.28,2.49-.19,1.66.83c0-.13-.06-.25-.06-.38a2.52,2.52,0,0,0-2-1.66l.26-1.08-1-.19v-.83l.64-.45-.89-.57.89-.38-.64-.45h.64l-1.34-1.09-1.6-.19-.45.32-1.21-.51-.19.64L140,155v-1.28l.64-.45-2.11.25-.19-.45h-.57l-.64.45-.45-.25v-.58l-1.21-.83-.83.45-.26-.64-.57-.19L134,151l-.19-.83L133,150v-1.21l-1.85-.64-.25-.64,2.49-3.51H135l.45.83-.83.45,1.21.13.64-.38.19.38,1.85.64h-.64v.64l-.38.19-.38,1.28h.64l.13.77h-2l2.3,1.09v.58l-.64.25.64.64-.64.38,2.3.45c1-.51,1.21-1.4.57-2.75l-.77-.19.19-2.3c-.13-.06-.19-.19-.32-.32a1.31,1.31,0,0,1-.06-.89h-.13c0-.32.06-.32.13,0l.83-.19-.25-.83-.58-.19v.06c-.32,0-.32-.06,0-.06l1-.83-.57-.45,1-.64-.13-1.91,1.34-.19v1.28l.64-.19.45-.57.19.57.45.19.51,3.06,1.28-1.15.45.19.64,1.28-2.3.38,6,.19.83-1,.83.19-.45.83h-1.21V147l1.09.7-.45.44.83.38.38-.58.89-.25.38.64-.26.57,1.09.64v.64l1,.38,2.3-1.66h1l1.4-1a2.48,2.48,0,0,0,1.79-.77c.06-.06.13-.13.13-.19.45-.19.7,0,.77.57,1.21.64,1.91.51,2.23-.45l.19.45.51-.83.83-.19.19-.83-.83-.26-.38-1,.19-.45-.38-.45.19-.64-.83-.83.38-.38,1.21-.19.26-1.47,2.11,1c.77.13.7.38-.26.7l.19.64c.77.07.83.26.26.51l1.34-.07.13-2.74,1.15.45a1.51,1.51,0,0,0-.19-.77c-.19-.19-.32-.32-.57-.32,0,.13,0,.13-.06.13-.51.25-.51.19.06-.13L171,138l1.47.83v-2.68h.64l.19.38,1.21.32-.06.57,1,1.15h.13v.25h.13c0,.51,0,.51-.13,0h-.13v-.25l-.83.13-.45.32-.38-.83q-1.72.1-.57.38l-1.79,1.92v.64l.45.13-.19,1.28,1.85,1.66h1.66l-.64,2-.64.45-.77-.19.77.38.25.83-.64.25.7,1.09-.7.19.26,1.6.77.19-.77,1.66.57.38.19,1.28-1.21-.25-1.27-1-.38,1.28-.64.19-.19-.45-1,.89,1.6.19.45-.45v-.06c.32,0,.32,0,0,.06l.51,1.09,1.15.64.83,1.6h.64l.19,1.47,1.28.45-.44.57.76-.19-.57.58,1.47,1.08v-1.08l.64.25-.25.58.44.25-.13,1.85.83.32-.13-2.43,1.53-.58v2.11l1.21.39.64.83,1,.38v-1.41l.38.38,2-.57,2.11,1.21-.38,1,.83.38.64-.19.13.83,1.28-.38.19-.89.83-.76.45,1,1.4.64-.64.19,2.3.64.45,2.43.77.64-.38,2-1-.19-.45-.64-1.4.26v.58l.38.25.25.83-1-.25-.26.64h-.83l-.83.64-.19.83-.38-.38.13.77h1.72l.38.64-.57.64-.9.19.9.19,1.21-.38.38.83-1.6.19v.64c.13.13.25.32.38.45l-.45,1.79c.89.26,1,.83.13,1.85l1,.83,2.87-1,.45-1.09,1.79.25.58,1.92a.4.4,0,0,1,.45-.06l.19.83c.57.06.7.39.51,1l.77.45v3.06l1.92-.45.64-2,1.22-.58.38-1.08,4.66,4.34-2.55.26h.13c0,.51-.06.51-.13,0l-1.92.83-.45,1.66.77.77h-2.36l-1,2.87.38.45v.64l-.38.19v.64l-.64.19,1.28,1h-.64l-.26.64-.38.19v.83l.83.45-.45,1.85.26.38-.26.64h.9l.38-.83.25,1,1,1.28,1.28-.38.25-.64,1.53.19-2.81,2.42-.26,2,.64.32v.76h.26c0,.38-.06.38-.26,0l-.7.26.32,1c-.64,0-1,.32-1,1l1-.13v.64l.83.13-.19-.58.64-.64,1.09-.19.51-.83a1.87,1.87,0,0,0,2-1.21,1.93,1.93,0,0,1,.32-.45l-.06-2.17.45-.32,1.09,1-.64.45,1.09.51c-.38.45-.32.77.32.9l.44-.58h.64l1.21-.83.64-1.09h-.06c-.06-.51,0-.51.06,0l.57.64,3.77.26-.19,1.47h-1l-.26.38-1.21.38.19.83.39-.38.25,1.47-.38.19-.26.77.39.83-1,.45L214.9,215c.07,0,.07,0,.13.07.19.45.13.45-.13-.07l-1.28.19v.57l.45.26-.45,1h3.25l-.58-1.28,1-.57-.38-.64,1.28-1v-.83l3.25-.25.45-.58h-.64l-.19-.64.38-1,.83-.45.38-2.42h-.13c0-.38.06-.38.13,0l.58.06.7,1.15.64.26.19-.64.64-.45.38-1.47-.38-.58c-.89.13-1,.06-.38-.26.32-.25.26-.45-.06-.57l.83-.64c-.7-.19-.51-.38.64-.38,1,1.21,1.53,2.23,1.34,3.13l-1.34,1.21-.39,1.85-1.85.57,1,.26v1.6c1,0,1.21-.26.64-.64l1.21-.32.38-1.09.64-.38.38-1.09,1.28.83.83-.58.64.38.13-.76h-.13c0-.64.06-.64.13,0l.64-.45h.64l.45.45h2.43l-.77,2.23.77.83-.13.45H236l.45-.83h-.13c0-.32.06-.32.13,0l.58.64-.58.19.58,2,.64-1.47.64-.45h1.21l-.45-.32v-.64l-.58.38.19-1,1.28-.64H238v.38h-.39v.26h.32c-.19.25-.25.25-.32,0h-.06a.4.4,0,0,1,.06-.26v-.38H238l1-.83.64.51,1.09-1.53h-.13c0-.32,0-.32.13,0l.77.19V208h.64v1l.64.25.64,1.4-.26.9-.77.64.58.19-.89,1.15,2.17-1.15-.64-1.09h-.13c0-.25.06-.25.13,0l.51-.64c.77.45.7.26-.06-.57l.38-.83-1.4-.32.57-.51-.64-1c-.13.7-.19.76-.07.06a.06.06,0,0,0,.07-.06l-.58-1.72.38-1.41.83-.38-.64-.45.64-2.11.45-.13v-.64h.83l.13.64.89.13a3.15,3.15,0,0,1,2.87-1.6l.83,2.87h.13c0,.64-.06.64-.13,0l-1.47.7-.19,1.21.57.64-.32.32-.25,1.92,1,1.85-.19,1.66.64.64.57-1-1.47,3,.89.19-.64.19v.83l3.13.64v1q19.82-30.73,19.85-69.76a132.11,132.11,0,0,0-.83-15.25v.06h-.19v-.45h.13c-.19-2.11-.45-4.28-.83-6.38h-.13v-.19H270c-.13-1.21-.38-2.36-.58-3.51h-.06v-.19a117.79,117.79,0,0,0-5.49-19.91v.19h-.13v-.19h.13c-.13-.45-.32-.89-.45-1.28l-.13,1.09-.19-2v-.06H263v-.19c-.38-1-.7-1.85-1.15-2.81v.13h-.19v-.26h.19c-.58-1.34-1.15-2.62-1.79-3.89H260v-.13a129.1,129.1,0,0,0-22.6-33.19h-.06v-.06c-1.21-1.4-2.55-2.68-3.83-4C230,50.58,226.39,47.39,222.69,44.33Zm8.94,9.7v-.45l-.7-.83c.57-.38.77-.13.7.83H232V54h.13c.06.32,0,.32-.13,0Zm1.47.64h.19v.38h-.19Zm8.43,14.23h-.06c-.26-.51-.26-.51.06,0h.13C241.65,69.22,241.58,69.22,241.52,68.9Zm1,.26V68.9h.26v.26Zm9.19,9.7v.38h-.25v-.38Zm-.64-.45a.48.48,0,0,1-.32-.06C250.52,77.9,250.65,78,251.09,78.41ZM234,70.56h.45v.64H234Zm4.66-10.79V60h-.19v-.26Zm-11.55.45h.38v.38h-.38Zm0-1.4h.38v.38h-.38Zm-7.59,6.51a.69.69,0,0,1-.06-.32.48.48,0,0,1,.06-.32.41.41,0,0,1,.32-.13c.13,0,.25,0,.32.13a.48.48,0,0,1,.06.32.69.69,0,0,1-.06.32,2.77,2.77,0,0,1-.32.06A2.88,2.88,0,0,0,219.5,65.33Zm.7.32v-.25h.26v.25Zm1.28.83h-.19v-.26h.19Zm-5.17.13h.26v.26h-.26Zm0,1.47v-.19h.26v.19Zm-.19-.13v.32H215v-.32Zm.83,1.4h.19v.45h-.19Zm-.38-.19V68.9c.32,0,.32.13,0,.26l-.26.64-.64.19.45.13.19,1.08-.38.38.38.45c-.26.19-.19.38.07.57-2.23.06-2.68,0-1.34-.38l-.7-.77.13-.89h-.64l-.64-.45,2.49-.13-.77-.83.58-.26-.58-.38h1.4Zm.38.83v.13h-.38V70Zm.51-.89v-.45h.45v.45Zm-.32,1.28c.13,0,.19.06.26.06C217.65,71.07,217.59,71.07,217.14,70.37Zm7.66-2.49v.64h-1.53v-.64Zm-1.85.64h.19v.19h-.19Zm1.85,2V70H225v.57Zm0-1.4.19-.64,1.66.64.45,1.21-1.66-.57v-.64Zm1-1.21v-.38h.7v.38ZM227.09,72v.19h-.25V72Zm.64-.45h-.26v-.19h.26Zm.38,2.94V74.2h.64v.32ZM224,76.37v-.19h.38v.19Zm-1.66.19v.25h-.38v-.25Zm0,1.34,1-.38.38,1.21-.44.45L223,80l-.45-.57-.64.89.51,1.28.7-.26H223c0-.57.06-.57.13,0H225l-.77.57.58.64-.45.64v.64l1.47.83V83.39h.64l.64-.45-.45.89.83.83v1.21l3.13,1,.64.83.57-.19V85.69l-.57.38-.64-.19-.26-1,.64-.19-.19-.45,1-.38v.64l-.45.57.45.64c.45.06.51-.19.38-.57-.06-.06-.06-.13-.06-.26.45-.7,1-.7,1.4.06.13-.7.51-.64,1.21.13l.64-.19v-.64L233,81.92l.32-2.49h-.83v-.57h1.85l-.38-.89-.89-.64.06-2.62,1.66.38.77,5.23,2.49,1.6h-.77l.58,1v-.38q.57.29,0,.38l-.83.45.83.45.25.83-1.08.19-.58-.38L236,85l1,.26-1.21.13-1-.38-.58.45,1.21,1h-1.09l-.19.57.64.45L236,86.07h1.28l.13.45.64.19-.64.19.64.45V88l.64.38V88.3c.32,0,.32,0,0,.06q-.19,3.83,1,2.49h.19c.07.32,0,.32-.13,0v1.28l.64.57v.64l1.08.19.39,1,.57.32-.83.32-.13-.64-1.08-.64.51-.06-.7-.32-.45-.57-1.21.13.19,1.66L238,95l.25.64h-.89L237,95v-.64l-1.28-1.47a40.11,40.11,0,0,0,1.28,6l.38.26.26,1H237l.25,1.66-.83-.19-.45-.38h-.57l.13.83-.83.32-.57-1-.38.19v1.08l3.64,1-.13,1-1.08-.45-.77.45-.64-1.4-1-.64-.83-.45-.25-2.49-.38-.25.83-.77-.51-.89-1.21-.38-.13,1.91.57.19-1,.83.25,1.53-3.57-.45.38.77v.64l.83.51.07.51-1.28-.38-.19.38-.64-.19-.83.19-.38.83-.64-.45v-1.4l-1.53-2.55-1.34.06.77.83-.57,1,.57,1.09.45-.64,1.08.19,1,4.53.64.57c-.57.19-.77,0-.64-.57l-1.47.26-.64.57.83,1.21-.19.45.44.45,1.66,1-.25.64.44.19v.64l-1.27-.83.19-1-.77-.64-1.66-.64v1.85l.38.19v.64l.38.19-.38,1.91,4.15-.26-.64-.19.19-1.08.64-.38.83-1.85-.19-1.6,1.47,1-.64,1.09v.77l.83.45.19,1,1.47-.19.38-1.47-1-.38v-.83l-1.21-1.09,2.24.26v.64l.38.19.25.64-.25.38.25,1.21-.45.19-.45,1.08-.76-.19-.26.83.64.38,1-.38h-.19c.06-.64.13-.64.19,0l1.08-.26c-.77-.06-.64-.38.19-1l.58.19.64-.19.64.83-.38-1.28v-1l1.21-.19,1.28,1.79.58.06.19,1.09h-1.6l.58.38.38,1.21-1,.25,1.21.57.19,2.81L239,121l-.07.45.32.64.25-.7.77-.19v2.87l-.83-.38V123l-.57-.26-.26-1H238l.44,4,.83.83v.77l1.66,1.66c.25.77.25.83-.07.13a.19.19,0,0,1,.07-.13c-.38-.19-.7-.13-.7.26a1.79,1.79,0,0,0,.06.57h.64l.19.64,1.27.83-.64.38v2.11l.38.45.25,1.15h-.89c.51-.77.38-1.15-.32-1l-.89.45,1.08,1h1v-.13c.07,0,.07.07.13.13l1.08-.19,1.41.77-2.17.38-.32-1h-.13l-.25,1.09-.38.19-.58,2.87-1.09.83-1.47-1.28.64-.19v-.83L237,138l.25-1.66.58-.19-.26-1,.32-1.09-2.17-3-1,1.28-.64-.38.64-2,.64-.26h-.64l-.26-1,.26-.83-.7-.38-1,.38.64-.64-.26-2.87L231,123.09l-.19-.77-1,.19-.83-1,.83-.25-1.66-.19v.19h-.25v.13c-.32,0-.32,0,0-.13V121h.25l-1-.64-.19-.38-1-.83-.13-.38-1.34-.7-.51-1.4-.83-.64v.64l-2.17-.38-.19-1.34c-.7-.38-.89,0-.57,1.08l-1.4-.19,1-.45-.26-3.51-.76-1v-1.08l-.38-.64-.64-.19-.64,1.28h-.83l-.64-1.28.64-.64h-.64l-.19-.38-.58.38-1.85-.45c-.58.38-.32.64.77.89l-.64.83-.57.19-.13.89L211.39,109l1-.19-1-.64-.64.64-1.47-.26h.64l.38-2.23-.83-.19-.45,1-1,.19-.77-1.66-.83-.38-.89-2.94-.58-.19-.83-1.66.57-.58-.57-1A.2.2,0,0,1,204,99c-.19-.06-.38.06-.45.38l-.45-.45.19-1.21.57-.64,1.09.38v-1h-.13c0-.32,0-.32.13,0l.7-.57-1.34-1.15-1,1.47-.83-.19.64-.83-.19-.64.38-.64-1.66-.57a.24.24,0,0,0-.06-.19c-.32-.38-.58-.32-.58.19.19,0,.26,0,.26-.06-.07.45-.13.45-.26.06l-.77,1.21-2.36-.83-1-2.23h-.64v.19q-.48-.19,0-.19l-.13-.89.38-.19-.25-.83.44-.77h.83l-.38-.64.64-.45-.44-.64.83-.38-.64-.77,1.47.7-.32.26.76.19.38.89,1.21.57,1,2.94,1.85.83-.57.77v.83l1.85-.13.38-1.28,1.72.13-.45-1.15h-.06c0-.32,0-.32.06,0l1.47-.45v-.64l-1.66-1.6.19-.64-.19-.83h.64l-.26.38,1.28-.38.64.83V85l.77.26.25,1.79,1,.45.19-.45,1.66-.19.19.45,1.08-.45v-.83l.83,1.28h.58v-.64c-.19-.06-.39-.13-.45-.26h.13l.13-.77L214.9,85c-.13,0-.19,0-.19-.06h0c0-.06.07-.13.19-.13l-2-2.43V82.3c.32-.51,0-.83-.89-.77l.45-.57-1.28-.26.26-.38-1.72.19.89.45H209l-.13-.45h-.64v-.64h.64l-.64-1.47,1-.77-.64-.26-.19-.57h-.64l-.77-3.77,1.21.26-.9-1.09-.13.45-.51-.45L208,72l.38-1.28h1.72l-.19.83h.19c0,.45-.06.45-.19,0L209,73.69h.64l2.3-.38-.83-.45,1-.19.45.64H212l-.57.57-1.72-.19-.77.83.13,1,.89.19-1,.64,1,.45.19.38.45.19v2l.83.26-.51-2.36a6.8,6.8,0,0,0,.51-.7c0-.06,0-.13-.13-.13a.24.24,0,0,0-.06-.19v-.13l.83-.45,2.87,1.47-1.72.19.89.26-.45.57.19.64-2.43-.25.13.77,2.94-.13,1.34,1.91h1.15l-.38-1.28.38-.45h.83l.19-.57h.64l.19.83,1,.38.25,1.09.38.38-.13,1.34.64.32,1.34.38.26-.64-.26-.57-1.21-.45-.45-1.4,1.47-1.72-1-.38.64-.38-.64-.64.83-.19Zm1.6-.7h.44v.45h-.44Zm4.21-2.49v.19h-.25v-.19Zm-1.92.64V74.9h.26v.45Zm.26,2.68-.39-.38c.58-.19.45-.38-.25-.64l1.28.19v1c.13,0,.19,0,.19-.06-.06.57-.13.57-.19.06C226.58,78.73,226.39,78.67,226.46,78Zm1.27-.64v.38h-.26v-.38Zm.38.38V77.2l1.47.45a3.3,3.3,0,0,0,.64,2.68l-.64,1-.45-.38v.57l-.38,1.66h.19c0,.32-.13.32-.19,0h-.45v.19q-.38-.1,0-.19V81.35l-.45-.83.45-.45.45-1.85c0-.13-.07-.26-.13-.26A.84.84,0,0,0,228.12,77.77Zm0,.45h.19v.38h-.19Zm-8-4.79-.32.45L219,73.5l-1.21.19v.19c-.32-.06-.32-.06,0-.19L218,71.9l1.15-.32Zm-2.74-1.85V71.2h.45v.38Zm-1.4,2.62v-.83h1.4v.83Zm.19.51c.13.83-.06,1-.45.64v-.13C215.41,75,215.61,74.84,216.12,74.71Zm4.34.19h.38v.45h-.38Zm1,0h-.19v-.19h.19Zm-1.85,3.32c.51.26.64.32.19.19-.07,0-.13-.13-.19-.19h-.13C219.5,78,219.56,78,219.63,78.22ZM220.2,77v-.19h.26V77Zm.26-.45h-.32v-.64h.32Zm7.85,2.87h-.19V79h.19Zm-.51,4.79v-.64h.38v.64Zm7.6-10.91v.19h-.26v-.19Zm0-.26h-.32v-.64h.32Zm1.21,3.77h-.19v-.25h.19Zm3.06,1.4v-.45h.26v.45Zm-6.45-4v-.7h.32v.7ZM229.46,77v-.45H230V77Zm2.55-2.3v.19h-.19v-.19Zm1.08,3.7v-.19h.38v.19Zm0-.38v-.38h.19V78Zm-.19,1.85h-.45v-.19h.45Zm-1.08,2.49H232v.19h-.19ZM230,81.54v-.38h.77v.38Zm-.25,0H230v.26h-.19Zm0,1.66h-.19v-.26h.19Zm-.19,1v-.38h.19v.38Zm9-3.83H239v1.15h-.38Zm-.32-.51h.38v.19h-.38Zm.19,2.23h.19v.64h-.19Zm-2.3-2.23h.25v.19h-.25Zm.45-1h-.19V78.6h.19Zm.76,6.57v.26h-.13v-.26Zm3.13,3.7c.13.7.13.77-.06.13C240.44,89.26,240.44,89.13,240.5,89.13Zm-9.13,9.77v-.19h.45v.19Zm8.94-2v.57h-.38v-.57Zm-17.17,4.34h-.19v-.26h.19Zm5,7.21h-.25v-.19h.25Zm-2.68,4.79v.19H225v-.19Zm-2.3-2v.19h-.19v-.19Zm18.25-8.49v-.25h.13v.25Zm-.25.64v-.45h.25v.45Zm-1.85-.45V103h-.38v-.19Zm-.38.64v-.19H239v.19Zm.51,0c-.19-.13-.19-.25.06-.32h.64C240,103.69,239.8,103.81,239.41,103.5Zm-.77.38H239v.38h-.38Zm1,.64-.44,1-.58-1Zm.45,1.21.45-.64v-1.6l1,2.23.64.19-.64,1.47-.64-1-.57.32Zm-5,.38h.7v4.4h-.7Zm1.09.7h.13C236.48,107.52,236.48,107.52,236.16,106.81Zm1.85,1v-1.6l.89.19.57,2.23-.57.45-.26-.83Zm0,1.66h-.19V109H238Zm.44.26H239v.19h-.58Zm-9.06-4.34v-.25h.38v.25Zm-.9,2.17c.77.45.77.45,0,.13Zm3-.57-.77.06-.38-1Zm-1.53.7h-.19v-.26H230Zm3.45,1.4v-.83h.32V109Zm.06.83h.26v.19h-.26Zm.83.45c.13,0,.19.06.32.19a1.91,1.91,0,0,1,.13.64,1.54,1.54,0,0,1-.13.57c-.13.19-.19.19-.32.19s-.19,0-.25-.19a.88.88,0,0,1-.19-.57,1.07,1.07,0,0,1,.19-.64C234.12,110.39,234.18,110.32,234.31,110.32Zm-.57,2.43v.19h-.26v-.19Zm-2.74.19h-.19v-.19H231Zm6.83-2-.45.19.26-1.09Zm-2.68.38h.38v.19h-.38Zm3.13,4.92c0,.13,0,.13-.06.19-.26.25-.51.25-.58-.19ZM258.5,95.39V95h.45v.38Zm-.19-.64v-.19h.19v.19Zm2.93,0h.06C261.31,95.07,261.31,95.07,261.24,94.75Zm.77,2.11h.26V97H262Zm.58,2.68c0,.26-.06.26-.13,0h-.13c0-.32,0-.32.13,0Zm-12.51-5.43h.12v.26h-.12Zm1.34-5.43h.38v.89h-.38Zm-7.34,3.64h.38v.19h-.38ZM242,91.5v.19h-.45V91.5Zm.83,2.23H243v.38h-.19Zm3.32-.19v.06C245.61,93.41,245.61,93.35,246.12,93.54Zm1,2.68h.13c0,.32,0,.32-.13,0h-1V94.75h-.19q-.57-.29.19,0a1,1,0,0,1,.77.45A2.67,2.67,0,0,1,247.14,96.22ZM245,95l.64.38v.83l.45.38-.45.83-.77-1.79-.64-.26Zm1.21,2.55V97h.7v.51Zm-3.83-1.72h-.25v-.19h.25Zm-.13,1.4h.7v.45h-.7Zm.13.83v-.19h.77v.19Zm.07-1.85h1v.51h-1Zm1.79,5h-.19v-.45h.19Zm.32-.45v-.64h.32v.64Zm-2.49,1.15a.37.37,0,0,1,.32-.13.47.47,0,0,1,.26.13.46.46,0,0,1,0,.64.47.47,0,0,1-.26.13.37.37,0,0,1-.32-.13c-.07-.13-.13-.19-.13-.32S242,102,242.1,101.9Zm4.59-1.91v-.26h.26V100Zm-.38-.45h.26v.19h-.26Zm-1,0h.19v.57h-.19Zm1.66,1.85v-.19h.38v.19Zm7.28-5.74v.19H254v-.19Zm-2.94.57h.19v.25h-.19Zm1.28,0h.13v.25h-.13Zm-.25.38h-.19v-.13h.19Zm-1.66-1.85v-.19h.19v.19Zm-1,.26h.45v.64h-.45Zm2.62,6.19h1.09V103h-1.09Zm-1.6-2.68,1,.38C251.22,99.35,250.9,99.15,250.65,98.52ZM242,102.86V103h-.19v-.19Zm15.32,2.68h-.19v-.19h.19Zm2.3,3.89h.19v.89h-.19Zm-3.13-.38h-.26C256.2,108.28,256.26,108.28,256.46,109Zm4.15,4.79h-.25v-.26h.25Zm5.36-1.91v.64h-.19v-.64Zm-1.66,2.74h-.13c.25-.57.32-.57.13,0h.13C264.43,115,264.43,115,264.31,114.67Zm-.32,3.06h.32v1.21H264ZM184.27,22.95h.64v.26h-.64Zm-1.66-.38h.19v.26h-.19Zm2.42,8h.89v.45H185Zm-5.75,6.89v-1h1.47v1Zm-1.66,1-.83-1h1.66Zm5.17-1.92h.26v.26h-.26Zm3.13.26L185,36.6V35.39l5.43-.19-.64-.26c1.53-.83,1.72-1.47.7-2l.51-.32.45-1.21,1.09.45.51,1.53-.77.13.64.83-.39.19v1.28l1.4,1.21-.38.45,1.21,1.4h1l.25.45,1,.38.76,1.47.89.45v.57l.38.19V43.5h1.66l.57,1.21,1.73-.19-.45.64.45.64,1.85.13v-.06c.58,0,.58,0,0,.06l1.21.83.45,1L207,48l.89,1.85-.89.38A4.54,4.54,0,0,0,203.73,47l-.83.38V48l.38.19.19.83-.38.26-.64,1.21.64.38.13.77L202,51.54V48.22l-.77-.19-.89-1-.77-.26.77-.38h-1l-.25.83h.25c0,.57-.06.57-.25,0h-.64v-.64l-.38-.64-.64-.13.25-.64H196.2l.64.38-1,.57-.57-.19-.7-.83V44.9c-.07-.77-.32-1-.77-.64h.13c0,.32-.06.32-.13,0l-1,.19c.64.13.45.19-.64.25l.44-.57-1.92-.89V42l-1.85-.38,1.66-.51-1-1,.7-1.28h-1.6l.19.83L188,40l-.19.57-1.21-.38V39.09l.57-.83c-1.15-.13-1.28-.38-.51-.51l-2-.51Zm-2.49,1.85v-.19h.19v.19Zm1.6-.83h.26v.26H185Zm0,1h.26v.19H185Zm-13.66-8.43v.57l-.57.19h.13c0,.57-.07.57-.13,0h-.58l.13-.77h-.06c0-.32.06-.32.06,0Zm-3.06,2.62V33h.19v.13Zm3.51.64c.13,0,.19,0,.19.06.13.51,0,.45-.19-.06h-.13C171.69,33.41,171.76,33.41,171.82,33.73ZM176,40v.45h-1.15V40Zm-3.38,1.53h.51v.26h-.51Zm-2.23.26V42h-.13v-.26Zm2.75,2c-.51-.26-.51-.32,0-.13Zm-2.75-2.23h-.83v-.89h.83Zm-4.91,3.32h.38v.25h-.38Zm1.85,8.49.19,1.09,1-.45-.64-.19a4.82,4.82,0,0,1,3,1c.13.13.32.26.38.32a2.41,2.41,0,0,0,.57,1l-.57.83.13.64-1,.83v.19q-.38-.1,0-.19l-2.62-.19-.26.64-.64.13-.64-.38-.13.64L165,58.82V58l-.77-.64h.57l-.19-.83.64-1.47,1.6-.19-.38-1Zm-1.09,0h.26v.19h-.26Zm17.42-13.85h-.19v-.19h.19Zm-5.81-.19v.38h-.19v-.38Zm28.91-6.06v.45h-.45v-.45Zm1.92,2.3h.25V36h-.25Zm-16.53-7.21h-.19q0-.57.19,0c.83.13,1.21.45,1,.83Zm2.49,2.42h.7v.38h-.7Zm-1.27.89h.25v.19h-.25ZM195,38.52v-.26h.26v.26Zm-.64-3.32.64-.45L197.1,36v1Zm6.06,3.38c.26.51.19.51-.19-.06H200q0-1,.19,0C200.35,38.52,200.35,38.52,200.42,38.58Zm-2.11.32h.19v.19h-.19Zm1.34.77v.7H197.8v-.7Zm2-.32.19.64h.13c0,.32,0,.32-.13,0l-.45,1.21L201,40Zm.83,3.26v-.38h.45v.38Zm-5.81,4.15h-.19v-.19h.19Zm5.81-3.06v-.64l.83.64h.13c0,.32-.06.32-.13,0Zm-6.64,8.87v-.38h.38v.38Zm-.57,2.11V53.58l1,.45.64.83-.77.19Zm-1.91,0H194v.19h-.64Zm7.28-4v-.19H201v.19Zm-.64-2.3v.26h-.58v-.26Zm-3.57-.89v-.45h.7v.45Zm-.19,3.19h.25v.19h-.25Zm2.11-.83c-.19.38-.06.7.38.7.32.57.13.89-.51,1h-.13c-1-.58-1.21-1.09-.76-1.66-1.09.06-1.34-.64-.64-2.17l1.08,1.92Zm-.45,1.91v.38h-.13V51.8Zm-1.4,0h.38v.13h-.38Zm1.66,1.6V53.2h.19v.19Zm.64-.19a.48.48,0,0,1,.06-.32,1.06,1.06,0,0,1,.32-.13.44.44,0,0,1,.45.45,1.06,1.06,0,0,1-.13.32.47.47,0,0,1-.32.06.29.29,0,0,1-.38-.38Zm-1.28.64,1.08-.06,1.66.45.38.83c-1.15-.06-1.21-.06-.25.13v.51l-1.41,1,.45-.83-.45-.83c-.51,0-.7-.26-.44-.7l-1,.7Zm2.74,0H200Q200,52.88,200.22,53.84Zm1.6-.45-.57.19a1.5,1.5,0,0,0-.19-.32c-.07-.06,0-.26.19-.51l-1.85-.83H201l.83.64Zm.51,1.28V54h.45v.64Zm-.83.13h.45v.45h-.45Zm9.9-8.23c.06,0,.06,0,.13.06C211.71,47.07,211.71,47.07,211.39,46.56Zm-1.72-1.21v-.19h.25v.19ZM205.78,40c0,.06,0,.06-.06.13C205.46,40.31,205.46,40.24,205.78,40Zm-1.34,3.7v-.51h.77v.51Zm-.32,1.85V44.9L205,45Zm4.53,4.72h-.19c.06-.32.13-.32.19,0l1.28.89h-.64Zm-3.19,1.66v-1h.7v1ZM203.1,53.2v-.26h.19v.26Zm3.51,1.28h-.19V54h.19Zm2.3-1.09v.45h-.25v-.45Zm3.7-5,.57-.19V48q.48.1,0,.19l.07.83.57.83h-.64l.26.38-.64-.38Zm.57,2.49h.26v.45h-.26Zm1.85,1h-.25v-.38H215Zm-64.72-31.4v-.26h.26v.26Zm-1.28.19.25.64,1,.45c-.25.7-.13.83.32.38l1.53,1.4,2.74.83-.83.32-.9-.32-.77.25.64.19.13.77.64.64c-1,0-.76.45.83,1.47l.83-.19.83.83-4.15.64c1.6.26,1.92.51,1,.83.64,0,.83.38.51,1l-.57.19.38.38-.26,1.28-.38-.64-.83.26-1.41-1.08-.64.38.38.26V33h.26c-.06.57-.13.57-.26,0h-.64l-.19,1.21-.57-.64-1.66.38a3.38,3.38,0,0,0,.77,2,4.66,4.66,0,0,0,1.85,1.66l.45,1.79-1.4-.38-2.11-2.11.25-.83-.45-.45-1.09.45-.57-.64-.45.45v.64l-2.87.13.19-1.21-1.47-.45.89-.19H139.4l.19.64-3.13-.64V34l1.28-.64v-.64l-.64-.19v.83l-1-.26v-1h-1.85l.13-.38-.77-.26-.26.45h-1.59l-1.28.83-2-1.21-1.53,1-.64-.45v.45c-.64-.13-.64-.26,0-.45L125,31.44l.45-.57-.57-.64-3.13.38.19.45-1.4.19c-.32.57-.32.64-.26.26l.26-.26-1.66-.19v-.57l.77-.26-.77-.19h.57v-.64l.64-.13.45-.45v-.64q2.68.57,1.91-1.15c-.38-.13-.32-.25.32-.32v-.64l-1-.19,1.85-.32-3.51-.89-.19-.45.64-.83,1.6-.19v-.64h-.77c-.13.19-.19.26-.32.26-.32.13-.51.06-.51-.26h-.45v-.19l-.83.19-.26.38-1-.38,2.11-.19h.45v.19l.51-.32c-.83-.32-.57-.7.7-1.28l1.66-.45c.06.38-.06.7-.45.77,0,.77.38.7,1-.06l1.34.57.19-.45,1.21.06c.19,1.08.83,1,1.92-.26l4,1c-1.15-.64-1.28-1.09-.51-1.28-.13-.45.06-.7.51-.83l.58.83h1.66l.19.45.45-.19,1.66.64.19-.45Zm-10.91-.45v.26h-.26v-.26Zm19.15,2.55h.51v.38h-.51Zm-5.62-.26v-.38H152v.38Zm-34.4-.19h.19v.19h-.19Zm-1.47-.19v.38h-.25v-.38Zm3.13-1.28H119v.45h-.13Zm.13,1V21.8h.64v.13ZM127,18.67h.19v.19H127Zm1.28,1.85v-.26h.38v.26Zm2.23-.45v-.38h.38v.38Zm-.83.32v.32h-.83v-.32Zm7.47-.13v.26h-.25v-.26Zm-7.47,13.47v-.19h.45v.19Zm1-.19h-.19v-.19h.19Zm-5-1.66v.19H125v-.19Zm-.38,1.66v.13C125,33.41,125,33.35,125.29,33.54Zm6.19,2.75v-1h1v1ZM135,33.1v.06c-1.15.13-1.34.13-.64-.06l-.57-.13v-.64l.83.19Zm-2.68-1H133v.45h-.64ZM133.78,34v-.45H134V34Zm.57-.45h.26v.19h-.26Zm2.49,2V36h-.45v-.45Zm-1.4.45v-.45h.19V36Zm0,2.49v-.26h.19v.26Zm1-3.13h-.64l-.19-.64Zm-17.55-7v-.64c.57.19,1.09.32,1.53.45Zm.38,1c-.13,0-.26,0-.26-.06C119,28.88,119,28.88,119.29,29.39Zm-3.77-4.53v.45h-.13v-.45Zm-2.62,0h.83v.19h-.83Zm1.41,3.51h.19v.19h-.19Zm-.26-1v.51h-1.47v-.51Zm-1.79,2.81h.38v.26h-.38Zm3.7.83v-.45h.45v.45Zm.64,0h.19v.19h-.19Zm.64-1c.19.06.19.06,0,.13Zm.38,1.4.38.45-2-.06Zm.83,1.53v-.89l2.17.06-1.4,1.34-2,.25,1-.38-.38-.26-1.28.26v-.64ZM118.33,36v-.51h1V36Zm.13-.83v-.26h.45v.26Zm6.19-3.32v-.19h.25v.19Zm-1,0h.19v.19h-.19Zm.19,1.08h.26c0,.38-.06.38-.26,0h-.06C123.76,32.58,123.76,32.58,123.82,33Zm-1.66-1.28h.25v.38h-.25Zm1,.38h-.13v-.19h.13Zm.64,1.66v.45h-.19v-.45Zm-.32.83h.32v.38h-.32Zm-3.38,0h-.19Q119.93,33.7,120.12,34.56Zm-1.21-.38h.38v.19h-.38Zm4.28,1.21h-.38V35.2h.38Zm-4.91,15.13-.32-.57-1.66.45.06-1.28,2.11-1.47,3.32.77L122,49l.58-.32.83.19.83-.83.77-.26.26-.57,1-.45,1-.38-.19.38,1.92.26-.45,1-1.47-.26-.83-1v1l-.38.26.19.83-1.08.19.38,1.34-.77.51v.64l1.28.26v-.64h-.26c0-.38.06-.38.26,0l.19.64h.57l-.57,1.79.57,1.47-.57-.38h-.64l-.45-.83-.77-.25-.45-.83-2.87.19-1.28-2.23Zm-6-2.74v.64H112v-.64Zm1.21-.7v.32h-.7v-.32Zm1,3.64H115v.45h-.45Zm-.64.83v.26h-.38v-.26Zm-.76.26h-.83v-.32h.83Zm10.53,1.79v-.19h.19v.19Zm8.93-7.34h1.66V48h-1.66Zm2.24.51h.77v1.47h-.77Zm-4.47-1v.64h-.58V45.8Zm.13,2.87v-.26h.38v.26Zm.19-1.15v.06C129.89,47.46,129.89,47.46,130.65,47.52Zm-3.7.89h.19v.26H127Zm-.38,2.11h-.45v-.25h.45Zm.13.64v.38h-.13v-.38Zm.89-.45,1.6-.83,3.38.19.58,1.72h.64l-.45,1-.19-.57-.45-.26v-.57l-1-.64Zm7.4-2.3v.45h-.51v-.45Zm1.66-.64v-.13h.45v.13Zm-4.53,0h.19V48h-.19Zm-.38,1.53h-.13C131.61,48.92,131.67,48.92,131.74,49.31ZM133,54c.26-.77.32-.77.13,0Zm2.62.45.19-1.72,1.72.45a.38.38,0,0,0,.07-.26v-.06c-.38-.7.13-.77,1.34-.13l-.19-1.21,1.21-.38-.58-.64,1,.19-.38-.64,1.85-1,.19-.83V48q.48.1,0,.19l1.72.45.13.77h-.58v.64l1.21.64.26,1.47,1.4,1.4,2.11.77,1-.32-.64-.19.64-.25L149,53.2l1.09-.26.19.89,2.11,1v.83l.64.19.57,2.3-2.23.77,3.89.26-1,.38-.64,1.47.83-.19v.83l.83.45L155,63l1.28-.26.26.38.57-.13.64.13-.64.45-.19,1,2.49-.19-.38-.83.58-.19V61.5l-.58-.26c1.41.32,1.92.06,1.47-.83l1-.19.45,1.28a.31.31,0,0,1,.38-.06l-.13.19.51.51c-.06-.13.06-.32.45-.45v.83l1.09,1.6,1.21-.38.64.38.13-.38,1.09.19.19-.38,3.32.19-.32,1,1.79.51-1-2.17.13-.57-1.15-1,1.92.13a.64.64,0,0,0,1,0v-.13c.32,0,.32.06.07.13l3-.45-1-1.21h-.06c0-.32,0-.32.06,0l2.62-.38c-.06.26-.06.57-.12.77l.38.45-.64,1.28,1.08.38.19.57-1.4.64v.64c.58.64,1,.64,1.15.19.06-.13.13-.19.19-.19l1,.51a.12.12,0,0,1-.19,0c-.45,0-.58.25-.32,1l-2,1,.19.83,2.68.38-1.47.19,1,.45,1.09-.45,1.21.25v-.25c.32.13.32.19,0,.25V70a9.41,9.41,0,0,0-5.62.38l1.47.83-.83.58.83,1.72-.39.19-.19,1,1.6,2.11,1.92.38.13.89-.89.19c.45.51,0,1-1.34,1.4l.58.06c-.06.19.19.45.64.77h.26c0,.32-.06.32-.26,0H179l-.13-.45-.64.26L178,81.79l-1.4-.45-.64-1h-2.11l-.38.38-1.21-1-2.49-.45-.38-.38-2.3-.25-.26.45-2.55.38L164,81l-.38.19v.77l-1.47.19-.19.64-.83.19L160.65,84l.45.64v1.85l-1.92,1h1.28l-1.47.83-.83,1.53-1.47-3.19-1.21-.19v1l-.45.64V83.84l-1.21-.26-1-1.79-2.68-1.47,1-.32L151,78.6l-.64-.38.83-.45.64.83,1,.25,1.28-.57.38,1.15-.38.26v1.47l1,.19-.58-1.28.58-.64.13-.89-.7-1.15h-1l-.26-1-3.51.19-.38-.83-1-.19,1.21-.19L149,73.88l-1.91-1.53-.13-1-1.53-.19v.19q-.58-.1,0-.19l-.89-.45-.38-.64-.26-1.21-.58-.38.19-.64-.38-.64-1.28-.77c.13,0,.13-.06.13-.13A.48.48,0,0,0,142,66c-.64-.06-.83-.32-.57-.64l.57-.64-.19-1v-.38L142,63l-.38-.26-.19-1.47-3.13-.19-.19-.83-.64-.64-.19-.77-2.68-.64.83-1.28.38.45h.83l.45.38,1.85-.64.64-1-1.08-.64.64-.57-.38.19.19-.57h.38c.06,0,.13-.13.25-.26H138.5l-.19,1.09-.83.13.26-.38-.64.26h.06c0,.32,0,.32-.06,0l-1.28-.45Zm24-25.91h.57v.26h-.57Zm.19-.19-.19-.45-.83-.19,2.3-.38,1,1.21-.83.38-.19.64-.26-1Zm-.64.83h.64v.19h-.64Zm4.4-1.47h-.25v-.38h.25Zm0,1.08h-.25v-.26h.25Zm-9.13-4h.19v.19h-.19Zm1,1.85V27h-.19v-.26ZM155,29.58h.32V30H155Zm1,.64h.38v.38h-.38Zm-4.41,3.32.45.83-.58.38,1.21.45.32-.89,1.53,1.09-.19.83.38.38-.19.64h-1.53l-.77-.64h.64l-.19-.77-1.21-.26-.51-.38.06-.45-1-.19.38-.58Zm.32-.13-.32-.06C151.84,32.9,152,33,151.84,33.41Zm4.72,3.45V36.6h.38v.26Zm-.45,0h.19v.19h-.19Zm1-.83-.57-.19.13-.64.89-.26.64,1.09.83-.45.13-1.21-.38-.64.25-.77-.45-.26-.19-1,1.66.64-.45.77,2.3,2.74v.64l1-.32-.32,1.34h-3.13l-.83-1H157.4Zm-1.85.19v.25H155v-.25Zm5.36-5v.19h-.45v-.19Zm-.45,7.66h.26v.19h-.26Zm1,0h.58v.45h-.58ZM139.4,36.48v.13h-.64v-.13Zm2.62,1v-.45h.26v.45Zm6.45-2.55v-.19h.19v.19Zm-2.94,2.55v.38h-.13V37.5Zm3.77,4.21h1.34v.89h-1.34Zm-8.62,6.83-.51-.7C140.87,47.84,141,48,140.67,48.54Zm-1.53,1.72v-.19h.64v.19Zm-.38.25H139C138.82,51,138.76,51,138.76,50.52Zm0-.64H139v.19h-.19Zm.38-.19v-.26H140v.26Zm.45-1.28-1.53,1.66-1.6-1.66Zm10.09,4,1.08-.45C151.21,52.5,150.89,52.63,149.67,52.37ZM163.78,42l-1.09-.77h.89Zm-12.64-1V40h1v1Zm4.15,13.66v-.19h.19v.19Zm1.66-.64.19-.64,1.66.45-.57.64.57.57-1,.26-.19-.45-.64.19-1.28-.57Zm-19.08-6.7c-.32-.64-.19-.64.26.06C138,47.39,137.86,47.39,137.86,47.33Zm19.91,8.62a1,1,0,0,1,.13-.19,2.75,2.75,0,0,1,.32-.06c.06,0,.19.06.26.06a1,1,0,0,1,.13.19.33.33,0,0,1-.13.26.39.39,0,0,1-.26.06.48.48,0,0,1-.32-.06A.34.34,0,0,1,157.78,55.94Zm.64.57h.19v.19h-.19Zm.19,3.89h.19v.19h-.19Zm-.38.83H158v-.19h.26Zm-.64.89v.19h-.26v-.19ZM162.31,60v-.26h.64V60Zm-.38,0h-.19v-.26h.19Zm-6.26-4.72h.45v.77h-.45v-.19h-.19v-.45h.19Zm-16.91.77h-.25v-.19h.25Zm9.7,17.81v.26h-.19v-.26Zm-1.4-.57h-.25v-.26h.25Zm.38.38V73.5c.58,0,.58.13,0,.19a.22.22,0,0,1-.06.13C146.86,74,146.93,74,147.44,73.69Zm-.19,1.21v-.19h.38v.19Zm-.19.64v-.32h.77v.32Zm-.25.32v1.53h-.7V75.86Zm1.66,1v-.25h.19v.25ZM140,73.94V72.41h1v1.53Zm1,2.43v-.64h.64v.64Zm-.77-1v-.26h.13v.26ZM139,76.82h-.19v-.25H139Zm.19.38V77h.25v.19Zm.83-.64v.25c-.26-.13-.26-.13,0-.25v-.19Q140.83,76.46,140,76.56Zm.38,1.21.26-.77.51-.19c.51-.19.7,0,.32.57.7-.06.83.06.38.51-.51-.06-.77.19-.83.7l-.64-.38-1.4.32a2.85,2.85,0,0,0-.51-1.09ZM142,75.92h.26v.26H142ZM144.12,78h-.38v-.38h.38Zm-1.21-.64.83-.38-.25.77Zm-3.51,8.87h1Q140.74,87.32,139.4,86.26Zm2,0,1.72-2.55,1.79.13L147.06,88l-1.28.19-.26.64-.38-.13a.44.44,0,0,0-.25.13c-.06.13-.06.19.06.38l-.83.19-.38-.45-1.47-.13L142,87.73h1.72l-1.91-.64Zm8.36-6.51v.64h-1v-.64Zm.51.13h-.38v-.19h.38ZM150,81.54V81h.32v.57Zm-4.59-1.85v-.45h.38v.45ZM149,83.2v.19h-.38V83.2Zm4,.64V84h-.26v-.19ZM133.59,56.52l.38.19V57C133.33,57,133.27,56.9,133.59,56.52ZM132.12,55c.58,0,.58,0,0,.06Zm2.23,2.11V56.9h.26v.19Zm-1.79.13.77.51-1.85-.19-.32-1h1.21Zm-4.15-1.34v-.19h.38v.19ZM136.72,94l.06.06-.58,1.09.64-.19v1l-1,.45.38-1.28C135.57,94.69,135.7,94.37,136.72,94ZM135,93v-.26h.45V93Zm-9.38,8.55c0-.06-.06-.06-.13-.13C126,101.71,126.06,101.77,125.61,101.52Zm4.85-1.79h-.06c0-.25,0-.25.06,0h.06C130.52,100.11,130.52,100.11,130.46,99.73Zm.38.38h.25v.26h-.25Zm-1.6-.38a.49.49,0,0,1,.26-.06l.7.32v.77l1.91-.64-.38,1.09.83.57.13.89,1.09.83-.64.19h1.09l.38,1,1.47-.57,2,.45-.38,1.34-.26-.38-1.28-.45-.19,1.15-.57.13L135,107l.25-1.09H134l-.45.32.26,1.15-1.21.64h.07c0,.26,0,.26-.07,0l-.83.57.38.64.83-.38-.25.38h1.09l.57-.38.45.38,1-.83.25.64h1l.38-.83-.38-.57,2.87-.83-.83-.25.83-.38.83,1.85-.57-.06.38,2.11.83.45-.19-1.28.77.19,3.77-2L146,107l1.47-.64.19-.83,1.08.38-.06,1.09,1-1.28.64.64,1,.13.89.89.25,2.49-.89.64.64.19-.64.45-.38-.45-.58.45,1.21.38-.83.57.77.32-.25.64-2.43.51-.13.89-1.08.19,1.79.19-1.79.57-.58-.38v3.77l-1.85.38-.45-.64-1.47-.58-.83.19v.64c-.06,0-.13.13-.25.19s-.07.13-.13.13v.13h0c.06.06.13.06.19.13l-.45.38v.83l.64.45v.83l.45.64h-.64l-.19-.38-1.92,1-1.21-.77.45-.19v-.89l-1.08.25-.64.64v.58L139,123l-.83.57.64.83h.06c0,.57,0,.57-.06,0l-.45.64h-1.66l.83.64-.64.83-.77-.26.77.83-1.21-.19c.45-.26.32-.38-.19-.38l.77-.83-.77-.25,1-.64H135l-.19-.64-.57.26v.06c-.58,0-.58,0,0-.06v-.64h-.64v-.64l.77-.38-1.21.26v.13c-.25,0-.25-.13,0-.13l-.58-.45v-.64l.38-.64.64.45.19-.64-.83-.19-.25.38-.58.25-.83-.45V123h-.64l-.19-.64v.77l-2.49.83.83,1-1.6-.83-.89,1.09-.51-.45-.89-.13-.45-1,1.21-2.49H127l.19.45,1.66.19.83-.83.19-1.08.83-.19.45-1,.64.26v.57l.38.64.58-1.66h.64v-.64l.45-.64-.19-.57.64-.83,1.91-.64-.06-1v.13c-.57,0-.57-.06,0-.13l-1.34-1,.26-1.34-.38-.38.38-.64-1.15-.89-1.28-.13-.45.38-.19-.38-3.13-.51-.19-1.15c-.7-.26-.7-.26-.06-.06l.06.06,1-.38v-1.28l-1.4-1.47,1.47.19.45,1-.32.32L131,106l.06-3.83-.89-.45.26,1.09-.64.19-.19-.64-.83.25.38-.64-3.7,1h.83l.38,1.21,1.09-.13v-.19c.51.06.51.06,0,.19v.57a3.34,3.34,0,0,1-.64.38l-.45-.83-1.21.45v.19l1.47.45v.57l-1.28-.38-.19-.64h-.19v-.19h-.06c-.06-.32,0-.32.06,0h.19v-.57l-.57-.26,1-.38-1.66-.83,3.51-.45v-.64l2-.19Zm5.11,0h.26V100h-.26Zm2.17,3.83h-.7v-1h.7Zm-1.91-.25h-.38V103h.38Zm1.85,4.47V108h-.26v-.26Zm.64-1.6h.19v.19h-.19Zm-8.3-2.49q-.58-.29,0-.38V103c.32.06.32.13,0,.26Zm1.85,1.08c-.25,0-.25,0,0-.06Zm-5.17,1.6v-.19h.45v.19Zm3.32,0v-.19h.25v.19Zm0,.83h.25v.19h-.25Zm5.55,5.49v.26h-.57v-.26Zm-2.23,4.85h.19v.19h-.19ZM159.44,90l.77-.26.26.83-1.28.89v-.64l.45-.26Zm.19-.45h-.45V89.2h.45Zm-1.85,4.34h.45v.19h-.45Zm-1.85-6.19v-.19h.19v.19Zm-1,2.3.38-.26.64-1.09,1-.06.44,2.43-.64.64-.77.19L155,94l-.7-1.08.38-.45Zm-1.47-.26v-.19h.19v.19ZM151,98.07h.45v.19H151Zm1.21-.64H152v-.19h.19Zm.89-.57h-.45V96.6h.45Zm-.26,2.87-.38-.19-.45.83,1.47,1,.58-.06-1.21,1.85-1.85.32-1.47,1.66-1.47-1,1.28.13.45-.77-1.28-1.91-.83.32-.57-.7,1.4.38-.45-.83-1,.19-6.7-3.26H141l.26-.45,1.4-.19.45-.57-.64-.45,1-.19.38.19.64-.19.38.32,1.15.13-.64.32v.64h.77l.26.45h.64l.19-1.85-1.09-.19L146,94.5l-1.21.7-.26.45h-1.6V95l-1.66-.89H142L141.69,93l-1.34-.45V93h.13c.06.25,0,.25-.13,0-.06,0-.13-.06-.19-.13s0-.32.19-.32l.89-.83h1l.38.64-.19-.83h-.64l-.38-.45,1,.45,2.94.19L145,91l-1.66-.83.51-.51,1.34.51h.06c0,.64,0,.64-.06,0-.13,0-.25,0-.32.13-.26.19-.26.38.13.7a.35.35,0,0,1,.32.13c.25.19.32.32.13.51L147.63,93v1.79l-.57.45,1.6.45L148,96l.45.45-.19,1h.38v.45h.13c0,.32-.07.32-.13,0l-.38-.45-.64,2.3,1.28.38.38-.13.64.13.89-.64.32-.77.83-.45,1.21.64Zm2.49,1.47-.25-.64c-.06.19-.26.38-.38.64l-.83-.26.45-.83,1.4.26.45.57Zm-8.49-10h.25v.26h-.25Zm-2.3,0v.26h-.38v-.26Zm4.15,1.85v.26C148.33,93.28,148.33,93.22,148.65,93.09Zm-.38.83h.13c.45-.45.64-.32.64.19-.06.19-.26.26-.38.32C148.33,94.5,148.21,94.37,148.27,93.92Zm-7.47-.19h-.57l-.64.38h.77l.45,1.09.64.19-.83-.19-.38,1-2.3-1.66,2.3-1.21Zm2.94-2.49v.26h-.45v-.26Zm-1.91,4V95H142v.19Zm-.38,1.66V96.6h.38v.26ZM141,96.6h-.38v-.13H141Zm.83-.13-.77-.51C141.82,95.77,142,96,141.82,96.47Zm5.49,6.13c-.26-.25-.26-.25.13.06C147.37,102.67,147.31,102.67,147.31,102.6Zm-8.55,1.53v-.45H139v.45Zm1.91,4.91v-.45h.45V109Zm3.45-1.4h-.26C143.61,107.58,143.74,107.58,144.12,107.64Zm3.32,7.79h.19v.26h-.19Zm2.23,2.3.83-.26,1,.7Zm-1.79-1.47c.77-.38,1-.19.64.51,0,.06-.13.06-.19,0Zm4-12.57h.32v.45h-.32Zm-.89,1h.19v.19H151Zm.45-.19h.13v.38h-.13Zm.58,1.4h.19v.26H152Zm3.51.45c-.19.83-.38,1-.45.45h-.77l-.83-.25v-1l1.47-.19Zm-2.68,9.06h.26v.45h-.26Zm6.64.45a1.09,1.09,0,0,1,.32.13.38.38,0,0,1,.06.26.48.48,0,0,1-.06.32.41.41,0,0,1-.32.13c-.13,0-.26,0-.32-.13a.47.47,0,0,1-.07-.32.37.37,0,0,1,.07-.26A.49.49,0,0,1,159.44,115.88ZM211.14,58l.26.38h1.79l.45.57.06,1.66L215,63l-1,1.28.19,1.79h-.64l-.77-.7L212,66l-.44-.83.89-.19-.26-.89.45-.38-.45-1.53-.76-.7a.14.14,0,0,0,.13-.13,1.68,1.68,0,0,0-.26-2,3,3,0,0,0-1-.83l.26-.57Zm-1.66-2a2,2,0,0,1,.06,1l-1.28-.13h.64l-.45-.83Zm-.19,3.38.83,2.74-.64.83.19.57h-.77l-.45-3.32-.64-.19a.47.47,0,0,0,.13-.38,1.46,1.46,0,0,0-.32-.26v-.57h-.83l-.19-.45-1.09-.19-.13.77a.69.69,0,0,1,.32.13c.06.06.06.06.06.13v.38a1,1,0,0,1-.38.06.7.7,0,0,1-.64-.7l-.89-.38-.13-.57h3.51l.13.38H208v-.19c.38,0,.38.13,0,.19l.64.45v.57ZM212,62.52h.19V63H212Zm2.68-2.11v-.19h.25v.19Zm-.39-.38v.19h-.44V60Zm-5.36-4.72v.13h-.64v-.13Zm-6.25,0v.57h-.32v-.57Zm.83,2.23-.58.19.38,1.09h-.64l.25-1.09-.45-.64.19-.83.64.64.57-.19A4.6,4.6,0,0,1,203.48,57.54Zm-.38,4h.19v.19h-.19Zm1.15,1.15c-.06-.13-.13-.19-.13-.32s.06-.19.13-.32a.26.26,0,0,1,.25-.13c.13,0,.26,0,.32.13s.13.19.13.32-.06.19-.13.32a2.65,2.65,0,0,1-.32.06C204.44,62.71,204.31,62.65,204.24,62.65Zm-.13-1V61.5h.38v.19ZM202.65,60l.25,2.49h-1.66v.57h-1l-.51-1.85,1.66-.64-2.23-1.21-.19.64h-.83l-.39-.64.39-.83Zm4.34.38L206,60h1.4l-.13.83-.83.19Zm1,2.68h.26v.26H208Zm0-.38V63h-.64v-.26Zm.26,2.68h.38v.25h-.38Zm-5-1.28v.26h-.64v-.26Zm-.64,4.6v.45h-.38v-.45Zm12.25-1.28v.13C214.58,67.56,214.58,67.56,214.9,67.43Zm-14.17-9.89V56.9h.57v.64Zm.38.45-.32.19C200.86,57.86,201,57.8,201.12,58Zm-3-1.28v-.19h.19v.19Zm.32-.19v-.64h.32v.64Zm-1.6-1a.66.66,0,0,1,.51.26.5.5,0,0,1,.19.45.72.72,0,0,1-.19.51.94.94,0,0,1-.51.19,1.32,1.32,0,0,1-.45-.19.72.72,0,0,1-.19-.51.5.5,0,0,1,.19-.45A.8.8,0,0,1,196.84,55.5Zm1.47,2.68c.57-.32,1-.26,1.08.19h-1.91l.38-1,1.53-.25Zm-2.11.77v.26h-.13v-.26Zm.64.83V60h-.77v-.26Zm.89,2.11v-.19h.13v.19ZM195,55.05h.64v.26H195Zm-1.66,0h.25v.26h-.25Zm0,3.13.25-1.08,1.53.77-.77.51V60.6l-1,.89h.13c0,.32-.07.32-.13,0l-.7.57c.25.38.51.38.7-.19l.25,1.08-1.66-.45a2.55,2.55,0,0,1,1.15-3.26c.06,0,.06,0,.06-.06.89.38.83.13-.19-.64ZM195,56.9h-.7v-.38h.7Zm-1.66,6.64v-.19h.25v.19Zm-1.6,0v-.19h.19v.19Zm-.9,3.06.19-1.28.89-.57v-.19c.32.13.32.13,0,.19l.38.45.64,2.49.64.19-.25.64h.89l.13.83-1.66-.19-.38-.89-1,.45v.83l1.4.45-.76.38,1,.57v.83H191.1l-.45-.58-1,1.21-.7-1.47.51-1.6-1.21-.64,4.34-1Zm3.13.83h-.19v-.19H194Zm7.4-.83h.26v.26h-.26Zm-2.87,1.66h.89v.64h-.89Zm-2.3-.38h.64l.64.64h-.19C196.46,68.84,196.08,68.58,196.2,67.88Zm2.11,1.28h.19c0,.32-.07.32-.19,0h-.13C198.18,68.52,198.25,68.52,198.31,69.16Zm.19.83V69.8h.25V70Zm1.85-.51h1v.32h-1Zm-2.62-6.77a.65.65,0,0,1-.19-.06C197.35,62.39,197.35,62.46,197.73,62.71Zm-.25,10.34-1-.45,1.53-.06-.13,1.72Zm-1.4,12.7V85.3h.7v.45Zm2.43-2.81v.89l-.64-1.09-.57-.26Zm-1.66,1.91h-.19v-.19h.19Zm16.79-14.11v.45h-.19v-.45Zm-.89,3.64h.44v.51h-.44Zm2.75-1.34v.26h-.58v-.26Zm-1.22,1.34h1v.32h-1Zm-3.32-2.17v.51h-1v-.51Zm-1,2.68v.45h-.25V74.9Zm4.34,1.28v.19h-.44v-.19Zm-.19-1.08V74.9h.83v.19Zm-6.25-3.7v.19H207v-.19Zm-4.53,1.92h.45v.19h-.45ZM207,85.69h-.38V85.3H207Zm1.28-.83v-.19h.19v.19Zm-.9-.64h.45v.25h-.45ZM184.46,59.77V60h-.19v-.26Zm-4.15-1.6v.19h-.38v-.19Zm-2,4.15v-.19h.19v.19Zm.38-.64h-.19V61.5h.19Zm.32.83v-.38h.7v.38Zm.32-1-.64-.32,1.47-1,.83.19-.38.64Zm3-.89h.32v.45h-.32Zm.77-.83c.26.13.26.19,0,.26Zm-.89-.57V60h-.64v.06c-.57,0-.57,0,0-.06l-.77-.64Zm-2,5.81v.19h-.45V65Zm2,5.11h.25v.26h-.25ZM188,65.39l-1.28.25-1.21-1.91,2.3.38Zm-2.61-.45c-.32-.26-.26-.26.13.06C185.42,65,185.35,65,185.35,64.94Zm1.6,3.7a.68.68,0,0,1,.57.57.69.69,0,0,1-.19.45.54.54,0,0,1-.38.13.69.69,0,0,1-.38-.13.7.7,0,0,1-.19-.45.39.39,0,0,1,.19-.38A.46.46,0,0,1,186.95,68.65ZM171.82,57.09v.25h-.19v-.25Zm-.19,1.28v-.06a.23.23,0,0,1,.19.06h.13c0,.26,0,.26-.13,0h-.19v.13C171.05,58.5,171.05,58.43,171.63,58.37Zm1.28.57v-.13c.32,0,.32.13,0,.13L172.65,60l-.64-.26.25-.83Zm-1.53.26v.38h-.13V59.2Zm.26,0v-.26h.19v.26ZM171,60.54v.51h-1.09v-.51Zm3.77.32h-.58v-.45h.58Zm-7.92-1.28h-.06C166.78,59.26,166.84,59.26,166.84,59.58Zm0,.64q-.48,0,0-.19Zm-1.4,1.47h-.19V61.5h.19ZM169.78,60v.19h-.19V60Zm5.74,21.32v-.19H176v.19Zm-4.15-1.47v-.19h.45v.19Zm17.42-7.21v-.45h.26v.45Zm-8.23-1.47h-.45v-.25h.45Zm-1.28,4.34h-.38v-.19h.38Zm2.11,1.85h-.25V77.2h.25Zm-.83,2.17v.77H180v-.77Zm-.45-.51h.19v.19h-.19Zm1,2.3h.25v.19h-.25Zm-.51-.38c0-.64.06-.64.13,0Zm2,.19h-.45V81h.45Zm.57,2.68v-.45h.26v.45Zm-1.4.38H182v.25h-.19ZM188.22,81h-.32V79.88h.32Zm-2.74,2.23h-2l-.64-.45,3.32-.83v.83Zm1.21,5.17v-.19h.26v.19Zm24.83-1.47h-.13v-.19h.13ZM206.93,90h-.45v-.64h.45Zm-2-1.47v-.38h.19v.38Zm.83.26v-.64l.64.38Zm-.83,3.32h.45v.38h-.45Zm.19-.32v-.89h1v.89Zm-1.85-.32v-.26h.57v.26Zm.83,1.85v.19h-.26v-.19Zm-.39,2.87h.39v.25h-.39Zm-.25.38h-.19v-.13h.19Zm-.19,3.77h.19q.1.57-.19,0h-.06C203.41,99.54,203.48,99.54,203.29,100.37Zm.83,1.21v-.19h.19v.19Zm-.83,0c-.32,0-.32-.13,0-.19v-.19q.29-.67,0,.19Zm-2-7.53h1.08v1h-1.08ZM215,108.92H215C215.35,108.79,215.35,108.79,215,108.92Zm-9.06-4.4v.19h-.19v-.19Zm-.32-.38h-.45v-.64h.45Zm-2.36.57v.06C203,104.77,203,104.77,203.29,104.71Zm1.66,5h-.19v-.26h.19Zm1.66-2h.76v.51h-.76Zm1.66.7v.19H208v-.19Zm0,1.28h.64v.19h-.64Zm-.45,2.23,1.21-.57-.38-1h1l.25,1.79,1.21-.19v.83h-1.21v-.64H209v.83l-1.79-.57.57-.45h-.19C207.63,111.6,207.69,111.6,207.82,111.92Zm-1.4,1c0,.13-.06.19-.26.26v.06c-.32,0-.32,0,0-.06v-.26H206q0-.48.19,0ZM204,114v-.32h.77V114Zm1.79-2.11-1.47-.19-.19-1.21.64-.64,1.66.45-1.09.19Zm-1,3.19a.68.68,0,0,1-.57.58.35.35,0,0,1-.32-.19.55.55,0,0,1-.13-.38.5.5,0,0,1,.13-.32c.06-.13.19-.13.32-.13s.32,0,.38.13A.35.35,0,0,1,204.76,115.11Zm-1,1v.19h-.45v-.19Zm1.66,1.28-.45-.83.25-.77Zm3.51-2h-1.08v-.64l.83-.83Zm-2.11,1v.25h-.19v-.25Zm-.83.25v-.25h.45v.25Zm.64,1.21h-.13c0-.32.06-.32.13,0l-.13-.83.77,1.08-.64.38Zm4.79-3.06h.13V115h-.13Zm-4.66,5.23v1h-1v-1Zm4.47,1.28h-1v-.57h1ZM191,127.88v-.77h.51v.77Zm-13.79-1.34c.38-.06.51.06.45.51l.83.19.45,1-.64-.19-.58-.77-.89,1.21c-1.34.26-1.53.19-.64-.06l-1.21-.13c-.13.51-.32.51-.45-.06l-.64-.19-.13-.64-.45.25-.38-1.21h-.13c0-.32.07-.32.13,0,.38-.38.32-.64-.19-.64h-.26l-.44-1.28,4.4.19Zm.06,3v.13c-.64,0-.64-.06,0-.13v-.19C177.57,129.35,177.57,129.47,177.25,129.54Zm.39-.64h0Zm7.28,0v-.19H185v.19Zm-16.6-7.4h.13C168.69,122,168.63,122,168.31,121.49Zm1.91,11.17v.19h-.45v-.19Zm2.68-.64v.38h-.77V132Zm3.25,1.47h-1.4l.19-1.09h1.47l.19.64,1,.45-1.47-.19Zm-2.68,0h.83v.38h-.83Zm1.47,3.89V137h.19v.38Zm.57-.19h-.13V137h.13Zm.64.45h.25v.13h-.25Zm-1-2.11-.83.51-.89-.32h-.06c0-.51,0-.51.06,0l.26-.64-.83-.38h2.23Zm-4.85.64v.19h-.13v-.19Zm5.94,4.47v-.57h.51v.57Zm-10.21-1.21v-.19h.13v.19Zm1.21,0v.25c-.32-.06-.32-.13,0-.25,0-.07,0-.07.06-.19C167.55,138.79,167.55,138.92,167.29,139.43Zm9,8.23V148h-1.15v-.38Zm.77-1.6h-.25v-.19h.25Zm-.25,4.34h.13c0,.32,0,.32-.13,0h-.07C176.74,149.83,176.74,149.83,176.8,150.41Zm1.47,2.68v-.19h.19v.19Zm.13-.45v-.77h.83v.77Zm-1.15,1.47h.13v.25h-.13Zm.13,1.15h2.42v2.49h-2.42Zm.19-.7h.26C177.69,154.88,177.63,154.88,177.57,154.56Zm4,5.55c0-.13.13-.13.26-.13a.42.42,0,0,1,.32.13.49.49,0,0,1,.06.32c0,.19,0,.32-.06.38a.42.42,0,0,1-.32.13c-.13,0-.26,0-.26-.13s-.13-.19-.13-.38S181.4,160.17,181.52,160.11Zm-3.06-1.6h1.47v1.92h-1.47Zm.83-.64h.19v.38h-.19Zm-1.66,1.53v.06l-.83.83C176.67,159.47,176.93,159.15,177.63,159.41Zm1,1.53v.45h-.19v-.45Zm1.28,0v.25h-.26v-.25Zm-4.53-9.7v.25h-.26v-.25Zm-1.28-1.47h.19V150h-.19Zm1.28,2.93v-.57H176v.57Zm-2.3,2.81v-.83h.77v.83Zm1.21,1.08h-.45v-.13h.45Zm0-.38V156h.45v.19Zm1.53,2.49H176l-.45-1h1.28l-.39,1.66-.44-.64C175.2,159.09,175.14,159.09,175.84,158.71Zm32.43,5.55h.38v.26h-.38Zm7-4.53.19.64.64.38-.64,1,1.47.25v-.25c.32.13.32.19,0,.25l.83.38-.45.45,1.09,1.4,1.41-.13v.57l1.66,1.85-.38.26-.64,1-.26-.77-.13.77.57.45-1.47,1-.19-.38-.77-.25-.26-1.79,1.21-.45.26-1.09-.83-.38-.38.12-.45-.12-1.21.64,1.21-.26v.64l-.64.64-2.23-.83.58-1.85-.45-.38h-.7l-.26.51-1.66,1.28.76.45h.19c.19.57.13.51-.19,0-.12,0-.25.06-.19.25v.19l-1.28.25c-.19-.7-.26-.51-.19.57l-.38.19V169H213l.19-1.28.45-.38.64.26.64,1v-.19c.26.06.26.19,0,.19l1.4,1.28,1.47-.64-.45,1.47-.19-.64-.83.26-.19-.45h-.83l-.26.64-.38-.19-.83.19v-1.09l-.64-.19v.64l-.57.64H212l-.19.76-1.53.26-1,.89,1.85-.07-.38-.45,1.85.64-1.47,1.28.64.19,1-.64.13.83.45.45-1.34.19-.44-.38-.38.58-1.21.25a2.73,2.73,0,0,0,3.06.57l-.57.64.76.19.26-1.28,1.6,1.08-.13-1.21-.83-.64V174l-.64-.19,1-.26.45-1-1.91-.64-.38-.77.38-.64,1.27.38v.83l2,1.34.26.7,2.81.45.19.45a2.54,2.54,0,0,1,1.6,2.68l.77.38-.06-.51a.73.73,0,0,1,.64,0,3.79,3.79,0,0,1,.32.51l2-.64-1-.83,1-.19v1l1.85.25.64.83h.19v.19h-.19v-.19l-2.49.64.64,3.7,2-.83V181l.64-.45H228c0-.51.07-.51.13,0l.57.45.26.64V186q-1.25.67-.19,1l-.57.89,1.79.64v-.13c.32,0,.32,0,0,.13l.38.83.26-1.28h1.21l-.13,1.6-1.4.83,2.17.64.64.89-1.85-.26-.89,2.36-.77.32v1.92l.77-.19.45,1v-1.46h1l2.94-3.06v-.89l-.45-2.42.45-.64,1,.19-.32-.58c.64-.13.83-.38.57-.58l.58.51v.26l-.83.38.64.64.19.83-.83.19-.26.64-.77.57.77.26-.38,2.43v1.08l-.64,1.28-.77.19-.64.38-.64.26h.13c0,.13.06.19.06.38l-.38,1.4c-.7.32-1.08.25-1-.19h-.45c.25.19.19.44-.19.64l-.83,1.4-.83.26v-.38c-.32-.51-.45-.32-.45.38l-1.4.57.64-1.21.38-.58c1.91.07,2.36,0,1.47-.45l.19-1.28-.83.45-.19-1,.64.19v-1.66l-.64-.19.19-.64-.64.44-.83-.25-.64.45-.38-.64-.39,1.08-.64.19-.45.76-.64.26H225l.45.58.19.45-.83,1.85.83.64-1.41,1-.25-.83-1.4.19v.64l-1.47.38-.89-.58.26-.64c-.77-.13-.9-.26-.26-.45l-.38-3.64-.38-.45.64-1,1-.64c0-.06,0-.13-.06-.13-.26-.32-.45-.32-.57-.13-.38.13-.51-.07-.26-.58l-.38-.58.38-.64.89-.45.38-1.47c.19-.32.26-.19.26.45h.13l.13.13c.13.07.13.26-.07.51l1,1-.38-.83.38-.45c-.06,0-.13,0-.13-.07a.49.49,0,0,1-.13-.32l-.38-.26v-.83l-.38-.19.38-1-.19-.83-1-.19-.25-.45-2.62-.19,1.6-.19h-1l-.57-.44v.25c-.32-.13-.32-.13,0-.25l-.45-1,1.85-.83-.83-.26-.19-.83.83-.64-1.21-1.6v1.4l-1.66,1.91L214.9,184l-.64-.13-.19-.39-1.08.19-.19.64H212l-.19-.64-1.21.19-.26-.39h-2v.39c-.39-.13-.39-.19,0-.39l.64-.45.26-4.47-2.55-.64.38-1.08-.57-.19,1-.19.26-.45,1-.19.38-.44-1.66-1.09-.64-.13.89-.64-.64-.19.83-3.32h1.66l.44.45.38-.19.71.19a2.45,2.45,0,0,0-1.85-1.66.71.71,0,0,0-.51,0c-1.09.25-1.66.25-1.66-.13v-.19l-.64-.13.89-1.6.38.58.64-.38-.26-.83,1.66-.25.25-.64-.44-.19v-.57l-.45-.26,1.53-3.32h.83l-.26-1.79.26-.45-.26-.64,1-.64.83,1.92-.83.64Zm-2.11-.19v-.19h.26v.19Zm2.23.06a.9.9,0,0,1-.13-.38.69.69,0,0,1,.13-.38.92.92,0,0,1,.38-.13.69.69,0,0,1,.38.13c.13.13.13.19.13.38a.47.47,0,0,1-.13.38.69.69,0,0,1-.38.13A.93.93,0,0,1,215.41,159.6Zm-4.28-1.92v.19h-.19v-.19Zm3.51,6.57h.25v.26h-.25Zm-20.74-.13h-.57v-.58h.57Zm.57,2v-.44H195v.44Zm-1.79,10.34h-.13v-.25h.13Zm.13,3.7v-.45h.51v.45Zm1-1.66c.51.06.51.13,0,.25Zm8.68-5.17v-.19h.19v.19Zm12.45-2.68v.19h-.25v-.19Zm-7.21-5.11v.77h-.45v-.77Zm-2.3,7.15h-.89v-.64h.26v-.19h.38v.19h.25Zm1,1.28v-.19h.19V174Zm.19,2v-.19h.64v.19Zm-.83,4.53v-.19H206v.19Zm.83-1.4.76-.83.9,1.21.64.19-.89,1.09-.77-.64v-.64Zm-.64-1.85h.19v.19H206Zm8.11-2.49V175h-.45v-.19Zm-61.59-53.36h.32v.38h-.32Zm.32-2.11h.26v.19h-.26Zm8,7.85-.19.64.64-.45h1l.25.83,1.09.45-1.09,1.4v.64l-1.28.19-.19.45-1.92-.45-.89-2.75Zm2.49,4.53h.25v.64h-.25Zm-1-.57v.19h-.38v-.19Zm-13.66-10.34v.38h-.19v-.38Zm.83.7c.07,0,.13,0,.13.06C149,121.62,148.91,121.56,149.48,121.56Zm-1.4-1c0,.06-.06.06-.25.06l-.19-.38h-.57v-.64h.57c-.64-.45-.64-.45.06-.06l-.06.06.64.45A.73.73,0,0,1,148.08,120.54ZM145,118.88v.32h-.51v-.32Zm-1.85-.13c-.13-.45,0-.45.19.06C143.16,118.81,143.1,118.81,143.1,118.75Zm-5,6.89h.26V126h-.26Zm5.68-2.68v.13h-.25V123Zm-5.43,3.64h-.26v-.38h.26Zm1.09,2.75v-.19h.38v.19Zm-.89,11.81h.25v.13h-.25Zm1.28-1.92.57-.38,1.28,1.34-1-.77-.38.25ZM138.31,141v.19h-.45V141Zm3.7.19h.26v.13H142Zm1.72.13h-.25v-.13h.25Zm.58,2.3v-.19h.19v.19ZM140,142.36v.38h-.32v-.38Zm-1.21.19v.19h-.25v-.19Zm.06-.64c-.06-.32-.06-.32.13,0Zm.32,5.81h.45V148h-.45Zm-.83,0V148h-.45v-.25Zm.45.64h.38v.45h-.38Zm23.93-14.23v.38h-.38v-.38Zm-10.28,9.26h.38v.19h-.38Zm1,4.59v-.25h.19V148Zm6-2.94h.19v.26h-.19Zm.64.83v.19h-.64v-.19Zm-.76.64h.32v.57h-.32Zm.89.83v-.45h.26v.45Zm-1.6-1.66-.19.57-1.72-.57Zm3.32,1v-.19h.19v.19Zm-30-25h.19v.45h-.19Zm.32,1.28v.51h-.57V123Zm1.53,2.87v-.19H134v.19Zm-3.32-1.72v-.19h.19v.19Zm-1.85,1.72,2.23-.64.45,1.66-.83-.26.64.64,1.21.45.25.57-.83.45-1.21-1,.58-.45h-.89l-.13-.64Zm-.19,2.68v.19H128v-.19Zm.45,1h.57v.83h-.57Zm-.89-1.85h-.06C128.1,127.11,128.16,127.11,128,127.69Zm9.13-1.21h.19V127h-.19Zm-1.85-.45v.19h-.64V126Zm0,.83h.19V127h-.19Zm.32.83v-.32h.51v.32Zm.19.83V128h.45v.51Zm-16.85-4.15,2.74.19.32-.45,1.47-.38-.32.83-2.81,1.08-.19-.64-1.15.57-.06-1.21-.89.38v.45h.26c-.51.77-.58.77-.26,0l-1.4.19v-.83l1.4.19v-.64Zm0,.38v.45h-.25v-.45Zm-4.15-1.21h-.45v-.26h.45Zm-1.6,1.91c-.06.06-.06.19-.06.38l-.45.19v.57l.83.26v.57h-1.21l.83.64-.83.19.38.64-.77.64.57.83c-.45.13-.25.25.45.19v.64l-.64.19q.77.48,0,.19a3.38,3.38,0,0,1-.38-.83l-.89-1.21h-.64v1.4l.45.45c-.77.38-.83.64-.45.64l-1.85.38.26.45h-.64l-.26.45h-.77l-.25-.64-.64.19-.57-.19-.38.38c.06.06.19.13.32.25-.26-.13-.32,0-.32.38l1,.19a5.5,5.5,0,0,0,.45-.83l.64.83c.77-.26.83-.26.19-.06a.23.23,0,0,1-.19.06l.83.64-.83.38,1.21.19.64.83-1.85-.19-.19.83.77.26.26-.45,1,.19-1,.26.19.58-6.19.38V138c-.32-.06-.32-.19,0-.26l-.64-.38-.19,1,2.3.19.38-.38h1l1,2.62-2.17.13.38.19-1.6.57.38-.57.64-.19-1-.83-1.47.83-.77-.57-.7.57-.19-.45-.83.19-.38.83.38.58-2,.64-.64-.38H93.06l-.64-1.08-.64.64-1.85-.38.19-.57L89,140.52l-1.6.45-.19.32-1.08-.13-.64-.64-2.23-.45.57-.64-.13-.58H85l.45-.45-1.91.19-.19.64-.19-.64-.83.25V137.2l-.83-.19-.45-.64.45-.64-1.34.64-.13.45-.83.19v-.64l.64-.19-.64-.25H80l.83-.83h-.58l-.25.45H79l-.19-.64-.45-.06a3.65,3.65,0,0,0-.51-.83l.06-1.6.89-.83.19-.83-1.21-.45-.64-1-.64-.19-.19-.64-1-.45,5-.83-1.91-2.68h-.57l-.64-1.28,1.21-.32.45-.83,7-.45.38.83-.77-.38L85,123.92l-2.74-.13.57.25-.13,1-1.21.19-.32.77,1.15,2.11,1.85.19-1,.64,1.21.26v-.89l.45-.38-.64-.83h-.06c-.06-.25,0-.25.06,0l1.91.89-.38.57.51,1.09.64.19.64,1,.45-.64,1.4-.38,1.28,1L90.44,128l-.51-.13-.25-.45-1.4,1.08.19-1.91.57-.13v-.64l.89-.83-.45-1.08-1.47.19.64.64-2.81.26-.06-.64h-.13c0-.32.06-.32.13,0l.77-.26-.06-.83,3-.19v-.77l.64-.45.19,1.4,1.66.83.19,1.53,2.75.57.38.83,1.85-.7.32-1.66a.23.23,0,0,0,.19-.06l1.53,1-.58.19.19,1,2.68,1v-.19c.32.06.32.19,0,.19l.64.38.64-.83.57.83,1.66.64h-2.68l1,1.09h3.76l.19-.64h1v-.64l.64-.19-2.3-1.08v-.57L104,125.2v-.83l.38-.26v-.83l.45-.51a1.63,1.63,0,0,1,.45.13.48.48,0,0,0,.32.06l-.07.51-.7.64.83-.38.64.19.25,1.47h.58l.19,1.09,2.68.83.83-.83H109v-.64h-.13c0-.32,0-.32.13,0l3.7-1.28.64.83C113.23,125.39,113.23,125.39,113.16,125.45ZM118,123h-.13v-.26H118Zm-2,6.77h.64V130h.19v.38H116Zm0-2.49-.45.19.25.83.83-.38-.19.83.64.19v.64H115.4l-.89-1.66.45-.64h-.64l-.45-.77.64-.45,1,.19Zm-1.47,3.51h.89v.19h-.89Zm-.64.45v.06c-.7-.19-.7-.19,0-.06v-.26C114.51,130.94,114.51,131.07,113.87,131.2Zm0,1.85-.38-.38h2Zm1.66-1.85c.32.06.32.19,0,.19-.19.32-.32.38-.13.19,0-.13.07-.19.13-.19Zm0,5.36V137h-.13v-.45Zm.45.83v-.19h.19v.19Zm-2.87-3.26.64.38h.06c0,.25,0,.25-.06,0-1.47-.26-1.85-.06-1.28.38-.06.19-.06.19,0,.26a1.82,1.82,0,0,0,.64.38l.19.38.83.25v.64l.64-.26v.64H115q0,.48-.19,0l-1,.19-.26-.38h-.83l-.38.38-.64-.38-.38-1.08-.64-.19v.19h-.38v.89h.38V137h.06c0,.32,0,.32-.06,0l-.83-.19v-1.28l.83.19.38-1-1.4-.19c-.38-.51-.32-.7.19-.83l.58-.38.26-.64c.7,0,.83-.13.38-.45a5.87,5.87,0,0,0,.89-.45l-.26.64.83.25Zm.38,4.08a.88.88,0,0,0,.38-.13c.19-.13.32.07.45.51h.13Q113.2,139.08,113.48,138.22Zm-1.15,3.13,1.53.19-.51.58-1.09-.77-.38.13-3.77-1.79.19-.64-.83-.45-.19-.83c1.66.51,3.32,1,5,1.47l-.38.45,1,.38.38,1.09Zm4.08-1.66v-.25h.64v.25Zm-2.11,2.23v-.19h.19v.19Zm22.27-.77H138v1.4h-1.4Zm.51-.45v-.19h.19v.19Zm-8.3,8.68v-.19h.25v.19Zm3.51-4.91v.19h-.19v-.19Zm1.28-2.75c-.07.58.19.83.77.83l.45,1-1.66-.19-.83-1.66Zm.38,12.64v.19h-.19v-.19Zm-3.13,6.58v-.38h.25v.38Zm-4.28-1h.13v.38h-.13Zm3.64,2.87h-.13v-.19h.13Zm-8.55,1.66h-.77v-.58h.77Zm-.25,1.66h-.25v.19h-.57v-.83h.57v.19h.25Zm-8.74,3.06h.45v.19h-.45Zm-.38-.83v.19h-.38v-.19Zm0-.7c.32,0,.32.06,0,.06Zm26.68-13h-.19v-.19H139Zm1,4.6a.39.39,0,0,1,.38-.19.58.58,0,0,1,0,1.15.39.39,0,0,1-.38-.19.48.48,0,0,1,0-.76Zm1.34,4.15v.19H141v-.19Zm-1,1.53h.57v.58h-.57Zm1.6.07H142v.45h-.19Zm3.57-3.89h-.26v-.25h.26Zm-5,6.57H140v-.13h.38ZM122.16,182.7v.38h-.64v-.38Zm-1,1.66H121v-.26h.19Zm-.51,2.36a1.79,1.79,0,0,1,.83.19c.19.19.32.32.32.51a.66.66,0,0,1-.32.44,1.24,1.24,0,0,1-.83.19,1,1,0,0,1-.77-.19.61.61,0,0,1-.38-.44c0-.19.13-.32.38-.51A1.37,1.37,0,0,1,120.63,186.72Zm-1,1.66H120v.77h-.38Zm1-2.17-1.92.26-.19-.83,1-.26,1.09-1Zm-7.34.64a.65.65,0,0,1,.32.13c.07.13.19.25.19.38s-.13.26-.19.38-.25.13-.32.13-.32,0-.38-.13a.45.45,0,0,1-.19-.38.55.55,0,0,1,.19-.38A.53.53,0,0,1,113.23,186.85Zm2.17,7.85v-.58h.13v-.25H116v.57h-.19v.25Zm2.87.38a1,1,0,0,1-.26-.7.81.81,0,0,1,.26-.64.39.39,0,0,1,.38-.26.48.48,0,0,1,.45.26,1.07,1.07,0,0,1,.19.64,1.28,1.28,0,0,1-.19.7.58.58,0,0,1-.45.19A.45.45,0,0,1,118.27,195.09Zm6,.64a1.36,1.36,0,0,1-.19.44.69.69,0,0,1-.45.19.58.58,0,0,1-.45-.19,1.2,1.2,0,0,1-.13-.44.93.93,0,0,1,.13-.45,1,1,0,0,1,.45-.19,1.33,1.33,0,0,1,.45.19A1,1,0,0,1,124.27,195.73ZM121.14,211l-.19.45-1.28-.45.26-1h1l.45.83.13.06C121.53,211,121.4,211,121.14,211Zm1.47-.45v.13c-.58,0-.58,0,0-.13v-.06C123.18,210.53,123.18,210.53,122.61,210.59ZM125.74,198c-.25-.32-.19-.32.19.06A.63.63,0,0,1,125.74,198Zm-1.47,17.42h.19v.26h-.19Zm-1.09,5.17v-.19h.45v.19Zm-4.72,1.21V222h-.19v-.25Zm-2.81-.51v.64h-.57v-.64Zm4.92-.32a.38.38,0,0,1-.13.32c-.06.13-.13.13-.19.13s-.19,0-.26-.13-.06-.13-.06-.32a.47.47,0,0,1,.06-.25c.06-.13.13-.13.26-.13s.13,0,.19.13S120.57,220.87,120.57,220.94Zm89.74-32.74v.32H209v-.32ZM207.37,190v-.25h.45V190Zm-2.42,1.6h.19V192h-.19Zm6,9.7c0-.06,0-.13.13-.25a.38.38,0,0,1,.32-.13c.06,0,.13.07.25.13s.13.19.13.25,0,.26-.13.32-.19.13-.25.13a.38.38,0,0,1-.32-.13C210.95,201.53,210.95,201.47,210.95,201.28Zm4,3.58H215V205h-.13Zm-10.59-4-.83-.19h1l-.19.83Zm4.72,5.36-.57.64.57-1.47Zm-3.51,2.68c-.07.51-.07.51-.13,0Zm8.94-3.06v-.19h.45v.19Zm-.38,9.77v-.26h.58v.26Zm55.59-91.72v.45h-.19v-.45Zm-.19.64h.19V125h-.19Zm1.28,20.87h.19v.64h-.19ZM268.26,148h.19v.58h-.19Zm0,28.28c-.13,0-.26,0-.32-.19a1.17,1.17,0,0,1-.13-.51,1.18,1.18,0,0,1,.13-.51.35.35,0,0,1,.32-.19.59.59,0,0,1,.32.19,2.06,2.06,0,0,1,0,1A.35.35,0,0,1,268.26,176.26Zm-2.49-54.38H266v.64h-.19Zm.19.83h.19V123H266Zm-.19.38H266v.19h-.19Zm-7,1.66v-.19h.19v.19Zm-1,7.47v.64h-.25v-.64Zm2,.45v.19Q259,132.66,259.77,132.66Zm.58-3.32v-1L261,130Zm4.79-1.92v.45h-.19v-.45Zm-.64-1.4h.25v.83h-.25Zm-2.23,3.51h-.45v-.38h.45Zm-19.72,3.32h-.13v-.19h.13Zm2.49-.19h.25V133H245Zm6.25,4.34v-.45h.19V137ZM248,135.92h.25v.25H248Zm0,.45v.19h-.19v-.19Zm.25,4.92v-.13h.19v.13Zm-.25-.57V141h-.83v-.26Zm1.47.45v-.64h.19v.64Zm-3.06-5.55h.58v.58h-.58Zm1-1.34v.26h-.19v-.26Zm-1.72,1.28H246v1h-.38Zm-.57.19h.25v.19H245Zm2.11.83h-.19v-.19h.19ZM244,134c-.51.26-.51.13.06-.13C244.07,133.94,244.07,133.94,244,134Zm-.58.51v.19H243v-.19Zm-.45.38v.19h-.19v-.19Zm-.83,2.62h.64v.25h-.64Zm.25.51v.19H242V138Zm-.45,1.21v-.38h.45v.38Zm.19.45v-.25h.25v.25Zm.83-.45v.19c-.26-.07-.26-.07,0-.19l-.13-1,1.21-.06.83.83-.64.38.64.25-1.47.19Zm-.19.45H243v.64h-.19Zm-1.28,1c.83,0,.83.06,0,.32Zm1.47.51V141h.45v.19Zm3.38-1.92v-1h.58v1Zm0,.19h.45v.64h-.45Zm-1.34.25h.64l-.32,1Zm1.91.83v.19h-.26v-.19Zm.38,2-.77.19.12-1.4Zm-2-.7a.5.5,0,0,1,.26-.13c.06,0,.13.07.19.13a.48.48,0,0,1,.13.26.49.49,0,0,1-.13.32c-.06.13-.13.13-.19.13a.26.26,0,0,1-.26-.13,2.91,2.91,0,0,1-.06-.32C245.29,142,245.35,141.92,245.35,141.85Zm1,3v-.19h.26v.19Zm.26.58v-.13c.44-.19.44-.19,0,.13v.26C246.24,145.62,246.24,145.49,246.56,145.43Zm1.21-.13V145H248v.26Zm-6-2.94v.83h-.58v-.83Zm2.68-.45h.19v.19h-.19Zm2.23,4.15v-.19h.26v.19Zm.57,0v-.64h.64v.64Zm5.68-3.32v.64h-.32v-.64Zm-.26,2.11v-.19h.26v.19Zm.57.58h.32v.45h-.32Zm-2.81-1.85h-.26v-.19h.26Zm-2-1.85-.19,1,.77.64.19,1.09h-.64l-.57-1.09.25-.64-.45-.64Zm.32,3.64h.38v.89h-.38Zm.89-.7V145c-.38-.19-.38-.25,0-.38v-.13C249.88,144.54,249.88,144.54,249.63,144.66Zm1,1.6v-.19h.45v.19Zm-1-.57v.19h-.19v-.19Zm.45.38v.19h-.26v-.19Zm2.87.64v.38h-.58v-.38Zm1,1v.83h-.38v-.83ZM266.09,137c.26-.83.26-.83.06,0Zm-4.47,1.85v-.45h.19v.45Zm-2-4.34v-.26h.19v.26Zm.64.57v-.38h.13v.38Zm-4.47,2.11h.32v.45h-.32Zm-.77,2.49v-.25h.45v.25Zm3,2v1.66h-.51v-1.66Zm-3.19.83v-.45H255v.45Zm.19,2.55a.48.48,0,0,1,0-.77,1.53,1.53,0,0,1,.58-.13,1.48,1.48,0,0,1,.51.13.64.64,0,0,1,0,.77c-.19.06-.32.19-.51.19A1.55,1.55,0,0,1,255,145.11Zm2.11.19h.06C257.41,145.75,257.41,145.75,257.09,145.3Zm-1.66,2.43v.44h-.51v-.44Zm2.43-1.21h.26v.38h-.26Zm-.13-.45h.13v.19h-.13Zm9.06.19v-.19h.45v.19Zm.19-.83c-.06-.45,0-.45.26,0Zm-28.34-26v.19h-.38v-.19Zm-10.15,1.85h.26v.45h-.26Zm1.72,3.13h.58v.19h-.58Zm3,1.21c-.07.32-.07.32-.13.06h-.19q0-.86.19,0C233.16,125.64,233.22,125.64,233.22,125.58Zm-.77-1V125H232v-.45Zm.64,1.47v.45h-.45V126Zm0,1.21h-.19V127h.19Zm0,1.28h.19v.19h-.19Zm-1.79-.32c.06,0,.06,0,.06.06h.19c-.06.32-.06.32-.19,0C230.93,127.94,230.86,127.88,231.31,128.2Zm-1.34.7h.25C230.1,129.41,230,129.41,230,128.9Zm-1.28-2a.58.58,0,0,1-.19.45.54.54,0,0,1-.38.19.73.73,0,0,1-.38-.19.58.58,0,0,1-.19-.45.45.45,0,0,1,.19-.38.73.73,0,0,1,.38-.19.54.54,0,0,1,.38.19A.45.45,0,0,1,228.69,126.92Zm1.34,3.45v.83h-.38v-.83Zm-4-8.49h-.51v-.32h.51Zm.13-.38v-.25h.26v.25Zm-1.85-.89V121H224v-.45Zm3.38,9.77h-.58v-.7h.58Zm-5.81,8.87V139h.19v.19Zm16.34-.64c0,.64-.06.64-.25,0Zm-8.3,2.55h.38v.38H230Zm7.66,5.36h.19v.57h-.19Zm.39,17.62h.25v.13H238Zm-6.19-9.39v-.19H232v.19Zm-10.72,8-.06.06C220.65,162.66,220.71,162.66,221.09,162.73Zm1.47-.83a.5.5,0,0,1,.13-.32.35.35,0,0,1,.32-.19.39.39,0,0,1,.38.19.36.36,0,0,1,.19.32.46.46,0,0,1-.19.38.53.53,0,0,1-.38.13.49.49,0,0,1-.32-.13A.68.68,0,0,1,222.56,161.9Zm2,2.62v-.26h.19v.26Zm.38.57v-.57l1-.26Zm1.21-2.68v-.19h.26v.19Zm-3.06,6.7H224v.32h-.83Zm.64.64v.45h-1.53v-.45Zm-.64,1.4a.35.35,0,0,1,.32.13.5.5,0,0,1,.13.32.54.54,0,0,1-.13.38.35.35,0,0,1-.32.13c-.13,0-.19,0-.25-.13a.39.39,0,0,1-.19-.38.36.36,0,0,1,.19-.32C222.95,171.15,223,171.15,223.14,171.15Zm4-.26v.26h-.25v-.26Zm-1-.89h.51v.51h-.51Zm-.51.89h.44v.26h-.44Zm2.23,1H228C228,172.23,228,172.23,227.86,171.92Zm-11.62-3.19a1,1,0,0,1-.32.13.48.48,0,0,1-.32-.13c-.06,0-.13-.13-.13-.19s.06-.13.13-.25a2.7,2.7,0,0,1,.32-.07,2.75,2.75,0,0,0,.32.07.38.38,0,0,1,.06.25C216.31,168.6,216.31,168.73,216.24,168.73Zm.06,2h.39v.19h-.39Zm5.17,0v.19h-.19v-.19Zm-1.66,0v-.06c.57,0,.57,0,0,.06v.19h.13c0,.32-.07.32-.13,0h-.07A.23.23,0,0,1,219.82,170.7Zm.38,1.85h.26v.83h-.26Zm.45,2.49v.25h-.19V175Zm1.47.51h.57v.32h-.57Zm1,1.34h.45v.19h-.45Zm8.49,4,1.27.19.58.64.26.83-2.36-.83-.13.45h-.64Zm34-28.34v-.64H266v.64ZM264.12,155v-.64h.19V155Zm-1.21,5.11h.19v.45h-.19ZM261.05,163c.13-.13.19-.13.25-.13a.26.26,0,0,1,.26.13.48.48,0,0,1,.06.32.39.39,0,0,1-.06.26.5.5,0,0,1-.26.13c-.06,0-.13-.07-.25-.13a.38.38,0,0,1-.07-.26C261,163.18,261,163,261.05,163Zm.19,1.53c0-.38.06-.45.32-.26ZM251.92,151v-.64h.38V151Zm7,24a.28.28,0,0,0-.19.06c-.26.19-.26.38,0,.57l-.26.38.45.64L257.29,181l-.64.19-.19.45h-1.21l-.64.64-.38-1.72.57-.38a5.46,5.46,0,0,0,.83-.45l.45-1h-.64l-.83,1c-.06.32-.13.32-.32,0h.32l-.25-.58.64-.64-.19-.58c.32-.44.19-.7-.19-.64.38-.45.38-.64,0-.64l.64-.83v-1l.58-.38a3.24,3.24,0,0,0-.58-.44c.77,0,.83-.13.19-.19l1.21-.45a3.86,3.86,0,0,0,.64-.45l-.19.64h.77l.26.45,1.47.19c-.64,0-.89.13-.83.45,0-.13.06-.13.13-.13A.3.3,0,0,1,258.94,175Zm-4.34.38h.19v.25h-.19Zm0,.64h-.25v-.19h.25Zm6.06,3.45V178h.7v1.53ZM262,180.6v.26h-.38v-.26Zm-2.87,3.51v-.19c.51.13.51.13,0,.19l-.83,1.53v-1.91Zm-.64,8.3H258v-.58h.51Zm5.36-.38h-.13v-.26h.13Zm0-1.09c-.06,0-.06,0,0-.06C263.92,191.19,263.92,191.26,263.86,190.94Zm-21.89.26v.19h-.45v-.19Zm10.72-1.47h-.13v-.19h.13Zm.64-.57v.19h-.19v-.19Zm-1.6,9.89v-.19h.19V199Zm-2.11,4.34V204l-1.21-.19Zm-5.36-5.17v.19h-.44v-.19Zm8.3,13.91.13-.89.64-.19-1.21,3.32-1,.38.19-1.85ZM232.9,184.75l.19-.64h.38Zm-.89,0V185h-.19v-.26Zm-1.53,1.73h.45v1.21h-.45Zm3.38,1.59v-.19h.25v.19Zm-.13.64v-.19h.38v.19Zm-.64,2h.19v.19h-.19Zm0,.45v.38h-.19v-.38Zm0,1.53h.64V193h-.64Zm-1.72,2H231v-.25h.38Zm8.55-4.15v-.19h.19v.19ZM239,190l.57.7-.13.51.45,1,1.21.19.64-.38-.39,2.11-1.91,1-.19-.38-1.28.58-.39-.38h-1.21l.38-.64.57-.13.89-1.91-.89-.45v-.83l1.53.45Zm-1.79.77h-.45v-.19h.45Zm-10.78-9.26v-.25h.19v.25Zm-8.23,3.07H218v-.19h.26Zm1.6,18.19h.25v.19h-.25Zm.38,1.47V204h.45v.19Zm.45-1h.19v.19h-.19Zm2.68,2.68v.39h-.19v-.39Zm4.79,3.32h-.25v-.25h.25Zm-1.66.83v-.45h.19V210Zm.19-1.09v.25h-.19v-.25Zm7.66-10.72h-.19v-.45h.19Zm-.57-.57h-.26v-.26h.26Zm-.64.38v-.26h.19V198Zm-1.85,2v.45h-.45v-.45Zm-1.66,1.66h.19v.19h-.19Zm-.64.83v-.45h.45v.45Zm2.42,1.28h-.06c0-.32.06-.32.06,0l1-1.21-.77-.7.7-1.4.19.76.64.26.19.83-1.15,2.11Zm2.75-1.53h-.58v-.51h.58Zm.64,1.53V204h-.26v-.19Zm-.45,0V204h-.19v-.19Zm.45,1.85v-.26h.19v.26Zm-1.66,2.49v-.64l.19-2.11.83,1-1,1.09c.13,0,.19,0,.19.06.19.38.13.51-.19.58v.19C232.77,208.3,232.77,208.23,233.1,208.17Zm3.7,1.85c.13,0,.19.06.26.19a.35.35,0,0,1,.19.32.38.38,0,0,1-.19.38c-.06.13-.13.13-.26.13a.35.35,0,0,1-.32-.13c-.07-.06-.07-.19-.07-.38s0-.26.07-.32S236.67,210,236.8,210Zm-1.28,1.47h-.13v-.26h.13Zm2.49.38c-.13.32-.32.32-.39-.06Zm-20.23,1v.38h-.19v-.38Zm31.85,1.47v-.26h.19v.26Zm.57.19v-.45h.45v.45ZM132.31,118c0,.06,0,.19-.06.19C131.74,118.43,131.8,118.37,132.31,118ZM79.78,38.9v-.19h.58v.19Zm3.13-2V36.6h.38v.26Zm0-1.28-.45,1.28-1.72-.19.26-.83.89-.26v-.64l1.6.26Zm1.4,0V36h-.19v-.45Zm1.47,17.36v.45h-.25v-.45Zm22-28.53.77-.19.38.45-.77.64v.57l-.64.19v.64l1,.64-.38,1,.64.19.19.64-.64.19,2.49.45-2.94.77.26-.38-.7-.26.13-.7-1.08-.32-.26.45-.77-.45-.19.89-1,.19.38-.83-1-.26-.25.89L103,29.2l-.26.64-1,.77-1-.06-1.09,2-1,.19-.38-.32-4.15,1,1.59.19h-.76v.64h-.64l-.19-.83-1.66.38V34c-.32-.13-.32-.19,0-.25l.19-1.4.57.38.51-.57,1.21.38.13-.64.64.19,2.3-1L95,30.61,94.66,30l.38-.64h-.57l-.19-.57H92.8l-.38.57v-.57l.38-.45,2.87.19.45-.19,1.15,1.08,2.17-1.08-.64-.19V25.69l2.49-.38-.83-.25,1.28-.19.19-.45,1.66-.38.38-.45,1.92-.19.32.19.83-.13.51.19Zm.38,2.55v-.45h.38V27Zm-1.92,3.89h.45v.38h-.45Zm1.08.19v-.19h.19v.19Zm3.51-1.85h-.19v-.38h.19Zm-6.57,2.68v.19q-.58-.1,0-.19v-.19C104.48,31.75,104.48,31.82,104.23,31.88Zm1.21,0v-.19h.19v.19Zm-4.79.45h-.45v-.26h.45Zm1.66,3.89V36h.25v.19Zm-5-9.13V27h.26v.13Zm-4.15,1.85h.45v.26h-.45Zm4.72-.77h.32v.38h-.32Zm-7.15,2.87v-.83l.77-.38H91.4a.93.93,0,0,1,.13-.45v-.13c.64,0,.64.06,0,.13v.45l.89.38h.06c0,.32,0,.32-.06,0l-.89,1.21ZM92.17,33H92v.13h-.19V33h-.26v-.64h.64Zm-1.4,0H91v.13h-.19Zm-.19.38h.19v.19h-.19Zm-.89,1v.19h-.19v-.19Zm1.08,0q.77.19,0,.57h-.19A.7.7,0,0,1,90.76,34.37ZM89,34v.58h-.25V34Zm-.13,4.72v-.19H89v.19Zm-1.47-3.32h-.19V35.2h.19Zm11.62-2.3h.13v.26h-.13Zm-5.43-1.85v.19h-.19v-.19Zm.45,5.81h-.26v-.19h.26Zm1.21.64h-.83v-.64h.83Zm2-2.3V35.2h.26v.19Zm-3.89,4.79h-.57v-.45h.57Zm-1,10.08v-.57l1.08.19,1-.45.83-1.21,1-.19,1,1.28a5.51,5.51,0,0,1,.45-.64l1.28-.45-.45.83-1.28.26v.57l1.28.19.45-.64,1,.64-2.75.45.89.51L97,51.54l.19,1.21L95.68,54l.45,1.85-.64.64-2.42.58-.64-.58-2.43,1-.06.45H89l-.57.38v.57L87.7,59l-.89,1.6.26.64-.38.45.13.45-.38.19-.26,1.21-.77.83-.89.19.07,1.28c.25-.7.32-.51.38.64l-2.49.38V65.65l.45-.64.83-.26c0-.32.13-.38.38-.32a.47.47,0,0,1,.38.13l-.77-1.21.13-1.21.51-.45-.26-.45,1-.64.25-2-1.91-1,.64-.64H81.44l-.19-.83.38-.77.83-.45,3.13.26.83-2.55L86,51.92l.45-.13.38-1.08.26.64.57.19,2.49-1,.64,1.28v-.26c.32.06.32.13,0,.26l1,.26.06-1.53ZM87.25,48v-.26h.64V48Zm.19-1h.45v.38h-.45Zm11,.64V48h-.51v-.38Zm-1,.57c0,.38,0,.38-.13,0h-.19q0-.86.19,0Zm1.15,3.57v.13h-.38V51.8ZM97,53.39h.38v.19H97ZM107.1,40h.38v.19h-.38Zm-.44,1.79v.45h-.45v-.45Zm-5.55,4.79h.38v.19h-.38Zm2.81-1,1-.7L106,47.2l-.58.19q.1,1.53-1.15,1.72l-.7-.7-.83.7a1.69,1.69,0,0,0,.38.32l-.25.51-1.4-.06c0,.06,0,.13-.06.13-.38.57-.64.57-.77.06l.83-.19.64-.83-1.47.64-1.15-.64-.06-1.47,1.6-.51.06,1.6,1.21-.51c-.51-.19-.51-.51.06-.77a2.17,2.17,0,0,1,.77-.38l.45,1.4,1-.77-.64.13-.38-.57Zm.06,3.77v.13h-.64v-.13Zm1.66,1v-.19L104,49.69a13.86,13.86,0,0,1,1.6-.06c.45.06.45.26.06.45C105.89,50.9,105.89,50.9,105.63,50.26Zm-4,1.53-.13-.64,1.09-.64,1.4,1Zm4,.77v-.19h.26v.19Zm-.64.64v.19h-.38V53.2Zm.64.83v-.45h.57V54Zm4-5.62v-.19H110v.19Zm.32,1c0-.77,0-.77.07,0,.7.13.89.32.64.64v.19c-.7,0-.89-.32-.64-.83Zm-.77.26c0,.06-.06.19-.06.26a.41.41,0,0,1-.32.13c-.13,0-.26,0-.32-.13a.38.38,0,0,1,0-.57.48.48,0,0,1,.32-.06.7.7,0,0,1,.32.06A2.76,2.76,0,0,1,109.14,49.69Zm-2.3,1a.49.49,0,0,1,.32-.13.54.54,0,0,1,.38.13.55.55,0,0,1,.19.38.46.46,0,0,1-.19.38c-.06.13-.19.13-.38.13s-.26,0-.32-.13a.45.45,0,0,1-.19-.38A.55.55,0,0,1,106.85,50.65Zm.64,1.28v.26h-.19v-.26Zm-.83.45h-.45V51.8h.45Zm-.45.38h.45v.19h-.45Zm.45,1.91c.57-.64.7-1.08.19-1.28l.32-1c.13.38.51.51,1,.26.7.45.64.89-.06,1.47l-.38.13V55l-.77.38-.51.89-1.21.45-.45-.45.19-1.21.64-.57Zm-.77-2.74h-.26C105.57,51.48,105.63,51.48,105.89,51.92Zm-8.11-13.4h1.66V39H97.78ZM52,93.54h.32v.38H52Zm1.79,3.7-.89.45-.38-.45h-.57l.57-2,.83-.45v-.06c.32,0,.32,0,0,.06L54.13,96Zm-5.68,3.51c.26-.51.38-.57.32-.19C48.38,100.62,48.25,100.69,48.06,100.75ZM49.72,99l.7-.32.38,1,1.85.26,1.08,1.6-1,1.28-5,.7,1-1.53,1.09-.45,1.28-1.6-1.08.38Zm1.53.13v.38h-.19v-.38ZM87.44,61.5v.19h-.19V61.5Zm-3.32-2.94h.06c0,.57,0,.57-.06,0l-.64.26-.58.64-.83-1.6Zm-3.51-1.85c0-.32.06-.32.19,0h.13c0,.32-.06.32-.13,0Zm0,1.47-.38-.45c-.45-.45-.25-.64.38-.64l.19.45.64.19Zm0,.38h-.26v-.19h.26Zm1.4,1V59.2h.45v.38ZM80.23,60l.58.38V61.5l-1.4.64-.26-.64v.19q-.86-.1,0-.19V60.22l-.19-1-.83-.26.64-.57L80,58.18v.77l-.83.26v1Zm-1.47-4c-.19.83-.57.89-1,.19a2.5,2.5,0,0,0,.13-.38l.89.19v-.13C79.27,55.75,79.27,55.75,78.76,56.07Zm3.38,11.49v-.45h1.34v.45Zm1.34.51v-.19h.25v.19ZM104.23,123v.13H104V123Zm1.4,4.47V127h.26v.38Zm-.19-1h.19v.38h-.19Zm-1.21-.45v.19H104V126Zm-.26,1.21v.45h-.19v-.45Zm0,2.3v-.19h.26v.19Zm1.47-.83-.57-.51,1,.51C105.57,129.15,105.38,129.15,105.44,128.71Zm-1.21-2.3c-.13.51-.19.51-.26.06C104.16,126.47,104.23,126.47,104.23,126.41Zm-2.11,1.47h-.19v-.19h.19Zm-8.94-4.15h.25v.19h-.25Zm.25,1.91.06-1,1.41.7Zm2.23-.89h.26v.45h-.26Zm-9.25-2h.64V123h-.64ZM89,129.54h-.57v-.32H89Zm-2.36-.06c-.38-.7-.32-.64.13.06C86.74,129.54,86.74,129.54,86.68,129.47Zm12.51-3v.13h-.13v-.13Zm-6.77,16.28v-.19h.19v.19Zm-1.85,2.68h.19v.26h-.19Zm.19-1v.19h-.19v-.19Zm1.66,0v-.26h.38v.26Zm-1.34.25h1.53v1.15H91.08Zm-4.66-2.36,1-.45-1-.19h1l.58,1-.13,1.09.57.38-1.21,1.47-1.47.19-.38-.45h0c.06.06,0,.13,0,.19-.19.07-.32.13-.38.07l-.19-.13a2.6,2.6,0,0,1,.26-.58,4.61,4.61,0,0,0,.38-1.4c0-.19-.06-.32-.06-.51l.77-.32ZM89,143.77l-.51-1,1.66.45Zm6.7,2.3h.26v.19h-.26Zm-.64-.38v.38h-.13v-.38Zm-.38.57a.54.54,0,0,1,.32.19,1.59,1.59,0,0,1,0,.89.35.35,0,0,1-.32.19.34.34,0,0,1-.26-.19.85.85,0,0,1,0-.89C94.46,146.39,94.59,146.26,94.66,146.26Zm-1.21-.38v-.19h.19v.19Zm15.51-12v.38h-.19v-.38Zm0,1.21h.19v.19H109Zm.19,2.55H109v-.45h.19Zm-1.85,3.64v-.13h.19v.13Zm1.21-.77v-.19H109v.19Zm-1.21,1h.19v.19h-.19Zm-5-.38v.13h-.38v-.13Zm0,1.21h-.26v-.45h.26Zm-.7.58c.19-.51.26-.51.13,0ZM85.4,119.58v.19H85v-.19Zm-1.79,6.13v-1.15h1.21v1.15Zm-6.32-6.32h.19v.19h-.19Zm7.09,7c-.26-.26-.19-.26.13.13ZM65.29,132v.19H65V132Zm-.38,5.36.83-.7.58,1-.83.57-2.17.19v1h1.47a.77.77,0,0,0,.19-.13,2.38,2.38,0,0,0-.06-.64h1l.64.45-.64.38.38.89-.38.83H66c0,.25,0,.25-.06,0,.06,1-.58,1.4-1.85,1.34v.06l-.64.83.38.83-1,1.66.64.19.13.38a.93.93,0,0,0-.13.45L62,148l-.13.58a6.67,6.67,0,0,1-1.53-2.11,1.1,1.1,0,0,1,.07-.38l.83-.64-1.09-1.85-.58-.19-.51.45.25-1.09h.83l-1.47-1.47.64-.13-1-.19-.64.57-1-1,1.09-1.09.19-.58h.57l.45-1.47h2l-.83-.58H59.3l-.64-.64-.19-2,.83-.64v.64h.64l.64.45-1.09,1.34.64.89,1.47-.13-.64-2,1-.45.64,2.55Zm.57-3.13h-.25v-.38h.25Zm-4.34,2.11H61v-.19h.19Zm2.94,2.23h.19v.25h-.19Zm2.81,2.55c-.06,0-.13.06-.19.13v-.13Zm-2.62,2.42v-.19h.19v.19Zm16-7h.38v.64h-.38Zm1.72,2h-.13v-.19H82Zm.89,1.08v-.25h.38v.25Zm-3.13,5-1.66.77-2-.13,1.21-.64.45-1.72h1.4v1.53Zm-6.45,35.11v-.19h.45v.19Zm7-9.06h-.13v-.19h.13Zm-3.25.57c.77.19.51.32-.83.26l-.19-1h.77Zm1.53,3.19V174H79v.44Zm.13.38.64.19.57,1.21-.83.64v.64l-.83-.19-.19-.64h.64l-.25-.64h-.64l-.13.64-1.47.19-.19.45L74,176.7l-.38-1.28.57-1.09,1.15.45.77-.76h1.41l-1.21.44.19.83.64.38,1.4-.25ZM77.61,174c0,.32-.06.32-.13,0Zm-3.38,3.51v-.19h.13v.19ZM76.46,181l-.19-1,.57-.45.89-.38-.26-.83,1-.64-.19,1.08.45.13v.64l-.45.19-.57,1.09c.32.32.25.57-.26.64l-.19-.45ZM95,157.24l.45-1,3.13.32v2.75l.83.38-1.47.64a2.79,2.79,0,0,1-.7.07l-1-.45v-.83Zm-4.47,12.19h0v-.19h0Zm6.77,1.85h.26v.13c-.07.07-.13.07-.26.13Zm5-5.49c.45.45.38.38-.19-.06A.24.24,0,0,1,102.31,165.79Zm2,10.72.64.38-1.47,1.28.83,1.6,1.09.25-.45.83h.13c0,.32,0,.32-.13,0l-.38.64-.83.19-1.85-.64a3.74,3.74,0,0,0-1.09-3.32l.45-.38,1,.19.25-.64h1.21Zm-3.51,2.87h-.19v-.19h.19ZM100.4,181h1v.77h-1Zm5-3.32h-.83l1.47-.07v1.21h-.64Zm.77-1.21c.13.83,0,1.09-.32.58l-.26-.58ZM59.68,133.69h.26v.19h-.26Zm-.7-1.28c0-.26,0-.26.07,0h.19c-.06.38-.06.38-.19,0Zm-3.19,6.83V139h.38v.19Zm.19,1.08a.33.33,0,0,1-.25-.13c-.13-.07-.19-.13-.19-.19s.06-.19.19-.26.13-.07.25-.07a.57.57,0,0,1,.32.07.33.33,0,0,1,.13.26c0,.06-.06.13-.13.19S56.1,140.32,56,140.32Zm.19.38v.45h-.38v-.45Zm.32.77h.45v.89h-.45Zm-.06-3.06,2-.77-.83,1Zm-2.3,6.89h.19v.13h-.19Zm-37.4-17.23h-.45v-.19h.45Zm-.89,0h-.19v-.19h.19Zm1.28,2.49v.19h-.38v-.19Zm.64-.57c-.32.45-.38.45-.32,0Zm-.13,3.7h.26v.83h-.26Zm.7,2h-.45v-.19h.45Zm-.45-.64h-.13v-.19h.13ZM19,139.43v.25H18.7v-.25Zm.83,6.83H19.6v-.19h.19Zm-1.09.64h.45v.83H18.7Zm.45,8.75.64,1.4v1l1,1.47-.38,1.66H19.6a6.69,6.69,0,0,1-1.15-5.36Zm4.15,9.89v.19H23.1v-.19Zm3.06,8.68h-.19V174h.19Zm1.09,2.36v-.38h.83v.38Zm.45.76V177h.83v.32Zm16.47-9.7V168h-.13v-.38Zm10.15-11.81h-.19v-.19h.19Zm3.19,28.4a1.24,1.24,0,0,1,0,1.66.86.86,0,0,1-.77.32,1.18,1.18,0,0,1-.83-2,1.34,1.34,0,0,1,.83-.32A1.06,1.06,0,0,1,57.7,184.24Zm-1.53,4.28-.19-.77c.07,0,.13-.06.13,0a.78.78,0,0,1,.32.32l1-.19.19.38,1,.26.64.64-1.66.38,1,1-.32.32c.51-.06.89.45,1,1.41.06-.64.25-.77.45-.26l-.51,1.47-.57.45-.19-.58h-1l-.19-.45h-.64L56,190.75l-.57-.38h.77c-.64-.7-1.21-.7-1.72-.19l-1.15-1,.83-.45.38.45Zm.45-1.91-.19.83c-.13-.26-.32-.51-.45-.83Zm.83.83h.19v.25h-.19Zm-5.55,5v.25h-.26v-.25Zm-2.55,1.47v-.19h.26v.19Zm2.11,1.21v.19h-.38v-.19Zm-.64,1.28v-.19h.25v.19Zm3.57-5.62h-.06v.19c-.39,0-.39,0,0-.19C54.51,190.49,54.51,190.49,54.38,190.75Zm4.09,4.53,1.08,1.21,1.21.06L59.49,199l-.19-.64-1.66-1v-1l-.58-.77Zm-18-1.79h.38v.64h-.38Zm-.38.19v.45h-.19v-.45Zm2.87,0v.45h-.19v-.45Zm1.41-.38v.19q-.38-.19,0-.19V193C44.68,193.17,44.68,193.17,44.36,193.3Zm0,.38h.25v.19h-.25Zm16,5.75V199h.26v.38Zm-4.15-1.79H56v-.26h.19Zm1.09,1-.7-.45,1.09-.13Zm-5,4.08c0,.06.06.19.06.25a2.73,2.73,0,0,1-.06.32.25.25,0,0,1-.25.13c-.06,0-.13,0-.26-.13a2.73,2.73,0,0,1-.06-.32c0-.06.06-.19.06-.25s.19-.13.26-.13A.25.25,0,0,1,52.21,202.68ZM59,217.62c.13-.06.19-.19.32-.19a1,1,0,0,1,.45.19.48.48,0,0,1,.13.32.53.53,0,0,1-.13.38.58.58,0,0,1-.45.19c-.13,0-.19-.06-.32-.19a.53.53,0,0,1-.13-.38A.48.48,0,0,1,59,217.62Zm1.08.64c.06,0,.13,0,.13.07C60.51,218.83,60.44,218.83,60.12,218.25Zm47.36-33.51h.64v.64l-1.66.45.19.64,1.21.57-.38,1,1.47,1.09L106.85,192l-1-.45.57-1.6-.83-1.08v.26c-.32-.13-.32-.13,0-.26l.26-.83-.89-.64-.38-1.91,1.28-.77.57.26.83-.89Zm.26,1.28v-.19h.38V186Zm-5-3.89h.45v.38h-.45Zm2.94,11.74v-.38Q106.11,193.68,105.63,193.87Zm.45-1.47v-.19h.13v.19Zm-17.17,1.47L88,195.73l.64,1.46H88l-.13.83-1.09.19-.38-2L85,195.53l-.19-.45.19-.83.83-.58.38.45v-1.72l1.72-1-1.09.38L88,190.55l1.21.38-1,.83Zm2,9.7.45.89,1.4.83.26,1-1,1.6H92a4.39,4.39,0,0,1-2.68-3l.83-.38.19-.89Zm-1.66,8.55v.57l.83.38-.19.64-1.66-1L88,211.49h.64l.26.83Zm3.45-.64v-.9h.32v.9Zm.7-4.41-.25.64V208c-.25-.13-.25-.13,0-.25l-.57-.64Zm6.38-8.49v-.19h.38v.83h-.38V199h-.19v-.45ZM105,211.23h-.19V211H105ZM77.1,182.13h1V183h-1Zm6.7,8.81v1.28H82.53v-1.28Zm-2.36,3.77h-.19v-.45h.19ZM66,192.22a.75.75,0,0,1,.57.32,1.36,1.36,0,0,1,.13.64,2.24,2.24,0,0,1-.13.64c-.19.19-.32.32-.57.32s-.32-.13-.45-.32a.91.91,0,0,1-.26-.64.67.67,0,0,1,.26-.64C65.68,192.34,65.8,192.22,66,192.22Zm-5-1.66V190h.58v.57Zm-.25,5.17c0,.38-.13.38-.19,0-.32-.07-.32-.13-.13-.13s.06.13.13.13Zm7.09,2.17a1.51,1.51,0,0,1-.51.13.68.68,0,0,1-.38-.13c-.13-.13-.26-.19-.26-.25s.13-.26.26-.32.25-.13.38-.13a.76.76,0,0,1,.51.13.38.38,0,0,1,.13.32C68,197.7,67.91,197.77,67.85,197.89Zm4.85,7h-.13v-.38h.13Zm.25-.38-1.21-2.55,1-.64.25.83,1.28.83L74,204.15Zm-11.3-7.15c.13.13.13.19.13.38a.47.47,0,0,1-.13.38c-.13.06-.19.13-.26.13a.38.38,0,0,1-.32-.13.47.47,0,0,1-.13-.38c0-.19,0-.25.13-.38a.37.37,0,0,1,.32-.13C61.47,197.19,61.53,197.26,61.66,197.32Zm11.68,9.76-.38-1,.58-1c.57.32,1,.13,1.09-.64l2.68-.44.19,1-1,.38-.83-.38-.83.83.19.57-.19.9-1.47.19.64.19-1.15.51-.26-.89Zm11.49-9.38h.58v.51h-.58Zm-.64-.64v1.53H82.66v-1.53Zm.32,2.17h-.19V199h.19Zm-.19,1.66-.58-.19.38-1.4,1.66,2.43-1,.38v-.57Zm1.85-1.66v-.64c.19,0,.26.06.26.13C86.61,199,86.49,199.24,86.17,199.24Zm-4.66-2.11h.7v.64h-.7Zm.77,1.72h.19V199h-.19Zm-2,2h1v.38h-1ZM83,201.92a1.19,1.19,0,0,1,.13.44.93.93,0,0,1-.13.45.49.49,0,0,1-.32.13,1.06,1.06,0,0,1-.32-.13,1,1,0,0,1-.06-.45,1.08,1.08,0,0,1,.06-.44.58.58,0,0,1,.32-.19A.35.35,0,0,1,83,201.92ZM81.32,204c0-.32.06-.32.13,0h.19q0,1-.19,0Zm1,.13h.51v.51h-.51Zm1.85-1.6v-.19h.38v.19Zm-.38,2.11h.38V205h-.38Zm-10,.19h-.19v-.19h.19Zm7.47.83v-.38h.19v.38Zm1.85.06H82v-.45H83.1Zm-2.74,5.11a.93.93,0,0,1-.13-.45,1.18,1.18,0,0,1,.13-.45,1.35,1.35,0,0,1,.45-.19,1,1,0,0,1,.45.19.69.69,0,0,1,.19.45.59.59,0,0,1-.19.45.58.58,0,0,1-.45.19A.69.69,0,0,1,80.36,210.85Zm-.13,4.79.38-.89L83.29,216l-.38.64v.77l.38.25.19.57-.58.26-.25.38Zm2.23,4.72v-.19h.19v.19Zm-4.34-6.44h.19v.19h-.19Zm-3.77,3.38v.13h-.13v-.13Zm1.09,2.3v-1.4h2v1.4Zm3.7,5.94v.19H79v-.19Zm.13,2.3a.46.46,0,0,1,.38.19,1,1,0,0,1,.13.45.49.49,0,0,1-.13.32.45.45,0,0,1-.38.19.57.57,0,0,1-.45-.19.48.48,0,0,1-.13-.32.92.92,0,0,1,.13-.45A.58.58,0,0,1,79.27,227.83Zm-18.7-7.47c.64-.51,1.28-.45,2,.19a1.3,1.3,0,0,1-.45.38H61.4Zm5.36,3.51v-.19h.19v.19Zm1.66-1.66h.64v-.07c-.13-.44-.06-.38.19.07h1.4l.45.64c-.13.25-.26.51-.45.83l-1.4-.38.19-.45h-1Zm1.6,1.66v.19h-.13v-.19Zm-.64-.13v.07C67.91,224,67.91,224,68.55,223.74Zm-1.6,2,.64-.19.19.83c-1.09.44-1.4.44-1.09,0Zm17.68,4v-.57h.77v.57Zm1.15-.45V229h.64v.19Zm23-6.38h-.45v-.19h.45Zm-16.53-4.47-.7-.32-.38-1Zm-1.08,5.3H92v.19h-.83Zm1.91.19v.19H92.8v-.19Z"/><path class="cls-5" d="M246.35,88.49a11.93,11.93,0,0,1,2.78,5.24,11.52,11.52,0,0,1-.46,7.91,7.45,7.45,0,0,1-11.73,3.14,11.49,11.49,0,0,1-4.37-6.61,12,12,0,0,1,.1-6.92,6.49,6.49,0,0,1,.38-1,7.8,7.8,0,0,1,3.43-3.92,6.92,6.92,0,0,1,1.63-.65,7.52,7.52,0,0,1,6.65,1.46,6.3,6.3,0,0,1,.51.39l.18.14Q245.92,88.06,246.35,88.49ZM248.46,94a10,10,0,0,0-3.8-5.75A6.46,6.46,0,0,0,234.49,91a10,10,0,0,0-.4,6.85,10.21,10.21,0,0,0,3.77,5.78,6.55,6.55,0,0,0,10.21-2.74A10.17,10.17,0,0,0,248.46,94ZM256,172.67q.23.94.39,1.89a19,19,0,0,1-1.07,9.22,18.19,18.19,0,0,1-7.7,9.76q-5.36,3.27-10.59,1.38t-7.31-7.82a18.19,18.19,0,0,1,.3-12.42,18.61,18.61,0,0,1,6.29-8.82,15.76,15.76,0,0,1,1.39-1,12.54,12.54,0,0,1,7.92-2,11.51,11.51,0,0,1,2.69.63q5.23,1.87,7.29,7.8.16.48.3,1A3.27,3.27,0,0,0,256,172.67Zm-1.35,11a16.85,16.85,0,0,0,.25-11.51,10.82,10.82,0,0,0-16.57-6,18.22,18.22,0,0,0-7.4,20.57,10.85,10.85,0,0,0,16.58,6A17,17,0,0,0,254.67,183.67Zm-12.45,27.54a7.35,7.35,0,0,1-1.07,3.49,7.08,7.08,0,0,1-3.64,3.24,4.59,4.59,0,0,1-6.47-3.74,7.08,7.08,0,0,1,1-4.78,7.3,7.3,0,0,1,3.05-3,5.42,5.42,0,0,1,.6-.28,4.82,4.82,0,0,1,3.2-.21,4.25,4.25,0,0,1,1,.43,4.64,4.64,0,0,1,2.26,3.53c0,.12,0,.25.05.39l0,.14Q242.21,210.84,242.21,211.21Zm-2.62-3.91a4,4,0,0,0-3.63-.16,6.78,6.78,0,0,0-4,7,4,4,0,0,0,5.63,3.26,6.29,6.29,0,0,0,3.17-2.83,6.13,6.13,0,0,0,.86-4.15A4,4,0,0,0,239.6,207.3ZM100.66,34q.55-.12,1.14-.19a8.54,8.54,0,0,1,5.51,1.09A7.41,7.41,0,0,1,108.78,36,8.09,8.09,0,0,1,111,43q0,.34-.09.68l0,.23q-.12.66-.31,1.3a13,13,0,0,1-3.37,5.42,12.49,12.49,0,0,1-7.65,3.81,8,8,0,0,1-9.22-9.22,12.49,12.49,0,0,1,3.82-7.64A12.69,12.69,0,0,1,100.66,34Zm7.63,2.86a7.55,7.55,0,0,0-6.48-2.09A12.57,12.57,0,0,0,91.2,45.37a7.46,7.46,0,0,0,8.55,8.56,11.65,11.65,0,0,0,7.08-3.55,11.47,11.47,0,0,0,3.53-7.07A7.49,7.49,0,0,0,108.28,36.84ZM81.42,68.52q-.12,1.2-.35,2.4a26.86,26.86,0,0,1-4.61,10.52Q71.63,88.25,65,90T54,87.56q-4.51-4.28-4.28-12.11a26.22,26.22,0,0,1,5.08-14.62,21.47,21.47,0,0,1,9.66-8,13.26,13.26,0,0,1,1.75-.59,11.38,11.38,0,0,1,8.66.69,11.51,11.51,0,0,1,2.44,1.79Q81.77,59,81.53,66.8q0,.63-.07,1.26Q81.43,68.29,81.42,68.52ZM66.3,54q-6.1,1.66-10.58,8A24.29,24.29,0,0,0,51,75.5q-.21,7.25,4,11.21T65.23,89q6.13-1.66,10.6-8a24.21,24.21,0,0,0,4.69-13.54q.22-7.26-3.94-11.21T66.3,54ZM41.23,80.29a4,4,0,0,0-3.63-.16,6.78,6.78,0,0,0-4,7,4,4,0,0,0,5.63,3.26,6.29,6.29,0,0,0,3.17-2.83,6.13,6.13,0,0,0,.86-4.15A4,4,0,0,0,41.23,80.29ZM40.49,79a4.26,4.26,0,0,1,1,.43,4.64,4.64,0,0,1,2.26,3.53q0,.18.05.39l0,.14q0,.38,0,.75a7.36,7.36,0,0,1-1.07,3.49,7.08,7.08,0,0,1-3.65,3.24,4.59,4.59,0,0,1-6.47-3.74,7.08,7.08,0,0,1,1-4.78,7.31,7.31,0,0,1,3.05-3,5.4,5.4,0,0,1,.6-.27A4.82,4.82,0,0,1,40.49,79Zm65.87,171.68a12,12,0,0,1,5.94.2,11.54,11.54,0,0,1,6.62,4.36,7.45,7.45,0,0,1-3.15,11.73,11.47,11.47,0,0,1-7.9.48,11.9,11.9,0,0,1-5.95-3.55,7.55,7.55,0,0,1-.69-.82,7.85,7.85,0,0,1-1.67-4.94,6.61,6.61,0,0,1,.24-1.74,7.48,7.48,0,0,1,4.58-5,4.47,4.47,0,0,1,.59-.24l.21-.09Q105.78,250.79,106.36,250.64Zm-3.75,11.53a10,10,0,0,0,5.73,3.77,10.27,10.27,0,0,0,6.89-.37,6.61,6.61,0,0,0,4-4.42,6.68,6.68,0,0,0-1.22-5.8,10.19,10.19,0,0,0-5.77-3.77,10,10,0,0,0-6.88.42,6.46,6.46,0,0,0-2.71,10.17Zm67.73.88q-.79.79-1.67,1.52a26.25,26.25,0,0,1-10.25,4.88,26.6,26.6,0,0,1-15.55-.42q-7.19-2.51-9-8.15t2.82-11.13q4.63-5.46,13-7.53a27.26,27.26,0,0,1,13.57-.18,20.51,20.51,0,0,1,2,.59q5.35,1.86,7.72,5.48a11.19,11.19,0,0,1,1.28,2.68q1.8,5.64-2.83,11.1-.38.45-.77.87A4.22,4.22,0,0,0,170.34,263Zm-32.41-12.49q-4.3,5.08-2.62,10.3t8.32,7.54a24.82,24.82,0,0,0,14.43.39,22.23,22.23,0,0,0,12-7q4.31-5.07,2.63-10.29t-8.33-7.54a24.87,24.87,0,0,0-14.41-.39A22.42,22.42,0,0,0,137.93,250.54Z"/><path class="cls-6" d="M256.41,174.57q-.15-1-.39-1.89h0a21.23,21.23,0,0,1-8.64,24.06q-5.8,3.56-11.47,1.52a12.45,12.45,0,0,1-7.27-6.84,12.3,12.3,0,0,0,6.92,6.16q5.68,2,11.47-1.52a19.73,19.73,0,0,0,8.36-10.58A20.48,20.48,0,0,0,256.41,174.57ZM81.08,70.93q.22-1.2.35-2.4h0A28.47,28.47,0,0,1,76,84.4q-5.24,7.37-12.41,9.31T51.53,91Q47.3,87,46.92,80.1a15.39,15.39,0,0,0,4.54,10q4.87,4.62,12,2.67t12.39-9.31A28.91,28.91,0,0,0,81.08,70.93Zm87.59,193.63q.88-.72,1.67-1.52h0q-5,5.94-14.09,8.21a28.92,28.92,0,0,1-16.86-.47q-7.81-2.72-9.75-8.82-1.7-5.32,1.84-10.48a11.36,11.36,0,0,0-1.38,9.75q2,6.1,9.75,8.82a28.93,28.93,0,0,0,16.86.47A27.66,27.66,0,0,0,168.67,264.55Z"/><path class="cls-5" d="M160.59,35.86q3.25.11,4.91-3.93,1.81-5.06,6.86-5.26,13.17-.65,20.42,7.11,2.42,2.61.76,6.46a11.72,11.72,0,0,0-.35,6.85,6.72,6.72,0,0,1-.48-6q1.55-3.85-.71-6.46-6.8-7.75-19.14-7.11-4.73.21-6.43,5.26Q164.88,36.87,160.59,35.86Zm9.59-6.21q2.35-1.13,7-.53a29.36,29.36,0,0,1,8.75,2.56,13.67,13.67,0,0,1,5,3.54,4.5,4.5,0,0,1,.42.59,2,2,0,0,1-.09,2.65,3.57,3.57,0,0,1-1,.64q-2.34,1.12-6.93.52l-.74-.11-.26,0-1.42-.25a29.61,29.61,0,0,1-6.34-2.15q-4.16-2-5.45-4.14T170.18,29.65Zm.54.37q-2.17,1-1,3.05t5.06,3.83a27,27,0,0,0,8.1,2.36q4.28.55,6.44-.49t1-3q-1.19-2-5.05-3.83a27.16,27.16,0,0,0-8.13-2.36Q172.88,29,170.72,30Z"/><path class="cls-5" d="M21.16,169q1.56,1.83,3.2.16t2.4-5.87a27,27,0,0,0,.21-8.43q-.56-4.27-2.12-6.09t-3.19-.16q-1.63,1.66-2.4,5.86a27.15,27.15,0,0,0-.2,8.45Q19.62,167.18,21.16,169Zm8.24,8.29q-.72-3.17-5.05-3.73-5.35-.45-6.84-5.28-4-12.55,1.63-21.55,1.9-3,6-2.39a11.71,11.71,0,0,0,6.71-1.42,6.71,6.71,0,0,1-5.63,2q-4.12-.51-6.05,2.34-5.75,8.55-2,20.31,1.41,4.52,6.73,4.87Q29.28,172.88,29.4,177.29Zm-8.45-7.67q-1.69-2-2.29-6.58a29.32,29.32,0,0,1,.23-9.1A13.66,13.66,0,0,1,21,148.16a4.49,4.49,0,0,1,.46-.55,2,2,0,0,1,2.58-.59,3.57,3.57,0,0,1,.87.77q1.68,2,2.28,6.56,0,.37.08.75l0,.27q.06.72.12,1.43a29.59,29.59,0,0,1-.45,6.68q-.82,4.52-2.61,6.32T20.95,169.62Z"/><path class="cls-5" d="M97.81,249.27q-3.1-1-5.76,2.51-3.07,4.41-8,3.29-12.87-2.81-17.84-12.19-1.66-3.15.95-6.43a11.71,11.71,0,0,0,2.12-6.52,6.71,6.71,0,0,1-1.09,5.87q-2.5,3.31-1,6.41,4.53,9.25,16.61,11.85,4.62,1,7.58-3.4Q93.93,247.17,97.81,249.27Zm-10.87,3.49q-2.56.48-6.85-1.3a29.33,29.33,0,0,1-7.77-4.75A13.66,13.66,0,0,1,68.39,242a4.5,4.5,0,0,1-.25-.68,2,2,0,0,1,.78-2.53,3.56,3.56,0,0,1,1.1-.37q2.55-.47,6.82,1.31l.69.3.24.11,1.3.61a29.6,29.6,0,0,1,5.56,3.73q3.51,3,4.17,5.42T86.94,252.75Zm-.42-.49q2.36-.44,1.74-2.69t-3.88-5a27,27,0,0,0-7.2-4.39q-4-1.65-6.33-1.21t-1.74,2.68q.63,2.25,3.87,5A27.15,27.15,0,0,0,80.2,251Q84.17,252.69,86.52,252.26Z"/><path class="cls-5" d="M259.18,130.64q-1.56-1.83-3.2-.16t-2.4,5.87a27,27,0,0,0-.21,8.43q.56,4.27,2.12,6.09t3.19.16q1.63-1.66,2.4-5.86a27.14,27.14,0,0,0,.2-8.45Q260.72,132.46,259.18,130.64Zm-8.24-8.29q.72,3.17,5.05,3.73,5.35.45,6.84,5.28,4,12.55-1.63,21.55-1.9,3-6,2.39a11.71,11.71,0,0,0-6.71,1.42,6.71,6.71,0,0,1,5.63-2q4.12.51,6.05-2.34,5.75-8.55,2-20.31-1.41-4.52-6.73-4.87Q251.06,126.76,250.94,122.35Zm8.45,7.67q1.69,2,2.29,6.58a29.34,29.34,0,0,1-.23,9.1,13.66,13.66,0,0,1-2.13,5.78,4.49,4.49,0,0,1-.46.55,2,2,0,0,1-2.58.59,3.57,3.57,0,0,1-.87-.77q-1.68-2-2.28-6.56,0-.37-.08-.75l0-.27q-.06-.72-.12-1.43a29.58,29.58,0,0,1,.45-6.68q.82-4.52,2.61-6.32T259.39,130Z"/></svg>