<svg id="Capa_1" data-name="Capa 1" xmlns="http://www.w3.org/2000/svg" viewBox="0 0 200 200"><defs><style>.cls-1{fill:#b56e22;}.cls-2{fill:#dd902f;}.cls-3{fill:#fff;}</style></defs><title>icons</title><path class="cls-1" d="M117.16,185.06c-17.38,0-17.38,5-34.76,5-38.08,0-66.76-33.45-66.76-71.53,0-17.38-.45-17.38-.45-34.76,0-38.08,29.12-69.29,67.2-69.29h34.76c38.08,0,69.45,31.2,69.45,69.28,0,17.38,2.65,17.38,2.65,34.76C189.25,156.59,155.24,185.06,117.16,185.06Z"/><path class="cls-2" d="M112.72,180.56c-17.38,0-17.38,5-34.76,5C39.87,185.54,11.2,152.1,11.2,114c0-17.38-.45-17.38-.45-34.76C10.75,41.17,39.87,10,78,10h34.76c38.08,0,69.45,31.2,69.45,69.28,0,17.38,2.65,17.38,2.65,34.76C184.81,152.1,150.8,180.56,112.72,180.56Z"/><path class="cls-3" d="M123,78a6.71,6.71,0,0,0-6.4-4.73h-7.18a2.9,2.9,0,0,1-2.71-2.1l-2.29-7.25h0a6.7,6.7,0,0,0-12.87,0l-2.29,7.25a2.9,2.9,0,0,1-2.71,2.1H79.4A6.71,6.71,0,0,0,73,78a7,7,0,0,0,2.45,8l5.6,4.18a3.27,3.27,0,0,1,1.09,3.58L80,100.64a7.11,7.11,0,0,0,2.61,8,6.51,6.51,0,0,0,7.78-.1L96.4,104a2.67,2.67,0,0,1,3.24,0l6.05,4.51a6.51,6.51,0,0,0,7.78.1,7.12,7.12,0,0,0,2.61-8l-2.19-6.91A3.27,3.27,0,0,1,115,90.15L120.6,86A7,7,0,0,0,123,78Zm-4.78,4.86L112.66,87a7.14,7.14,0,0,0-2.48,7.89l2.19,6.91a3.18,3.18,0,0,1-1.15,3.62,2.62,2.62,0,0,1-3.18,0L102,100.88a6.57,6.57,0,0,0-7.91,0L88,105.4a2.62,2.62,0,0,1-3.18,0,3.18,3.18,0,0,1-1.15-3.62l2.19-6.91A7.14,7.14,0,0,0,83.39,87l-5.6-4.18a3.21,3.21,0,0,1-1.07-3.63,2.84,2.84,0,0,1,2.7-2.06h7.18A6.79,6.79,0,0,0,93,72.32l2.3-7.25a2.8,2.8,0,0,1,5.42,0h0L103,72.32a6.79,6.79,0,0,0,6.44,4.83h7.18a2.84,2.84,0,0,1,2.7,2.06A3.21,3.21,0,0,1,118.26,82.83Z"/><path class="cls-3" d="M98,111.83a2,2,0,0,0-2,2v15.64a2,2,0,0,0,3.91,0V113.78A2,2,0,0,0,98,111.83Z"/><path class="cls-3" d="M98,135.28a2,2,0,0,0-2,2v5.86a2,2,0,0,0,3.91,0v-5.86A2,2,0,0,0,98,135.28Z"/><path class="cls-3" d="M107.79,111.83a2,2,0,0,0-2,2v9.77a2,2,0,1,0,3.91,0v-9.77A2,2,0,0,0,107.79,111.83Z"/><path class="cls-3" d="M107.79,129.42a2,2,0,0,0-2,2v3.91a2,2,0,0,0,3.91,0v-3.91A2,2,0,0,0,107.79,129.42Z"/><path class="cls-3" d="M88.25,111.83a2,2,0,0,0-2,2v9.77a2,2,0,1,0,3.91,0v-9.77A2,2,0,0,0,88.25,111.83Z"/><path class="cls-3" d="M88.25,129.42a2,2,0,0,0-2,2v3.91a2,2,0,0,0,3.91,0v-3.91A2,2,0,0,0,88.25,129.42Z"/><path class="cls-3" d="M96.8,73.82a2,2,0,0,0-2.54,1.09,5.83,5.83,0,0,1-5.44,3.69H86.29a2,2,0,1,0,0,3.91h2.53a9.73,9.73,0,0,0,9.07-6.14A2,2,0,0,0,96.8,73.82Z"/></svg>