<svg id="Capa_1" data-name="Capa 1" xmlns="http://www.w3.org/2000/svg" viewBox="0 0 200 200"><defs><style>.cls-1{fill:#181816;}.cls-2{fill:#3b3b3b;}.cls-3{fill:#fff;}</style></defs><title>icons</title><path class="cls-1" d="M117.16,185.06c-17.38,0-17.38,5-34.76,5-38.08,0-66.76-33.45-66.76-71.53,0-17.38-.45-17.38-.45-34.76,0-38.08,29.12-69.29,67.2-69.29h34.76c38.08,0,69.45,31.2,69.45,69.28,0,17.38,2.65,17.38,2.65,34.76C189.25,156.59,155.24,185.06,117.16,185.06Z"/><path class="cls-2" d="M112.72,180.56c-17.38,0-17.38,5-34.76,5C39.87,185.54,11.2,152.1,11.2,114c0-17.38-.45-17.38-.45-34.76C10.75,41.17,39.87,10,78,10h34.76c38.08,0,69.45,31.2,69.45,69.28,0,17.38,2.65,17.38,2.65,34.76C184.81,152.1,150.8,180.56,112.72,180.56Z"/><circle class="cls-3" cx="115.1" cy="69.46" r="1.68"/><circle class="cls-3" cx="86.51" cy="133.37" r="1.68"/><circle class="cls-3" cx="62.97" cy="109.83" r="1.68"/><circle class="cls-3" cx="118.47" cy="82.92" r="1.68"/><circle class="cls-3" cx="125.19" cy="79.55" r="1.68"/><circle class="cls-3" cx="116.78" cy="91.33" r="1.68"/><path class="cls-3" d="M108.38,71.14a5,5,0,1,0,5,5A5.05,5.05,0,0,0,108.38,71.14Zm0,6.73a1.68,1.68,0,1,1,1.68-1.68A1.68,1.68,0,0,1,108.38,77.87Z"/><path class="cls-3" d="M65.14,128.82l-3.36,3.36a1.68,1.68,0,1,0,2.38,2.38l3.36-3.36a1.68,1.68,0,1,0-2.38-2.38Z"/><path class="cls-3" d="M91.06,119.42l3.36-3.36a1.68,1.68,0,1,0-2.38-2.38L88.69,117a1.68,1.68,0,1,0,2.38,2.38Z"/><path class="cls-3" d="M80.28,113.68,70.19,123.77a1.68,1.68,0,1,0,2.38,2.38l10.09-10.09a1.68,1.68,0,0,0-2.38-2.38Z"/><path class="cls-3" d="M99.62,94.34l-14.3,14.3A1.68,1.68,0,1,0,87.7,111L102,96.72a1.68,1.68,0,0,0-2.38-2.38Z"/><path class="cls-3" d="M97.1,120.41l-6.73,6.73a1.68,1.68,0,1,0,2.38,2.38l6.73-6.73a1.68,1.68,0,0,0-2.38-2.38Z"/><path class="cls-3" d="M113.91,103.59l-11.77,11.77a1.68,1.68,0,1,0,2.38,2.38L116.29,106a1.68,1.68,0,0,0-2.38-2.38Z"/><path class="cls-3" d="M75.93,96.86a1.68,1.68,0,0,0-2.38,0l-6.73,6.73A1.68,1.68,0,1,0,69.2,106l6.73-6.73A1.68,1.68,0,0,0,75.93,96.86Z"/><path class="cls-3" d="M79.78,94.69A1.68,1.68,0,0,0,81,94.2L92.75,82.42A1.68,1.68,0,1,0,90.37,80L78.6,91.82a1.68,1.68,0,0,0,1.19,2.87Z"/><path class="cls-3" d="M97.1,111a1.68,1.68,0,0,0,2.38,0l6.73-6.73a1.68,1.68,0,0,0-2.38-2.38l-6.73,6.73A1.68,1.68,0,0,0,97.1,111Z"/><path class="cls-3" d="M80.28,101.91l-3.36,3.36a1.68,1.68,0,1,0,2.38,2.38l3.36-3.36a1.68,1.68,0,0,0-2.38-2.38Z"/><path class="cls-3" d="M92.05,90.14l-6.73,6.73a1.68,1.68,0,1,0,2.38,2.38l6.73-6.73a1.68,1.68,0,0,0-2.38-2.38Z"/><path class="cls-3" d="M135.25,80.12a20.19,20.19,0,0,0-40.32.13,7.58,7.58,0,0,0,6.32,7.86,8.29,8.29,0,0,1,7,7,7.62,7.62,0,0,0,7.57,6.33h.43a20.18,20.18,0,0,0,19-21.28Zm-8.26,13A16.79,16.79,0,0,1,116,98a4.25,4.25,0,0,1-4.48-3.46,11.65,11.65,0,0,0-9.82-9.8,4.24,4.24,0,0,1-3.45-4.37,16.85,16.85,0,0,1,7-12.86,16.59,16.59,0,0,1,9.74-3.09A16.8,16.8,0,0,1,127,93.15Z"/></svg>