<svg id="Capa_1" data-name="Capa 1" xmlns="http://www.w3.org/2000/svg" viewBox="0 0 200 200"><defs><style>.cls-1{fill:#4b84ab;}.cls-2{fill:#61aaea;}.cls-3{fill:#fff;}</style></defs><title>icons</title><path class="cls-1" d="M117.16,185.06c-17.38,0-17.38,5-34.76,5-38.08,0-66.76-33.45-66.76-71.53,0-17.38-.45-17.38-.45-34.76,0-38.08,29.12-69.29,67.2-69.29h34.76c38.08,0,69.45,31.2,69.45,69.28,0,17.38,2.65,17.38,2.65,34.76C189.25,156.59,155.24,185.06,117.16,185.06Z"/><path class="cls-2" d="M112.72,180.56c-17.38,0-17.38,5-34.76,5C39.87,185.54,11.2,152.1,11.2,114c0-17.38-.45-17.38-.45-34.76C10.75,41.17,39.87,10,78,10h34.76c38.08,0,69.45,31.2,69.45,69.28,0,17.38,2.65,17.38,2.65,34.76C184.81,152.1,150.8,180.56,112.72,180.56Z"/><path class="cls-3" d="M99.77,125.68c-25.34,0-48.06-18.14-48.06-23.58S74.43,78.53,99.77,78.53c25.58,0,48.51,18.14,48.51,23.58S125.35,125.68,99.77,125.68ZM54.9,102.11c.82,3,19.66,20.4,44.87,20.4s44.44-17.42,45.32-20.4c-.88-3-20-20.4-45.32-20.4S55.73,99.15,54.9,102.11Zm90.21.08Z"/><path class="cls-3" d="M102.27,108.1A270,270,0,0,1,53,103.66a1.59,1.59,0,0,1,.65-3.11c.47.1,47.81,9.79,92.73,0a1.59,1.59,0,1,1,.68,3.1A212.59,212.59,0,0,1,102.27,108.1Z"/><ellipse class="cls-3" cx="127.46" cy="94.78" rx="2.14" ry="1.91"/><ellipse class="cls-3" cx="75.49" cy="94.78" rx="2.14" ry="1.91"/><ellipse class="cls-3" cx="101.47" cy="94.78" rx="4.3" ry="3.83"/></svg>