<svg xmlns="http://www.w3.org/2000/svg" xmlns:xlink="http://www.w3.org/1999/xlink" viewBox="0 0 645.69 619.71"><defs><style>.cls-1{isolation:isolate;}.cls-2{fill:url(#radial-gradient);}.cls-3{fill:#7fcd5b;}.cls-4{fill:#ebefee;}.cls-5{fill:#d9d9d9;mix-blend-mode:multiply;}.cls-6{fill:#adadad;mix-blend-mode:soft-light;}.cls-7{fill:url(#radial-gradient-2);}.cls-10,.cls-11,.cls-8{mix-blend-mode:color-burn;}.cls-9{fill:#e1e1e1;}.cls-10{fill:#d6d7de;}.cls-11{fill:#b8babf;}.cls-12{fill:#fff;}.cls-13{fill:#dd902f;}.cls-14{fill:#61aaea;}.cls-15{fill:#f4d79c;}.cls-16{fill:#d1bd96;}.cls-17,.cls-24{fill:#383838;}.cls-18{fill:#2c2c2b;}.cls-19{fill:#ddd;opacity:0.4;}.cls-20{fill:#5ba1d1;}.cls-21{fill:none;stroke:#000;stroke-linecap:round;stroke-linejoin:round;stroke-width:0.47px;}.cls-22{fill:#c98132;}.cls-23{fill:#314294;}.cls-24{stroke:#272425;stroke-miterlimit:10;stroke-width:0.61px;}.cls-25{fill:#c3c3c3;}.cls-26{fill:#afafaf;}.cls-27{fill:#a0a0a0;}.cls-28{fill:#272425;}.cls-29{fill:#e4e4e4;}.cls-30{fill:#7eadb5;}.cls-30,.cls-31,.cls-32,.cls-33,.cls-34,.cls-35{fill-rule:evenodd;}.cls-31{fill:#454a4d;}.cls-32{fill:#9ed6dd;}.cls-33{fill:#353a3c;}.cls-34{fill:#edc72f;}.cls-35{fill:#fdf9dc;}</style><radialGradient id="radial-gradient" cx="191.01" cy="-29.37" r="154.09" gradientTransform="translate(322.77 355.88)" gradientUnits="userSpaceOnUse"><stop offset="0" stop-color="#9de0f0"/><stop offset="0.21" stop-color="#95d6ef"/><stop offset="0.57" stop-color="#80bcec"/><stop offset="1" stop-color="#6194e7"/></radialGradient><radialGradient id="radial-gradient-2" cx="164.81" cy="121.88" r="433.17" gradientUnits="userSpaceOnUse"><stop offset="0" stop-color="#da8f45"/><stop offset="1" stop-color="#ad3d1a"/></radialGradient></defs><title>logo</title><g class="cls-1"><g id="Capa_1" data-name="Capa 1"><circle class="cls-2" cx="542.25" cy="361.76" r="108.07" transform="translate(-64.88 102.75) rotate(-11.27)"/><path class="cls-3" d="M450.82,304.13c-.5,3.5-1.35,6.61-2.8,8-3.76,3.54-10.11,26.29,6.57,37.21,0,0-10.34-20.65-1.6-16.43,7.51,3.62,7.46,9.1,12.44,21.8,2.84,7.25,29.73,23.42,37,18.29,2-1.38-.49-12.14-11.83-15.75-2.15-.68-6-1.59-9-11.34-1.55-5,1.58-9.53,7.38-9.84s6.06-1.18,11.59-.05,10.54-11.32,12.1-11.91,10.1-15.13,10.48-17.44,5.41-12,4.09-15.89c-1.42-4.18-12.82-9.73-16.74-5.6s-19.22-4-20.56-3.72-10.48-2.34-14.43-4.69A108.41,108.41,0,0,0,450.82,304.13Z" transform="translate(-4.65 -10.14)"/><path class="cls-3" d="M500.18,396.1c6,13.73,19.68,9.35,34.53,19.21,2.35,1.56-3.83,35.74.44,36.18,11.59,1.18,36-46.81,31.22-71.28-3.36-17.09-9.58-25.47-25.63-28.45-7.81-1.45-30.23,15.4-38.77,18.86C495.1,373.41,497.54,390.06,500.18,396.1Z" transform="translate(-4.65 -10.14)"/><path class="cls-4" d="M530.45,273s-10,6.19-9.79,7.43,7.37,4.65,12.82,7.75,4.45,9.42,13.74,12.4S559.3,303,560,301.91s7.68-.24.57-11.71S547.24,271.6,543.46,272,530.45,273,530.45,273Z" transform="translate(-4.65 -10.14)"/><path class="cls-3" d="M612.57,292c-5.74,10-12.94,24-13.06,25s3,14.87,10.46,15.31,3.72-7.18,17,4.35-5.16,17.78,15,18.6c3.4.14,6.1.31,8.25.48a109,109,0,0,0-1.92-15,107.62,107.62,0,0,0-37-62.1C613.56,283.27,614.73,288.19,612.57,292Z" transform="translate(-4.65 -10.14)"/><path class="cls-4" d="M597.42,447.15c-2.66-2-18.4,4.63-23.61,7.6s-8.12,2.9-15.37,6.93-7.37,1.79-12.08,2.41-18.36-5-20.75-5.53-8.95,3.59-21.1,4.49a108.26,108.26,0,0,0,99.43-12.51A21.94,21.94,0,0,1,597.42,447.15Z" transform="translate(-4.65 -10.14)"/><path class="cls-5" d="M592.47,269.51A105.13,105.13,0,0,1,469.93,438,105.13,105.13,0,1,0,592.47,269.51Z" transform="translate(-4.65 -10.14)"/><circle class="cls-6" cx="517.31" cy="349.93" r="70.6" transform="translate(-63.05 97.65) rotate(-11.27)"/><circle class="cls-7" cx="250.01" cy="250.01" r="250.01"/><g class="cls-8"><path class="cls-9" d="M405,268.78c-.62-1.24.62-3.71,0-4.33-1.85-1.24-5.56,0-7.42-1.24-.62-.62.62-3.09,0-4.33-5.56-6.8-14.21-4.94-20.39-11.74-3.09-3.71-9.27-4.94-14.21-4.94-14.83-1.24-29.66,1.85-44.49-1.85-14.21-3.09-33.37-14.83-34.6-30.89H219.66c-21-16.68-20.39-45.1-19.77-69.2h-2.47V137.8c-24.1-.62-50,4.94-68.58-13-11.12-11.12-17.3-29-11.74-43.25,2.47-6.18,2.47-9.27,4.33-13,6.07-10.73,12.84-20.76,20-31.41A250.4,250.4,0,0,0,14.13,328.56c13-.84,26.2-3.55,39.94-6.64,19.16-3.71,37.69,0,56.85-1.85,11.12-1.24,20.39-8.65,32.13-12.36,3.71-1.23,6.18-4.94,9.88-6.18,10.5-4.33,19.77-8.65,29.66-12.36,13.59-5.56,30.27-6.8,40.78-1.24,9.27,5.56,16.68,16.68,26.57,24.71,9.27,8,18.54,14.21,26.57,22.86,10.5,11.12,22.24,9.27,31.51,6.18,12.36-4.94,17.3-21.62,29-30.27,10.5-8,21-3.09,30.89-5.56v-2.47c3.09-.62,6.8.62,9.89-.62,4.32-1.85,8-4.94,12.36-4.33.62,0,1.85-1.85,2.47-2.47,4.33-.62,8.65,1.23,12.36-.62.62,0-.62-3.09,0-4.33h2.47a133.78,133.78,0,0,0,0-22.24Z" transform="translate(-4.65 -10.14)"/><path class="cls-9" d="M402.55,375.68c-10.5,3.71-21.63,7.41-31.51,13C352.5,398.54,334,406,317.9,421.4c-3.71,3.71-9.27,4.94-14.21,8-36.45,26-69.2,60.55-116.16,55.61a108,108,0,0,1-48.81-17.3c-22-13.89-43.45-21.82-65.38-35.47a249.3,249.3,0,0,0,181.33,77.89c100,0,186.37-58.77,226.33-143.67a453.35,453.35,0,0,0-46.31,2.39C424.18,369.5,413.68,372.59,402.55,375.68Z" transform="translate(-4.65 -10.14)"/><path class="cls-9" d="M339.51,24.92a91.7,91.7,0,0,1-8.64,11.55c-8.65,9.27-9.27,21.63-13.59,32.75-6.8,17.3,1.24,35.84,18.54,46.34,12.36,6.8,26.57,6.18,39.54,10.5,1.24.62.62,3.71,1.24,6.8,1.85,17.92,9.27,34.6,26.57,41.4a38.1,38.1,0,0,0,23.48,0c20-7.27,40.29-6.52,60.45-6.35A250.76,250.76,0,0,0,339.51,24.92Z" transform="translate(-4.65 -10.14)"/></g><circle class="cls-10" cx="443.83" cy="264.63" r="11.96"/><circle class="cls-10" cx="214.12" cy="57.25" r="14.36"/><circle class="cls-10" cx="326.58" cy="180.08" r="27.12"/><circle class="cls-11" cx="117.6" cy="372.31" r="27.12"/><circle class="cls-11" cx="59.38" cy="182.47" r="15.15"/><circle class="cls-11" cx="204.54" cy="237.51" r="35.89"/><circle class="cls-11" cx="326.58" cy="398.63" r="23.93"/><path class="cls-12" d="M222.67,206.93s6.82-6.38,7.44-16-1.21-18.55-4.57-25.29a38.09,38.09,0,0,0-8.11-10.92c-.26-.24,1.23,3.48,0,7.19s-3.37,6.53-7.3,3.68c.06,0-1.81,12.27.76,21.81s4.45,15,4.45,15,1.59-3.49,2.88-2.37S221.4,206.31,222.67,206.93Z" transform="translate(-4.65 -10.14)"/><path class="cls-12" d="M268.89,199.24c1.13.59.31-6.45.82-7.27a1.7,1.7,0,0,1,2.33-.84c.92.54,1.77.84,1.77-1.15s-.43-12.56-2-19.59a86.73,86.73,0,0,0-5.19-14.85s-2.58,3.38-4.59,2.25a10,10,0,0,1-4.15-4.54c-.54-1.42-2-4.52-2-4.52a42.26,42.26,0,0,0-2.72,26.69C256.54,190.32,261.4,195.31,268.89,199.24Z" transform="translate(-4.65 -10.14)"/><path class="cls-13" d="M370.61,192s3.79,3.24,5.74,2,.64-3.16-.94-5.35-44.35-65.85-44.35-65.85-1.56.11-1.69,1a3.29,3.29,0,0,0,.53,2l14.12,22c.42.65,1.77-.19,2.6,1.36s-.7,1.59-.39,2.09C358.1,169.8,370.61,192,370.61,192Z" transform="translate(-4.65 -10.14)"/><path class="cls-14" d="M334.48,114.43a7.72,7.72,0,1,1-10.61-2.55A7.72,7.72,0,0,1,334.48,114.43Z" transform="translate(-4.65 -10.14)"/><path d="M374.3,188.23c-1.48-2.07-38.85-58-42.73-63.75a8.56,8.56,0,0,0-6.1-14.6,8.58,8.58,0,0,0-7.31,13.07,8.5,8.5,0,0,0,7.33,4.1,8.69,8.69,0,0,0,2.11-.28l42,65.26c.2.32,2,3.16,4.16,3.16h0a2.44,2.44,0,0,0,1.27-.36,2.7,2.7,0,0,0,1.34-1.77C376.62,191.6,375.62,190.08,374.3,188.23ZM319.64,122a6.85,6.85,0,1,1,11.69-7.15,6.78,6.78,0,0,1,.83,5.18,6.85,6.85,0,0,1-12.51,2Zm55,70.68c0,.15-.11.38-.54.63a.64.64,0,0,1-.36.11c-.86,0-2.09-1.37-2.71-2.36l-41.75-64.93.49-.26.49-.3c4.81,7.19,41.14,61.53,42.64,63.63C373.7,190.36,374.8,191.9,374.63,192.72Z" transform="translate(-4.65 -10.14)"/><path class="cls-15" d="M298.88,231.39s27.83-28.67,32.35-34.86,13.22-16.79,13.22-16.79a23,23,0,0,0,8.42-1.76c4.24-1.83,11.72-12.28,11.89-12.6s2.31-3.31.62-4.34-3.11-2.44-4.54-.29c0,0,1.32-2.37-1.42-4.25s-3.74-1.53-3.74-1.53a2.66,2.66,0,0,0-1.32-2.94c-1.82-1-1.57-1.54-3.15-.59a9.21,9.21,0,0,0-2.5,2.2s-3.53-3.09-5.38-2.13-3.65,3.53-6.09,4.12-6.3,1.33-6.32,3.09A18.74,18.74,0,0,0,334.33,169s4.15.73-6.43,12.94S297,213.27,293.7,216.22s-4.27,2.53-3.82,5.56S298.88,231.39,298.88,231.39Z" transform="translate(-4.65 -10.14)"/><path class="cls-16" d="M364.86,165.05c.13-.25,2.3-2.85.33-4.13-2.13,1.28-4,5.31-5.58,7.24-2.51,3.11-8.92,8.5-14.39,7.25-2.45-.57-4.78,3.13-10.7,11.36s-18.72,19.08-28.77,32.09c-6.33,8.2-4.77,4.81-8.43,9.22.7,4,5.1-.62,5.1-.62s24.28-24.77,28.81-31,13.22-16.79,13.22-16.79a23,23,0,0,0,8.42-1.76C357.1,176.15,364.7,165.37,364.86,165.05Z" transform="translate(-4.65 -10.14)"/><path d="M365.75,160.5A4.68,4.68,0,0,0,360.6,157a3.65,3.65,0,0,0,0-.91,3.81,3.81,0,0,0-1.78-2.66,4,4,0,0,0-3.15-1s0,0,0-.07a3.44,3.44,0,0,0-1.82-2.84c-3.29-2.19-4.63-.77-6.44,1.51-.69-.47-1.26-.93-1.77-1.34a9,9,0,0,0-2-1.32c-1.42-.59-2.6.19-4.56,1.5-.75.49-1.65,1.09-2.76,1.75a17.38,17.38,0,0,1-3.91,1.72,5.11,5.11,0,0,0-3.24,2.13c-1.54,2.74,2.26,9.8,3.38,11.77a15.19,15.19,0,0,1-1.57,4.23c-1,1.93-4.16,7.37-12.37,16.44-6.91,7.64-30.51,28.76-30.75,29a.9.9,0,0,0-.25.91l8.39,15.89a.87.87,0,0,0,.66.59h.17a.87.87,0,0,0,.67-.31c1.72-2,39.61-45.68,46.31-55.54a22.12,22.12,0,0,0,9.35-1.68c5.1-2.15,9-9.53,9.45-10.45C364.54,164.19,366,162.33,365.75,160.5ZM359.3,160c1-1.05,1.55-1.46,2.09-1.46a3,3,0,0,1,1.59.7,2.18,2.18,0,0,1,1.05,1.44c.15,1.37-1.63,3.35-3.53,5.45l-.22.26c-1.54,1.71-2.81,2.55-3.86,2.55a3.16,3.16,0,0,1-2.27-1.3c-.69-.77-.32-1.7.91-3.16a17.29,17.29,0,0,0,1.39-1.39l.22-.24,1.25-1.42C358.38,161,358.84,160.51,359.3,160Zm-1.44-5.21a2.14,2.14,0,0,1,1,1.44c.12,1-.91,2.46-2.25,4l-.63.65c-.76.77-1.5,1.54-2.15,2.28a4.7,4.7,0,0,1-2.66,1.34A3,3,0,0,1,349,163.2a.88.88,0,0,1-.28-.73,1.59,1.59,0,0,1,.5-.85,8.32,8.32,0,0,0,1.58-.09c2.31-.37,4.13-1.62,4.33-2.95a4.06,4.06,0,0,0-.86-3.17C355.81,153.82,356.37,153.74,357.87,154.8Zm-4.94-3.85c.7.47,1.06.94,1.06,1.39a2.64,2.64,0,0,1-1.1,1.67l-.29-.15a14.74,14.74,0,0,0-1.68-1c-.67-.42-1.33-.85-1.77-1.17C350.7,149.77,351,149.69,352.93,150.95Zm-.35,24.18a20.45,20.45,0,0,1-8.87,1.54,1,1,0,0,0-1,.48c-5.45,8.26-38.93,46.79-45.39,54.49l-7.73-13.86c3.22-2.9,24-21.59,30.46-28.72,8.34-9.22,11.6-14.83,12.62-16.82a14.32,14.32,0,0,0,1.79-5.16.87.87,0,0,0-.11-.48c-2-3.38-4.36-8.81-3.54-10.25.48-.76,1-1,2.28-1.37a19.17,19.17,0,0,0,4.25-1.88c1.15-.68,2.06-1.29,2.83-1.8,1.65-1.09,2.4-1.57,2.93-1.34a7.84,7.84,0,0,1,1.55,1.08,20.21,20.21,0,0,0,4.69,3c.36.16.65.31.94.47s.78.46,1.15.66c2,1.32,2.18,2.42,2.07,3.2-.06.32-1.13,1.22-3,1.49-1.38.21-4.84.26-6.93-3.9a.87.87,0,0,0-.78-.47,1,1,0,0,0-.82.47,8.57,8.57,0,0,1-4.13,2.88.87.87,0,0,0,.44,1.68,9.62,9.62,0,0,0,4.34-2.71,8.34,8.34,0,0,0,4.71,3.58,2.7,2.7,0,0,0-.27.9,2.62,2.62,0,0,0,.67,2.07,4.7,4.7,0,0,0,3.48,1.92h.06a4.07,4.07,0,0,0,.87-.11,2.77,2.77,0,0,0,.72,2.65,4.78,4.78,0,0,0,3.56,1.87,4.34,4.34,0,0,0,1.68-.36A15,15,0,0,1,352.58,175.13Z" transform="translate(-4.65 -10.14)"/><path class="cls-15" d="M224,235.59c.18,1.28,6.91,17.76,20.09,16.86s14.41-5.79,16.1-9.69c2.15-4.93,1.32-7.9,1.32-7.9s-7.34,1-7.7-.24,2.51-7.75,2.51-7.75-3.72,2.84-11,1.69-9.87-3.88-9.87-3.88l.69,9.52S223.82,234.5,224,235.59Z" transform="translate(-4.65 -10.14)"/><path class="cls-16" d="M258.58,235.63c-.21-.05-2.6.14-3.75.23a1.69,1.69,0,0,1-1.87-2.23,24.14,24.14,0,0,1,1.56-4.61l-4.13,1.14s-.23,5.06-.23,5.74,1,1,2.76,1.17,2.88,1.1,3.06,2c1.25,6.25-5.25,9.48-6,9.74-7.57,2.54-14.42,1.27-17.7-1.91a29.66,29.66,0,0,1-6.82-10.44l-.68,0s-1.61-1.28-1.45-.56a7.21,7.21,0,0,0,.77,1.7s5.34,15.61,17.17,14.77,12.94-3,14.86-4.93a17,17,0,0,0,3.56-7.08c.31-1.49,1-5.63,1-5.63Z" transform="translate(-4.65 -10.14)"/><path class="cls-17" d="M204.13,340s9.25-27.17,8.77-34.63-3.82-37.79-5.16-39.54-8.75,3.24-8.75,3.24-4.71-1.76-9.29-8-5.56-7.29-5.56-7.29c4.52-1.93,35.9-16.49,40-18.56.84,1.78,3.44,17.73,20.73,17s15.07-14.06,17.23-16.94c1-1.38,16.87-10.8,28.43-18.19l13.26,15.48S271,267.33,270.59,299.66c-.27,19,16.94,40.35,16.94,40.35a95.67,95.67,0,0,1-16,6.74,82.14,82.14,0,0,1-22.82,4.13C228.23,351.36,204.13,340,204.13,340Z" transform="translate(-4.65 -10.14)"/><path class="cls-18" d="M265.72,288.6c-.45-9.24,12.52-31,15.13-34.74s16.63-27.38,16.63-27.38l6.56,6.17s-22.12,26.16-27,40.26-10.74,32.54-1.47,48.52S288.15,341,288.15,341a79.54,79.54,0,0,1-30.52,7.58A166.76,166.76,0,0,0,265.72,288.6Z" transform="translate(-4.65 -10.14)"/><path class="cls-13" d="M218.9,204.59a8.59,8.59,0,0,1,1.64,4.24c.06,1.55-.06,2.84-.75,2.6s-1.71-1.79-2.13-2.44a4.16,4.16,0,0,1-.7-2.59C217.08,205.53,218.22,203.8,218.9,204.59Z" transform="translate(-4.65 -10.14)"/><path class="cls-14" d="M271.39,195.66a5.87,5.87,0,0,0-.27,3.68c.42,1.19.93,2.12,1.51,1.72a6,6,0,0,0,1.27-2.48,2.8,2.8,0,0,0-.11-2.17C273.41,195.81,271.8,194.86,271.39,195.66Z" transform="translate(-4.65 -10.14)"/><path class="cls-14" d="M273.16,205.81C266,203,260,199,255.89,192.94a30.65,30.65,0,0,1-5-12.2c-.32-1.83-.51-3.7-.69-5.51v-.14a35.58,35.58,0,0,1,.45-12.46c.72-2.78,1.58-6.07,2.61-9.39,1.33-4.36.38-7.72-2.91-10.28a9.29,9.29,0,0,1-1.48-1.57,1.26,1.26,0,0,1-.29-1.17.9.9,0,0,1,.42-.5c-1-.24-1.94-.42-2.85-.54l-.12,0-.51-.06-.26,0-.41,0-.38,0-.29,0-.65,0a33.85,33.85,0,0,0-7.72.65l17.73,91.06c0-.05,2.34-.94,2.56-1,.85-.36,1.7-.75,2.52-1.16a30.74,30.74,0,0,0,4.32-3.09,28.89,28.89,0,0,0,4.15-3.68,27.44,27.44,0,0,0,5.2-8.74c.38-1,.72-2,1-3,.2-.68.38-1.38.58-2.06C274.38,206.12,273.71,206,273.16,205.81Z" transform="translate(-4.65 -10.14)"/><path class="cls-14" d="M260.67,151.81c.65,1.34,2.82,1.39,2.82-.33a7.19,7.19,0,0,0-1.14-3.23,20.43,20.43,0,0,0-4.75-4.7c.31.88.67,1.75,1,2.61.22.53.86,2.12.65,1.59" transform="translate(-4.65 -10.14)"/><path class="cls-19" d="M255.79,150.18a58.1,58.1,0,0,0-2.07,25.6,31.54,31.54,0,0,0,8.51,16.82,52.83,52.83,0,0,0,5.79,5.15,57.37,57.37,0,0,1-11.61-23.34C253.42,160.77,255.21,152.46,255.79,150.18Z" transform="translate(-4.65 -10.14)"/><path class="cls-20" d="M252.64,228.77l.36,1.89a26.14,26.14,0,0,0,5.19-1.8A28.88,28.88,0,0,0,274,207.57c.22-2.09-1.2-1.57-1.74-1.79a36.24,36.24,0,0,1-17.06-13.32,30.78,30.78,0,0,1-5-12.21c-.31-1.82-.5-3.7-.69-5.5v-.15a35.31,35.31,0,0,1,.46-12.44c.72-2.79,1.58-6.08,2.6-9.4,1.33-4.35.38-7.71-2.91-10.29a9.19,9.19,0,0,1-1.47-1.56,1.25,1.25,0,0,1-.29-1.17.89.89,0,0,1,.43-.51c-.83-.2-1.62-.35-2.37-.47-.36,1.11.27,2.9,1.29,4.09,1.57,1.84,3.61,4.47,3.64,7.54s-3.38,11.2-4.47,18.35c-1.28,8.36,1.65,18.32,5.33,24.45,6.12,10.21,19.75,14.36,19.75,14.36a34.51,34.51,0,0,1-9.14,15.91C259.11,226.69,254.52,228,252.64,228.77Z" transform="translate(-4.65 -10.14)"/><path class="cls-13" d="M278.58,180.92a84.72,84.72,0,0,0-2.12-11.6c-1.91-7.33-6-18.3-11.82-23.31-.72-.4-2.11-1.26-2.66-1s.87,2.14,1.22,2.79c.62,1.14,1.36,2.26,1,3.63s-1.42,2.27-2.64,1.51c-1-.63-1.7-2.38-2.1-3.44-.83-2.17-1.41-4.63-2.58-6.64a.67.67,0,0,0-.07-.12,6.86,6.86,0,0,0-5.21-3.76c-1.09-.1-3.31-.29-4.21.25a5.44,5.44,0,0,0,1.29,1.45c3.65,2.85,3.5,6.06,2,10.84-1,3.3-4.73,13-3.61,24.71a31.88,31.88,0,0,0,5.29,15,33.81,33.81,0,0,0,5.83,6.55c5.53,4.73,14.59,7.38,15.55,7.44a.88.88,0,0,0,.3,0,1.78,1.78,0,0,0-.12-.58c-.32-1-2.58-5.7-2.81-7.74-.08-.68-.06-1.86.51-2.1a1.45,1.45,0,0,1,2,.84c.53,1.11,1.23,5.47,1.79,6.13a1.55,1.55,0,0,0,2.32.05C278.54,201.12,279.35,187.74,278.58,180.92Zm-4.85,11-1.34-.79a2.06,2.06,0,0,0-1-.36c-2.62.14-1.7,8.26-2.13,8.47s-1.36-.37-1.67-.56a31.1,31.1,0,0,1-3.37-2.45,29,29,0,0,1-3.09-2.95,32,32,0,0,1-7.37-14.76,57.67,57.67,0,0,1-1.32-14A39.16,39.16,0,0,1,255,150.37a9.45,9.45,0,0,1,.51-1c.11-.19.23-.41.36-.65l.52-1,.33,1.06c.13.42.25.79.35,1.15.21.68.39,1.29.6,1.86.88,2.5,1.8,4.33,3.36,5.34,3.64,2.36,5.94-1.63,5.94-1.63l.29.59.23.47c.14.28.28.54.41.81a63.7,63.7,0,0,1,4.26,13C273.09,174.58,273.73,191.92,273.73,191.92Z" transform="translate(-4.65 -10.14)"/><path class="cls-21" d="M251.06,229.69" transform="translate(-4.65 -10.14)"/><path class="cls-21" d="M234.63,138.2" transform="translate(-4.65 -10.14)"/><path class="cls-13" d="M224.53,214.52a36.21,36.21,0,0,0,11.58-18.28,30.5,30.5,0,0,0,.56-13.17c-.32-1.82-.76-3.65-1.2-5.41l0-.14a35.66,35.66,0,0,0-4.63-11.57c-1.61-2.37-3.53-5.18-5.61-8-2.73-3.65-3-7.14-.73-10.66a9.45,9.45,0,0,0,.86-2,1.27,1.27,0,0,0-.12-1.21.91.91,0,0,0-.57-.33c.86-.56,1.7-1,2.49-1.47l.11-.05.46-.24.24-.11.38-.18.34-.16.27-.12.59-.26a31.75,31.75,0,0,1,7.74-1.89l16.31,91.31c-8,0-18.87-1.88-24.71-7.74-.27-.28-.55-.56-.82-.87l-.28-.29c-.18-.2-.36-.39-.53-.61s-.22-.24-.31-.37-.33-.38-.49-.58l-.32-.39c-.16-.19-.31-.4-.46-.59l-.32-.42c-.16-.2-.31-.41-.46-.62l-.3-.41-.48-.7-.26-.38c-.22-.33-.44-.67-.67-1l0-.09A9.21,9.21,0,0,0,224.53,214.52Z" transform="translate(-4.65 -10.14)"/><path class="cls-22" d="M251,228.37l.59,1.89c-10.29.48-18.67-2.52-24.5-8.39-.28-.28-.55-.56-.82-.86-.09-.09-.18-.19-.27-.29s-.36-.4-.54-.61l-.31-.36-.49-.57-.33-.41c-.15-.19-.3-.39-.46-.59l-.33-.41c-.14-.21-.3-.41-.45-.62l-.3-.42c-.17-.22-.32-.45-.48-.69l-.26-.38c-.23-.34-.45-.68-.67-1a.41.41,0,0,0-.05-.08,10.47,10.47,0,0,0,1.42-1,36.31,36.31,0,0,0,11.59-18.29,30.77,30.77,0,0,0,.56-13.16c-.33-1.83-.78-3.66-1.21-5.42l0-.14a35.45,35.45,0,0,0-4.63-11.57c-1.61-2.38-3.53-5.19-5.61-8-2.72-3.65-3-7.13-.73-10.66a13.74,13.74,0,0,0,.86-2l1.93-1.09a5,5,0,0,1-.37,2.6c-.94,2.23-1.9,5.42-.89,8.32s7,9.41,10.39,15.78c4,7.44,4.61,17.81,3.22,24.81-2.32,11.68-13.75,20.17-13.75,20.17a34.52,34.52,0,0,0,14,11.9C242.22,228.78,249,228.31,251,228.37Z" transform="translate(-4.65 -10.14)"/><path class="cls-13" d="M215.33,160.43a1.45,1.45,0,0,1-1.11,1.39,2.42,2.42,0,0,1-.56.09,2.25,2.25,0,0,1-2.21-1.68c-.2-1,.41-2,.65-2.95.44-1.78,1.83-3.45,3.12-5,0,.48,0,1,.05,1.43s0,.91,0,1.36,0,2.25,0,1.69" transform="translate(-4.65 -10.14)"/><path class="cls-19" d="M218.22,156.71a58.27,58.27,0,0,1,10.57,23.41,31.6,31.6,0,0,1-2.34,18.71,52.65,52.65,0,0,1-3.73,6.79,57.36,57.36,0,0,0,3.07-25.88C224,165.87,219.55,158.65,218.22,156.71Z" transform="translate(-4.65 -10.14)"/><path class="cls-21" d="M234.17,137.93" transform="translate(-4.65 -10.14)"/><path class="cls-14" d="M216.68,211.31c.28.59.52-.13.61-.43a27.18,27.18,0,0,0,.85-3.85,1.45,1.45,0,0,1,1.62-1.47c.62,0,1,1.13,1.19,1.8.47,2-.07,7.2,0,8.24a1.76,1.76,0,0,0,.08.58s.1,0,.29-.07c.89-.38,8.52-5.92,12.15-12.23a33.59,33.59,0,0,0,3.28-8.15,31.75,31.75,0,0,0-.09-15.94c-2.9-11.45-9.65-19.28-11.72-22.05-3-4-4.21-7-1.74-10.9a5.07,5.07,0,0,0,.72-1.78c-1-.2-3,.71-4,1.18a6.88,6.88,0,0,0-3.63,5.3,1.23,1.23,0,0,1,0,.14c-.42,2.28-.13,4.8-.19,7.11,0,1.14-.1,3-.83,3.95-.89,1.14-2.3.54-3-.53s-.45-2.48-.25-3.76c.12-.73.83-3,.22-3s-1.63,1.2-2.18,1.82c-3.82,6.69-3.7,15.32-3,22.87a84,84,0,0,0,1.91,11.64C210.42,198.41,213.71,205.18,216.68,211.31Zm-.88-9.46c-.27-.79-.57-1.6-.85-2.37a55.83,55.83,0,0,1-2-6.23,94.56,94.56,0,0,1-1.84-10.51,63.6,63.6,0,0,1-.36-13.66c0-.3.07-.59.11-.91l.07-.51L211,167s3.51,3,6.13-.46c1.13-1.48,1.37-3.52,1.36-6.17,0-.61,0-1.23-.07-1.95,0-.37,0-.76-.05-1.2l0-1.11.81.74.56.49a10.75,10.75,0,0,1,.82.75,39.29,39.29,0,0,1,7.19,12.43,57.57,57.57,0,0,1,3.48,13.66,32,32,0,0,1-2,16.39,28.9,28.9,0,0,1-1.91,3.81,31.32,31.32,0,0,1-2.35,3.44c-.22.28-.9,1.15-1.38,1.09s-2.34-8-4.86-7.26a2.09,2.09,0,0,0-.83.69l-1,1.19-.35-.52a2.66,2.66,0,0,0-.24-.34A3.43,3.43,0,0,1,215.8,201.84Z" transform="translate(-4.65 -10.14)"/><path d="M277.73,178a84.87,84.87,0,0,0-2.14-11.72c-1.81-7-4.68-15.66-10.93-21l-.26-.14c-1.27-.72-2.39-1.23-3.13-.84a1,1,0,0,0-.35.32c-1.1-.89-2.33-1.79-3.14-2.39l-.69-.51a.79.79,0,0,0-.31-.2.56.56,0,0,0-.14,0,7.38,7.38,0,0,0-5.29-3.32c-.48,0-1.17-.1-1.87-.11v0c-.23-.09-5.64-2.22-15-.92-8.55,1.17-13.28,5.14-14.23,6-.63.22-1.27.49-1.88.77a7.38,7.38,0,0,0-3.85,4.94s-.1,0-.13,0a.91.91,0,0,0-.23.3c-.07.12-.25.38-.47.72-.57.84-1.41,2.1-2.15,3.3a1.23,1.23,0,0,0-.6-.21c-.83,0-1.59.81-2.49,1.86l-.29.36c-4,7-3.76,16.14-3.11,23.32A84.87,84.87,0,0,0,207,190.33c1.69,7.17,5.22,15.23,7.89,20.72a1,1,0,0,0,.91.66q.81,0,1.14-1.22c.06-.2.1-.44.16-.67.87,1.64,1.8,3.23,1.86,3.32s.06.06.1.09c0,.35,0,.63,0,.8a2.76,2.76,0,0,0,.11.75.73.73,0,0,0,0,.12.77.77,0,0,0,.63.46h.1a1.38,1.38,0,0,0,.57-.13l.22-.11c.75,1.29,9.54,15.71,25.69,15.71a28.63,28.63,0,0,0,4.82-.42c9.74-1.67,17.33-9.87,22.58-24.41a1.26,1.26,0,0,0,.35-.07.78.78,0,0,0,.43-.67.55.55,0,0,0,0-.1,2.78,2.78,0,0,0-.15-.75c-.06-.19-.21-.54-.39-1,.16-.6.57-2.22.85-3.82l.66,1c.38.55.76.82,1.18.82a1,1,0,0,0,.95-1A110.26,110.26,0,0,0,277.73,178Zm-16.06-30.66.15.24.35.56.18.33a3.88,3.88,0,0,1,.78,2.74c-.21.87-.85,1.43-1.47,1-.83-.52-1.53-2.36-1.8-3.06s-.5-1.4-.74-2.12-.58-1.73-.93-2.59A36.17,36.17,0,0,1,261.66,147.39Zm-50.18,10,.06-.37c0-.16.08-.39.14-.64,0-.1,0-.19.05-.29a36.93,36.93,0,0,1,2.31-3.86c0,.91,0,1.84,0,2.74s0,1.52,0,2.25-.06,2.73-.66,3.48a.67.67,0,0,1-.56.31,1.61,1.61,0,0,1-1.17-.79A3.84,3.84,0,0,1,211.49,157.35Zm6,49.89c.11-.64.19-1.25.24-1.73.07-.71.4-.77.72-.78a2.57,2.57,0,0,1,.56,1.22,20.7,20.7,0,0,1,.11,4.47C218.61,209.4,218,208.2,217.54,207.24Zm3-1.64c-.16-.71-.68-2.35-2.06-2.41a2.2,2.2,0,0,0-2.28,2.17c-.1,1-.35,2.51-.6,3.75A103.86,103.86,0,0,1,208.47,190a82.82,82.82,0,0,1-1.89-11.53c-.63-7-.87-15.79,2.83-22.29l.2-.24c.16-.19.49-.56.77-.86,0,.16-.06.32-.1.47h0a.74.74,0,0,0-.07.3,1.34,1.34,0,0,1,0,.14c-.07.31-.13.58-.16.76l-.06.36a5.21,5.21,0,0,0,.43,3.95c1.06,1.61,3.18,1.95,4.25.59.81-1,.95-2.81,1-4.41,0-.76,0-1.54,0-2.32a23.4,23.4,0,0,1,.22-4.83,6.16,6.16,0,0,1,3.19-4.72,15.19,15.19,0,0,1,2.61-1,3.79,3.79,0,0,1-.27.48c-2.68,4.25-1.38,7.54,1.77,11.78l.79,1c2.67,3.45,8.25,10.64,10.81,20.75a31.16,31.16,0,0,1,.09,15.56,32.79,32.79,0,0,1-3.21,7.95c-3,5.23-8.86,9.94-11.05,11.45,0-.28,0-.62.06-1A30.62,30.62,0,0,0,220.57,205.6Zm1.31,8.72c2.69-1.91,8.15-6.54,11.09-11.65a34.19,34.19,0,0,0,3.36-8.34,32.68,32.68,0,0,0-.09-16.33c-2.65-10.42-8.35-17.78-11.08-21.31l-.77-1c-2.88-3.87-3.94-6.49-1.7-10a6.17,6.17,0,0,0,.83-2.06.78.78,0,0,0-.4-.82,27.51,27.51,0,0,1,10.87-4.1l16.22,90.4C232.11,231.71,222.32,215.11,221.88,214.32Zm29.76,14.51-16.22-90.34a35.59,35.59,0,0,1,11.05.26.77.77,0,0,0-.08.88,5.93,5.93,0,0,0,1.48,1.66c3.29,2.58,3.18,5.39,1.77,10-.1.33-.24.73-.39,1.2-1.38,4.25-4.27,13.1-3.25,23.81a32.76,32.76,0,0,0,5.42,15.4,34.62,34.62,0,0,0,6,6.71c4.74,4,12,6.63,14.88,7.38C267.37,219.26,260.42,227,251.64,228.83ZM273,201a20.78,20.78,0,0,1-1.36-4.15,4.33,4.33,0,0,1,0-1.29,1.05,1.05,0,0,1,.39-.09c.1,0,.37,0,.63.54s.51,1,.86,1.54a.16.16,0,0,1,0,.06A25.77,25.77,0,0,1,273,201Zm3.27-2.08a39.92,39.92,0,0,1-2.17-3.58,2.21,2.21,0,0,0-3-1.22c-1.15.47-1.07,2.18-1,2.9a31.14,31.14,0,0,0,2.23,6.37c.05.14.1.24.16.37a.49.49,0,0,0,.05.13l.19.43c-2.5-.67-9.67-3.13-14.27-7.06a32.64,32.64,0,0,1-5.7-6.4,31.14,31.14,0,0,1-5.15-14.67c-1-10.39,1.83-19,3.18-23.18.16-.48.3-.88.4-1.22,1.54-5.06,1.66-8.59-2.3-11.68a5.68,5.68,0,0,1-.44-.39,20.66,20.66,0,0,1,2.81.08,6.3,6.3,0,0,1,4.68,3.5,23.24,23.24,0,0,1,1.76,4.34c.25.75.49,1.48.76,2.19.57,1.5,1.31,3.12,2.41,3.82,1.5.94,3.36-.08,3.82-2a5.22,5.22,0,0,0-.93-3.86l-.17-.31c-.09-.17-.24-.4-.41-.67l-.08-.11a.71.71,0,0,0-.16-.27h0l-.24-.39c.37.18.77.41,1,.53l.14.06c5.79,5,8.54,13.35,10.3,20.12a82.34,82.34,0,0,1,2.1,11.49A108.39,108.39,0,0,1,276.22,198.89Z" transform="translate(-4.65 -10.14)"/><path d="M268.24,157.08c-.13-.28-.27-.55-.42-.82l-.52-1.06a.77.77,0,0,0-.67-.43.84.84,0,0,0-.7.38s-1.19,2-3,2a3.46,3.46,0,0,1-1.85-.62c-1.4-.91-2.23-2.64-3-5-.2-.55-.37-1.12-.59-1.82-.11-.36-.22-.74-.36-1.15l-.34-1.06a.74.74,0,0,0-.66-.54.76.76,0,0,0-.76.4l-.86,1.6a10.32,10.32,0,0,0-.56,1.08,39.88,39.88,0,0,0-2.63,14.4,58,58,0,0,0,1.34,14.22,32.73,32.73,0,0,0,7.55,15.12,29.66,29.66,0,0,0,3.17,3,32.58,32.58,0,0,0,3.45,2.51,3.92,3.92,0,0,0,1.84.72,1.19,1.19,0,0,0,.58-.13c.54-.27.56-.77.58-2.45,0-1.46.09-5.88,1.23-5.94a1.55,1.55,0,0,1,.59.26l1.34.78a.76.76,0,0,0,.74,0,.79.79,0,0,0,.43-.61,82.08,82.08,0,0,0-1.58-21.76A59.28,59.28,0,0,0,268.24,157.08Zm4.45,33.54-.27-.16A2.69,2.69,0,0,0,271,190c-2.6.14-2.66,4.54-2.71,7.46,0,.3,0,.63,0,.92a6.28,6.28,0,0,1-.61-.35,32.24,32.24,0,0,1-3.29-2.38,29.91,29.91,0,0,1-3-2.87,31.32,31.32,0,0,1-7.18-14.42,56.89,56.89,0,0,1-1.31-13.84,38.4,38.4,0,0,1,2.51-13.84,9.71,9.71,0,0,1,.48-.92l.15.5c.21.68.39,1.27.59,1.83.92,2.62,1.9,4.6,3.67,5.74a5,5,0,0,0,2.69.87,4.89,4.89,0,0,0,3.52-1.7c.13.25.26.49.38.74a57.47,57.47,0,0,1,4.2,12.8A84.26,84.26,0,0,1,272.69,190.61Z" transform="translate(-4.65 -10.14)"/><path d="M216.85,153.79a.77.77,0,0,0-.45.74l0,1.12c0,.43,0,.83.06,1.27,0,.67.06,1.25.06,1.84,0,2.46-.19,4.37-1.2,5.7a3,3,0,0,1-2.41,1.35,4.68,4.68,0,0,1-2.61-1,.78.78,0,0,0-.79-.13.77.77,0,0,0-.49.63l-.12,1,.77.1-.81.19c0,.27-.07.53-.1.79a63.67,63.67,0,0,0,.37,13.83,83.36,83.36,0,0,0,5.83,21,.8.8,0,0,0,.61.44.78.78,0,0,0,.7-.27l1-1.19c.32-.38.44-.44.47-.45l.11,0c1.11,0,2.52,3.77,3.05,5.19s.77,2,1.52,2.12,1.4-.7,1.95-1.39a32.31,32.31,0,0,0,2.41-3.52,29.76,29.76,0,0,0,2-3.92,32.78,32.78,0,0,0,2-16.77,58.71,58.71,0,0,0-3.52-13.85A39.87,39.87,0,0,0,219.93,156a9,9,0,0,0-.87-.82l-1.37-1.22A.76.76,0,0,0,216.85,153.79Zm1.19,2.53a6.87,6.87,0,0,1,.75.68,38.58,38.58,0,0,1,7,12.19,57,57,0,0,1,3.43,13.48,31.23,31.23,0,0,1-1.9,16,29.63,29.63,0,0,1-1.86,3.72,32.61,32.61,0,0,1-2.3,3.36c-.19.25-.34.41-.45.53-.1-.26-.22-.58-.33-.87-1.22-3.27-2.5-6.19-4.51-6.19a1.84,1.84,0,0,0-.56.08,2.77,2.77,0,0,0-1.2.93l-.19.22A82.57,82.57,0,0,1,210.72,181a61.5,61.5,0,0,1-.36-13.48c0-.24.05-.48.09-.73,0,0,0,0,0-.1a5.49,5.49,0,0,0,2.49.66,4.52,4.52,0,0,0,3.64-2c1.27-1.68,1.53-3.86,1.52-6.64,0-.6,0-1.22-.06-2,0-.14,0-.29,0-.45Z" transform="translate(-4.65 -10.14)"/><path d="M303.36,230.87,289.9,215.65a.73.73,0,0,0-.93-.13c-9.25,5.91-24.44,15.74-27.55,18.4-1.89,1-5.45.69-7,.47.5-2.18,1.14-4.93,1.21-5.17a.72.72,0,1,0-1.39-.4c-.12.4-1.27,5.43-1.41,6a.79.79,0,0,0,.1.56.71.71,0,0,0,.48.31,24.15,24.15,0,0,0,4.12.38,14.8,14.8,0,0,0,2.68-.25c-.21.6-.37,1.3-.57,2.08-1.17,4.79-2.95,12-15.78,12.61-14.25.61-17.92-11.92-18.69-15.68a28.82,28.82,0,0,0,5.06.39c3,0,5.72-.28,5.9-.29a.74.74,0,0,0,.65-.67l.47-6a.73.73,0,0,0-.67-.78.75.75,0,0,0-.77.67l-.43,5.41c-1.87.17-7.72.58-10.92-.33h-.2l-.15,0s-.05,0-.07,0-7.38,2.45-15.62,6.18-25.93,12.11-26.1,12.2a.73.73,0,0,0-.38.42.74.74,0,0,0,0,.55,70.66,70.66,0,0,0,6,9.09c4.72,6.46,9.84,6.88,10.05,6.91a.74.74,0,0,0,.43-.11c1.41-.89,5.49-3.19,7.34-3.19a.75.75,0,0,1,.45.09c1.22,1.85,5.22,30.87,5.73,38.73.47,7.23-9.34,34.49-9.44,34.77a.73.73,0,0,0,.37.91c.24.11,23.48,11,43.58,11h1.3a81.73,81.73,0,0,0,23-4.17A98.31,98.31,0,0,0,287,339.72a.73.73,0,0,0,.21-1.09c-.17-.22-17-21.33-16.78-39.89.44-31.67,32.64-66.55,33-66.9A.73.73,0,0,0,303.36,230.87Zm-34.42,67.85c-.25,17.41,13.58,36.28,16.56,40.14a98.89,98.89,0,0,1-15.15,6.28,79.76,79.76,0,0,1-22.61,4.1c-18.36.43-39.81-8.81-43.64-10.52,1.52-4.26,9.75-27.74,9.3-34.73-.38-5.86-4.42-37.42-6-39.5a1.89,1.89,0,0,0-1.61-.67c-2.38,0-6.75,2.58-7.88,3.27-1-.15-5-1.13-8.76-6.28a88.69,88.69,0,0,1-5.49-8.23C187,251,201.82,244,209,240.7c6.6-3,12.6-5.11,14.69-5.83.76,3.67,4.71,17.8,20.22,17.09,13.92-.63,15.93-8.82,17.13-13.71a9.69,9.69,0,0,1,1-2.95c.74-1,11.38-8.12,27.17-18.22l12.62,14.27C297.93,235.71,269.36,268.55,268.94,298.72Z" transform="translate(-4.65 -10.14)"/><path class="cls-23" d="M176,363.27c-.21,4-.06,10.78,2.63,11.76s35.76-.27,66.41-4.36,53.81-12.77,63.31-24,12.74-29.56,5.43-33.24c-11-5.53-35,20-49.68,23.18-8.88,1.94-23.6,2.37-50,11.36S176,363.27,176,363.27Z" transform="translate(-4.65 -10.14)"/><path d="M181.7,376.26h0c-4.86,0-5.58-.26-5.86-.36-3.25-1.2-3.36-8.38-3.13-12.55l0-.43.39-.21c.12-.06,12-6.44,38.21-15.35a219.11,219.11,0,0,1,42-10c3.13-.46,5.82-.86,8.1-1.36,6-1.31,13.84-6.61,21.42-11.72C292.17,317.94,301,312,307.7,312a8.66,8.66,0,0,1,3.92.87c2.06,1,3.47,3.17,4.08,6.16,1.6,7.82-2.48,20.25-9.26,28.29-9.53,11.27-32.79,20.12-63.81,24.27C217,375,191.68,376.26,181.7,376.26Zm-7.45-12.38c-.26,5.76.59,10,2.13,10.54.12.05,1,.28,5.31.28,9.93,0,35.2-1.27,60.72-4.68,30.64-4.1,53.53-12.75,62.81-23.74,6.52-7.71,10.44-19.55,8.93-27-.36-1.74-1.21-4-3.25-5.06a7,7,0,0,0-3.21-.7c-6.22,0-15.25,6.11-24,12-7.7,5.21-15.67,10.58-22,12-2.32.51-5,.91-8.2,1.39a216.79,216.79,0,0,0-41.7,9.95C188.42,356.81,176.49,362.72,174.26,363.88Z" transform="translate(-4.65 -10.14)"/><path class="cls-23" d="M174.74,309.54c-9.24,1.71-12,26.95.83,37.58s67.7,21.36,97.59,22.8c19.54,1.66,27.2.45,28.27-4.83s-2-8.11-2-8.11-30.52-5.95-47.23-10.53-36.1-15-45.72-22.63S187.56,307.15,174.74,309.54Z" transform="translate(-4.65 -10.14)"/><path d="M285.75,371.4h0a149.35,149.35,0,0,1-15.23-.68c-29.29-1.41-84.61-11.91-98-23-8.49-7-10.49-20.08-8.09-29.39,1.41-5.45,4.2-8.95,7.63-9.59a23,23,0,0,1,3.81-.4c10.06-.22,18,6.26,25.76,12.53l2.86,2.3c9.33,7.43,28.42,17.85,45.43,22.5,16.49,4.5,46.87,10.44,47.17,10.5l.23,0,.17.16c.13.13,3.33,3.21,2.19,8.86C298.81,369.36,294.66,371.19,285.75,371.4ZM175.87,310a23.41,23.41,0,0,0-3.56.37c-2.75.51-5.13,3.66-6.36,8.41-2.21,8.59-.33,21.24,7.56,27.74,12.76,10.52,67.88,21.21,97.1,22.62a146.44,146.44,0,0,0,15.1.68h0c8-.18,11.69-1.63,12.34-4.87a8.18,8.18,0,0,0-1.57-7.2c-3-.58-31.29-6.18-47-10.49-17.22-4.7-36.56-15.24-46-22.78q-1.43-1.14-2.87-2.32C193.09,316,185.34,309.75,175.87,310Z" transform="translate(-4.65 -10.14)"/><path class="cls-24" d="M316.15,362.59c1.08,7.62-20,12.54-23.7,7.36s1.83-11.34,9.5-12S315,354.47,316.15,362.59Z" transform="translate(-4.65 -10.14)"/><path class="cls-24" d="M153.27,371.46c0-1.6,1.36-5.29,5.76-7s16.19-3,16.54-.36,5.27,10.92,2.35,12.82S153.46,379.87,153.27,371.46Z" transform="translate(-4.65 -10.14)"/><path class="cls-25" d="M185.3,313.69c.1,1.61,28.45,2.15,65.27-.73s55.86-6,55.86-6,7.16-1.28-5.43-8.44-14.58-10.74-27.9-16-32-1.72-39.84-1.49-16,2.33-20.64,7.13-10.16,7-14.3,10.53S185.05,309.36,185.3,313.69Z" transform="translate(-4.65 -10.14)"/><path class="cls-26" d="M305.61,308.55s5.16.39-7.44-6.77-15.2-10-25.54-15.45c-3.75-2-5.35-2.85-9.81-3.18-8.64,0-16.78,1.23-21.3,1.37-7.84.23-16,2.3-20.66,7.12s-10.15,7-14.29,10.52S194,313,194.2,317.35c0,.44,2.09.78,5.8,1,11.46.22,30.58-.34,53.12-2.1C289.94,313.34,305.61,308.55,305.61,308.55Z" transform="translate(-4.65 -10.14)"/><path class="cls-27" d="M184.76,312.55S198,339.25,252.89,337c13.75-1.8,37.78-13.22,45.33-18.24a27.46,27.46,0,0,0,10.24-13.35S205.86,316.75,184.76,312.55Z" transform="translate(-4.65 -10.14)"/><path d="M297.76,296.22c-.64-.42-1.24-.8-1.77-1.15a45.26,45.26,0,0,0-5.44-2.9,57.67,57.67,0,0,1-11.12-6.53c-6.84-5.34-14.28-6.39-26.47-6.51-.94,0-1.91,0-2.88,0-16.63,0-28.11,1.61-34.12,4.81a87.78,87.78,0,0,0-12.27,8.5,44.29,44.29,0,0,1-6.54,4.64c-3.74,1.74-14.32,12-14.58,15.47a5,5,0,0,0,0,.62.08.08,0,0,0,0,0s0,0,0,0c.11,2.27,1.72,3.56,5.2,6.27,1,.8,2.22,1.72,3.6,2.86,7,5.74,23.46,14.45,36.45,15,2.77.11,7,.25,11.4.25h0c14,0,24.7-1.46,32.81-4.47,14-5.18,30.72-16.65,34.62-26.87C308,302.76,302.32,299.13,297.76,296.22Zm-100,2.18a44.91,44.91,0,0,0,6.83-4.82,87.11,87.11,0,0,1,12-8.36c5.71-3,17.27-4.63,33.42-4.63h2.86c12.12.14,19,1.1,25.58,6.2a58.78,58.78,0,0,0,11.39,6.7,47.15,47.15,0,0,1,5.26,2.81l1.79,1.16c3.07,2,8,5.1,8.39,7.43-4.84.61-40.78,5.08-63.27,6.33-20.76,1.16-49.2,1.24-56.82,1.24h-1.15C184.7,309.62,194.4,300,197.78,298.4Zm73.77,33.31c-7.95,2.95-18.52,4.39-32.3,4.39-4.4,0-8.58-.14-11.35-.26-12.66-.49-28.7-9-35.57-14.62-1.4-1.14-2.6-2.08-3.62-2.88-2.88-2.25-4.12-3.26-4.51-4.4h1.06c7.62,0,36.11-.08,56.9-1.24,21.8-1.21,56.2-5.44,62.81-6.27C300.72,316.09,284.87,326.78,271.55,331.71Z" transform="translate(-4.65 -10.14)"/><path d="M244.08,298.65c-3.05,0-5.44-1.57-5.56-3.67a3.53,3.53,0,0,1,1.67-3,7.52,7.52,0,0,1,3.93-1.29c3.26-.19,5.92,1.45,6,3.66a3.49,3.49,0,0,1-1.67,3,7.4,7.4,0,0,1-3.93,1.29Zm.54-6.52h-.42a6,6,0,0,0-3.15,1,2.22,2.22,0,0,0-1.05,1.73c.08,1.33,2.14,2.39,4.49,2.27a6.07,6.07,0,0,0,3.15-1,2.18,2.18,0,0,0,1.06-1.74C248.61,293.15,246.79,292.13,244.62,292.13Z" transform="translate(-4.65 -10.14)"/><path d="M206.59,300.18a3.34,3.34,0,0,1-2.11-.6c-1-1,0-2.89,1.45-4.38.92-.94,2.29-2,3.38-2a1.33,1.33,0,0,1,1,.36c.82.81,1.1,3.74-.47,5.37A4.43,4.43,0,0,1,206.59,300.18Zm-1-1.57a7.21,7.21,0,0,0,1,.1,3.06,3.06,0,0,0,2.14-.77,3.35,3.35,0,0,0,.49-3.29,6.4,6.4,0,0,0-2.23,1.59,4.24,4.24,0,0,0-1.42,2.39Z" transform="translate(-4.65 -10.14)"/><path d="M280.4,298.1h0a4.25,4.25,0,0,1-2.73-.9c-1.75-1.46-1.79-4.39-1.06-5.27a1.38,1.38,0,0,1,1.13-.48A6.06,6.06,0,0,1,281.1,293c1.55,1.28,2.81,3.14,1.93,4.2A3.69,3.69,0,0,1,280.4,298.1Zm-2.66-5.18a3.31,3.31,0,0,0,.88,3.13,2.76,2.76,0,0,0,1.78.55,3,3,0,0,0,1.5-.33,6.05,6.05,0,0,0-1.74-2.12A4.84,4.84,0,0,0,277.74,292.93Z" transform="translate(-4.65 -10.14)"/><path class="cls-15" d="M184.8,255.2s-23,13.36-27.58,21.54c-2.58,4.58,2.85,9.62,15.78,11.35,22,2.93,49.57,1.83,50,1.67,2.82-1,1.5-3.41,9.46-4.82s11.58,1.31,11.81-1.62c.1-1.45-11.3-2.95-11.3-2.95s11.06,2,11.31.06-10.09-3.66-10.09-3.66,11.54,2.22,11.31.05-11.25-3.12-11.25-3.12,8-.17,7.77-1.93c-.22-2-11.37-3.26-14.52.58s-6.54,6.35-8,6.35S184,277.46,183,276.88,199,269,199,269,189.63,263,184.8,255.2Z" transform="translate(-4.65 -10.14)"/><path class="cls-16" d="M157.46,279.29s5.76,11.8,49.09,8.61c15.41.6,17,.37,17,.37s3.13-3.55,7.11-4.23a41.86,41.86,0,0,1,9.38-.71,12,12,0,0,0,4-.44,13.57,13.57,0,0,0-4.28-1.54c-3.25-.79-9.23-1.13-12.25.3s-4.17,3.94-8.15,4.37-25.1-.13-46.33-1.63C165.23,283.84,162.74,280,157.46,279.29Z" transform="translate(-4.65 -10.14)"/><path class="cls-28" d="M207.29,289a290.77,290.77,0,0,1-36-2c-8.71-1.16-14.76-3.94-16.59-7.62a5.16,5.16,0,0,1,.16-5c4.68-8.29,27-21.31,27.9-21.86a.85.85,0,0,1,1.17.29c4.67,7.56,13.85,14.19,13.95,14.26a.87.87,0,0,1,.36.82.91.91,0,0,1-.54.7c-5.3,2.08-11,4.45-13.85,5.82,7.48.54,32.63,1.46,34.32,1.46.89,0,3.67-1.86,7.08-6,2.09-2.54,6.65-2.81,8.51-2.81,2.7,0,7.3.56,7.54,2.68a1.49,1.49,0,0,1-.38,1.16,3.89,3.89,0,0,1-1.69.92c2.92.62,5.41,1.57,5.56,3a1.41,1.41,0,0,1-.36,1.08,3.17,3.17,0,0,1-2.19.78c1.46.85,1.37,1.54,1.32,1.95a1.63,1.63,0,0,1-1.24,1.29c1.14.54,1.28,1,1.23,1.55a2.36,2.36,0,0,1-2.77,2.24c-.49,0-1.07,0-1.75-.1-.92-.07-2-.15-3.22-.15a26.49,26.49,0,0,0-4.79.43c-4.92.86-6,2-7,3.09a5.57,5.57,0,0,1-2.34,1.68C221.17,288.76,213.77,289,207.29,289Zm-24.4-34.58c-3.91,2.33-22.55,13.71-26.54,20.79a3.43,3.43,0,0,0-.13,3.39c1.55,3.11,7.26,5.6,15.26,6.67a287.9,287.9,0,0,0,35.81,2c8.09,0,13.47-.25,13.92-.31a4.1,4.1,0,0,0,1.53-1.2c1.09-1.18,2.45-2.66,7.94-3.62a28.68,28.68,0,0,1,5.09-.44c1.32,0,2.44.09,3.35.15.63.05,1.16.09,1.61.09.78,0,1-.1,1-.37-.4-.24-1.92-.9-7.32-1.81-1.81-.23-3.23-.49-3.23-.49a.87.87,0,0,1,.27-1.71s1.42.19,3.26.5a41.69,41.69,0,0,0,5,.39,7.06,7.06,0,0,0,2-.19c-.59-.43-3.14-1.44-8.39-2.43l-.89-.16a.87.87,0,0,1,.31-1.71l.9.17a52.24,52.24,0,0,0,7.54.84,6.49,6.49,0,0,0,1.72-.17c-1-.76-5.52-1.76-10.32-2.18a.87.87,0,0,1,.06-1.74c3.07-.06,6.13-.55,6.86-1.05a12.41,12.41,0,0,0-5.75-1.06c-3.37,0-6,.81-7.17,2.18-2.52,3.07-6.24,6.64-8.41,6.64-.35,0-35.88-1.12-37.22-1.91a1,1,0,0,1-.45-.87c.05-.63.11-1.31,15.13-7.27C193,265.43,186.78,260.3,182.89,254.38Z" transform="translate(-4.65 -10.14)"/><path class="cls-12" d="M133.25,341.33s16.45,49.92,19.4,67.81c.48-.23,29.25-5.49,88.35-4.23s77.71,3.83,77.71,3.83l25-69.2s-41.09-7.25-106.92-6S133.25,341.33,133.25,341.33Z" transform="translate(-4.65 -10.14)"/><path class="cls-28" d="M151.93,410.43l-.22-1.13c-2.9-17.61-19.18-67.14-19.36-67.67l-.35-1,1.09-.2c.37-.06,38.48-6.61,103.64-7.81,5-.1,10-.14,15-.14,56.47,0,91.79,6.11,92.14,6.17l1.12.2-25.6,71-.77-.11c-.19,0-19.29-2.59-77.6-3.82-4-.09-7.92-.13-11.77-.13-51.39,0-76,4.21-76.19,4.29Zm-17.42-68.34c2.42,7.44,15.77,48.65,18.91,65.85,5.37-1.52,30.19-4.11,75.8-4.11,3.86,0,7.84.05,11.81.13,52.06,1.11,73,3.27,77.05,3.75l24.3-67.4c-6.42-1-40-6-90.68-6-4.94,0-10,0-14.93.14C177.86,335.56,141.15,341,134.51,342.09Z" transform="translate(-4.65 -10.14)"/><path class="cls-13" d="M161.72,351.14c-2.88.44-6,.74-6.2,1-.54.68,1,7.77,2.78,15.83-2.77.88-4.15,1.32-6.9,2.22-.88-6.69-1.31-10-2.18-16.72-.37.07-1.21.27-2.5.6s-2.14.53-2.89.7c-.14-2.34-.21-3.5-.35-5.84,6.59-1.47,9.9-2.17,16.54-3.47C160.7,347.76,161,348.88,161.72,351.14Z" transform="translate(-4.65 -10.14)"/><path class="cls-28" d="M149.65,370.45l-2.19-16.8-1.78.45c-1.18.3-2.16.53-2.91.7L142,355l-.43-7.16.54-.12c6.58-1.48,9.84-2.17,16.56-3.48l.58-.11.17.56c.68,2.27,1,3.38,1.7,5.65l.22.71-.74.12c-.92.14-1.85.27-2.7.37-1.18.17-2.62.36-3.1.5-.13,1.1,1.33,7.85,2.62,13.83l.43,2-.57.18c-2.77.86-4.15,1.31-6.9,2.22Zm-1.07-18.35,2.17,16.63c2.1-.7,3.43-1.12,5.59-1.81l-.17-.79c-2.44-11.28-3-14.22-2.35-15,.3-.38.92-.5,3.93-.9l1.94-.27c-.5-1.62-.82-2.69-1.33-4.36-6.14,1.2-9.37,1.89-15.39,3.24l.26,4.51,2.13-.52c1.31-.33,2.16-.54,2.54-.61Z" transform="translate(-4.65 -10.14)"/><path class="cls-13" d="M168.87,344.91q-.11,6,.18,10.33l3.22-.81-.86-8.76c3-.67,4.45-1,7.42-1.62a109.61,109.61,0,0,0,1.21,21.4c-2.64.78-4,1.18-6.57,2-.31-3.37-.47-5-.79-8.42-.73.2-3,.51-3.26.88-.49.73.65,4.63,1,6.38-2.6.83-3.9,1.24-6.48,2.09-1-8.69-1.47-13-2.45-21.74C164.45,345.93,165.92,345.58,168.87,344.91Z" transform="translate(-4.65 -10.14)"/><path class="cls-28" d="M162.2,368.6l-2.61-23.1.56-.13c2.95-.71,4.42-1.06,7.38-1.73l.81-.19,0,.84c-.07,3.6,0,6.78.13,9.49l1.92-.48-.87-8.79.56-.13c3-.66,4.46-1,7.43-1.61l.81-.17,0,.83a109,109,0,0,0,1.2,21.28l.1.57-.56.16c-2.64.78-3.95,1.17-6.56,2l-.77.24-.79-8.49-.28.05a13.88,13.88,0,0,0-1.88.46,21.22,21.22,0,0,0,.78,4.32c.14.57.27,1.09.35,1.5l.12.58-.56.16c-2.6.83-3.89,1.25-6.47,2.1ZM161,346.49l2.3,20.37c1.93-.63,3.17-1,5.15-1.66-.06-.27-.13-.58-.21-.9-.79-3.25-1-4.73-.58-5.41.3-.43,1-.62,2.7-1,.38-.07.72-.13.93-.19l.75-.2.79,8.39c2-.6,3.23-1,5.26-1.59A109.87,109.87,0,0,1,177,344.22l-6.05,1.31.86,8.76-.9.23-2.86.71-.75.19-.05-.77c-.19-2.71-.26-5.92-.2-9.57C164.74,345.6,163.32,345.93,161,346.49Z" transform="translate(-4.65 -10.14)"/><path class="cls-13" d="M190.95,348.75c-1.2.17-3.25.3-3.5.59s0,1.23-.05,1.53c0,.6,0,.91,0,1.52l2.77-.56,2.73-.63c.15.84.23,1.26.38,2.1l.45,2.14-3.52.71c-.94.19-1.8.4-2.53.57,0,1.13.06,1.7.11,2.83,1.47-.29,2.21-.43,3.69-.7l3.66-.68c.23,1.11.34,1.66.55,2.77s.31,1.66.51,2.77a62.91,62.91,0,0,0-6.35,1c-2.34.51-7.39,2.22-7.77,2s-.28-3-.48-5.38c-.2-2.18-.29-3.28-.48-5.46-.41-4.77-.72-8.36-.93-10.82,2.68-.49,4-.72,6.71-1.18s4.05-.68,6.76-1.12c.23,1.1.34,1.65.56,2.74s.34,1.66.56,2.77C193.41,348.42,192.12,348.58,190.95,348.75Z" transform="translate(-4.65 -10.14)"/><path class="cls-28" d="M181,366.74a.8.8,0,0,1-.51-.15c-.39-.26-.44-.67-.59-3.32,0-.82-.1-1.7-.17-2.52l-1.46-16.88.58-.11c2.68-.49,4-.72,6.71-1.18s4.06-.68,6.77-1.11l.62-.1,1.38,6.81-1.3.16c-1.13.13-2.2.26-3.19.41-.36.06-.81.1-1.26.16s-1.39.16-1.78.24c0,.21,0,.53,0,.68s0,.31,0,.41v.7l2-.39,2.71-.63.67-.15,1.07,5.52-4.16.84c-.59.12-1.15.25-1.68.37l-.31.07.06,1.54,2.95-.56,3.66-.68.63-.11,1.31,6.86-.69.09a62.23,62.23,0,0,0-6.29,1c-.93.2-2.32.6-3.67,1A23.58,23.58,0,0,1,181,366.74Zm-1.32-21.8L181,360.63c.08.85.13,1.73.17,2.56s.1,1.68.15,2.2c.72-.14,2.17-.56,3.38-.91,1.37-.4,2.78-.81,3.76-1,1.87-.41,3.8-.72,5.72-1l-.8-4.22-3,.57-3.68.7-.75.15-.16-4.15,1.36-.3q.8-.19,1.71-.38l2.88-.59-.58-2.92-2.06.47-2.79.56-.79.16,0-2.32c0-.07,0-.18,0-.32,0-.81-.06-1.32.23-1.64s.95-.45,2.67-.64l1.22-.16c1-.14,2-.27,3.12-.41l-.85-4.2c-2.31.37-3.66.58-6.14,1Z" transform="translate(-4.65 -10.14)"/><path class="cls-13" d="M204.36,364.65a122.66,122.66,0,0,0,4.15-21.06c2.5-.53,3.77-.81,6.29-1.31.84,4.39,1.25,6.6,2.06,11,.6-4.24.91-6.37,1.54-10.6,2.4-.2,3.6-.3,6-.48a128,128,0,0,0,5.23,22c-2.58.46-3.88.71-6.45,1.22-1-4.49-1.44-6.73-2.43-11.21-.56,4.24-.83,6.37-1.37,10.62-2.13.18-3.2.28-5.32.48-.68-4.67-1-7-1.72-11.67-.7,4.82-1,7.24-1.7,12.06C208.15,365.23,206.89,365,204.36,364.65Z" transform="translate(-4.65 -10.14)"/><path class="cls-28" d="M210,365.75l-.66-.11c-2.51-.42-3.78-.61-6.29-1l-.75-.12.22-.72a122.21,122.21,0,0,0,4.12-20.93l.05-.47.46-.1c2.51-.54,3.77-.8,6.29-1.31l.65-.13.12.66c.55,2.9.91,4.85,1.33,7.09.3-2.1.58-4,1-6.68l.07-.51.51,0c2.41-.21,3.61-.31,6-.48l.61-.05.08.61a127,127,0,0,0,5.2,21.84l.23.7-.73.13c-2.59.47-3.88.72-6.45,1.22l-.63.13-.13-.64c-.66-3.09-1.09-5.12-1.62-7.56-.28,2.21-.52,4.09-.88,6.93l-.06.52-.52,0c-2.12.19-3.19.29-5.31.49l-.62.06-.08-.61c-.43-3-.72-5-1.06-7.26-.35,2.41-.64,4.52-1.07,7.64Zm-6-2.28,4.92.78c.6-4.39.94-6.8,1.61-11.4l.63-4.37.66,4.37c.66,4.46,1,6.79,1.63,11.07,1.57-.16,2.58-.24,4.18-.39.49-3.92.77-6,1.3-10.1l.49-3.68.8,3.62c.94,4.28,1.42,6.52,2.29,10.59,1.94-.38,3.17-.61,5.1-1a127,127,0,0,1-4.94-20.75c-1.86.14-3,.23-4.88.39-.59,3.91-.89,6-1.47,10.09l-.56,3.95-.72-3.92c-.76-4.16-1.17-6.36-1.93-10.33l-5.18,1.07A124.55,124.55,0,0,1,204,363.47Z" transform="translate(-4.65 -10.14)"/><path class="cls-13" d="M228.62,363.86a159.27,159.27,0,0,0,5.48-20.8c3.62-.4,5.44-.59,9.06-.94a155.84,155.84,0,0,0,4.93,21.65c-2.67.47-4,.71-6.68,1.22-.3-1.54-.46-2.31-.77-3.85l-4.37.36-.84,3.84C232.71,364.72,231.35,364.43,228.62,363.86Zm11.16-6.77c-.53-3.27-.8-4.89-1.34-8.16-.67,3.25-1,4.87-1.65,8.13Z" transform="translate(-4.65 -10.14)"/><path class="cls-28" d="M234.72,365.46l-.64-.13c-2.71-.61-4.06-.91-6.79-1.47l-.72-.15.23-.69a161.22,161.22,0,0,0,5.46-20.72l.08-.48.48-.05c3.62-.4,5.44-.58,9.08-.92l.62-.05.08.61a153.83,153.83,0,0,0,4.91,21.55l.2.7-.71.13c-2.67.46-4,.71-6.68,1.22l-.63.11-.78-3.9c-1.24.09-2.06.16-3.32.26Zm-6.45-2.73c2.07.43,3.37.71,5.46,1.18l.81-3.68.48,0,4.38-.34.57-.05.77,3.78c2-.38,3.31-.61,5.34-1a156.07,156.07,0,0,1-4.66-20.42c-3.07.29-4.86.47-8,.81A160.87,160.87,0,0,1,228.26,362.73Zm11.07-5.62h-.78l-3,0-.79,0,.15-.77c.66-3.25,1-4.87,1.66-8.13l.7-3.41.58,3.44c.54,3.26.81,4.89,1.34,8.16Zm-3-1.34,1.43,0-.64-3.93Z" transform="translate(-4.65 -10.14)"/><path class="cls-13" d="M259.29,342.72c3.83.21,6.14,1.85,6.35,4.38.25,3-5.13,6.77-5.34,7.54-.06.24,5.76,6.2,5.6,7.32-.07.51-3.4,2.43-5.69,4.05-2.32-3.59-3.49-5.37-5.87-8.93-.16,2.75-.2,5.24-.11,7.5-2.43.45-3.65.69-6.07,1.17.76-10.91,0-21.15.7-22C249.73,342.58,256.54,342.56,259.29,342.72Zm-4.5,7.35c-.08.86-.13,1.3-.21,2.17a13.62,13.62,0,0,0,2.57-1.23c1.37-.85,2-1.64,1.88-2.32-.09-.51-.54-.83-1.3-.9s-2.41-.14-2.71.16A6.63,6.63,0,0,0,254.79,350.07Z" transform="translate(-4.65 -10.14)"/><path class="cls-28" d="M258.84,366.28l-.37-.57c-2-3.06-3.1-4.78-4.77-7.28-.07,1.95-.08,3.79,0,5.49l0,.55-.55.1c-2.43.45-3.65.69-6.07,1.18l-.83.17.05-.85c.4-5.66.4-11.17.4-15.2,0-5,0-6.62.44-7.18.25-.34,1-1.33,8.17-1.33,1.1,0,2.09,0,2.81.06,4.11.23,6.72,2.09,7,5,.2,2.42-2.49,5-4.28,6.69-.32.3-.69.66-.91.9.26.31.71.83,1.13,1.3,3.51,4,4.44,5.29,4.32,6.11-.08.58-.72,1-3.4,2.79-.86.57-1.77,1.15-2.55,1.71Zm-6.24-11.83,1.08,1.61c2.22,3.31,3.38,5.07,5.52,8.37.65-.44,1.36-.9,2-1.34a28.89,28.89,0,0,0,2.8-1.95c-.28-.79-2.86-3.72-4-5-1.66-1.89-1.69-1.92-1.57-2.34s.49-.77,1.43-1.66c1.51-1.44,4-3.84,3.89-5.64-.19-2.21-2.28-3.6-5.74-3.78-.7,0-1.67-.07-2.74-.07-4.7,0-6.85.49-7.13.81a46.48,46.48,0,0,0-.18,6.4c0,3.85,0,9-.34,14.43,1.74-.34,2.88-.57,4.7-.9-.06-2.15,0-4.49.13-7Zm0-1.9.33-3.64c0-1.19.07-1.74.4-2.06s.6-.42,1.93-.42c.51,0,1,0,1.31.05,1.49.15,1.81,1.06,1.88,1.43.17,1-.56,2-2.18,3a14.37,14.37,0,0,1-2.69,1.3Zm1.69-4.76c0,.28-.05.81-.06,1.14s0,.36,0,.51l-.11,1.13a11.3,11.3,0,0,0,1.47-.78c1.25-.77,1.64-1.38,1.59-1.65s-.52-.34-.72-.36-.73-.05-1.18-.05A5.59,5.59,0,0,0,254.32,347.8Z" transform="translate(-4.65 -10.14)"/><path class="cls-13" d="M284.09,350.6c-2.9-.15-6-.48-6.27-.23-.67.55-.56,7.8-.48,16.05-2.88.29-4.33.45-7.2.78.51-6.73.75-10.09,1.25-16.81-.38,0-1.23,0-2.56.08s-2.19.08-3,.09c.34-2.31.51-3.47.85-5.78,6.74-.12,10.1-.14,16.86-.06C283.79,347.08,283.88,348.24,284.09,350.6Z" transform="translate(-4.65 -10.14)"/><path class="cls-28" d="M268.23,367.28l1.26-16.88-1.83.07c-1.21,0-2.21.09-3,.1l-.77,0,1-7.1h.55c4.4-.08,7.11-.11,10-.11,2,0,4.18,0,6.85,0H283l.06.59c.19,2,.29,3.21.45,5l.14,1.59-.75,0c-.92,0-1.85-.11-2.71-.16-1.17-.08-2.17-.15-2.81-.15l-.33,0c-.35,1-.29,7.91-.23,14l0,2.08-.59.06c-2.89.28-4.32.44-7.19.77Zm1.88-18.19h.7l0,.7-1.19,16c2.19-.25,3.58-.4,5.83-.63v-.9c-.11-11.46,0-14.43.74-15.07.22-.18.5-.23,1.13-.23s1.7.06,2.9.16l1.94.12v-.1c-.14-1.64-.24-2.74-.4-4.44-2.4,0-4.37,0-6.25,0-2.77,0-5.37,0-9.44.11l-.66,4.48,2.18-.08C268.85,349.12,269.69,349.09,270.11,349.09Z" transform="translate(-4.65 -10.14)"/><path class="cls-13" d="M285.4,346.23c1.42-.06,2.13-.1,3.55-.15s2.08-.07,3.48-.1c-.9,4-1.57,7.73-2,11.2a93.59,93.59,0,0,0-.79,9.63c-1.25.16-1.88.24-3.13.43s-1.89.2-3.15.33C284.14,359,284.56,354.77,285.4,346.23Z" transform="translate(-4.65 -10.14)"/><path class="cls-28" d="M281.39,367.65,283.6,345l.56,0c1.42-.08,2.13-.1,3.55-.16l3.49-.11.84,0-.19.82c-.88,3.92-1.56,7.67-2,11.15a91.27,91.27,0,0,0-.79,9.55l0,.57-.55.07c-1.25.15-1.87.23-3.13.42l-3.17.33Zm3.4-21.44-1.95,20,2.36-.24,2.57-.35c.1-2.82.36-5.91.79-9.13s1-6.78,1.85-10.46l-2.64.09Z" transform="translate(-4.65 -10.14)"/><path class="cls-13" d="M290.55,367.47a159.68,159.68,0,0,0,7.65-20.1c3.65,0,5.48,0,9.13,0A155.14,155.14,0,0,0,310,369.45c-2.72.18-4.07.28-6.78.5-.15-1.56-.21-2.34-.36-3.91l-4.39-.12c-.5,1.49-.75,2.24-1.24,3.73C294.53,368.77,293.21,368.33,290.55,367.47Zm11.82-5.55c-.18-3.3-.27-5-.47-8.26-1,3.17-1.51,4.74-2.5,7.91Z" transform="translate(-4.65 -10.14)"/><path class="cls-28" d="M301.37,370l-.37-4c-1.24,0-2.07-.06-3.33-.09-.41,1.2-.66,1.94-1.09,3.28l-.21.62-.61-.21c-2.64-.89-4-1.32-6.61-2.18l-.7-.22.3-.67a161.17,161.17,0,0,0,7.63-20l.14-.47h3.34c2,0,3.7,0,6.27,0h.63v.63a154.81,154.81,0,0,0,2.61,22l.13.71-.72,0c-2.73.19-4.08.29-6.79.51Zm-4.63-5.39h.49c1.75,0,2.64.06,4.39.12l.57,0,.36,3.85c2.07-.17,3.36-.27,5.43-.41a154.46,154.46,0,0,1-2.48-20.81c-2.22,0-3.77,0-5.63,0h-2.38a162.77,162.77,0,0,1-7.24,19.07c2,.65,3.28,1.07,5.3,1.75l1-3.12Zm5.12-2.6-.77-.09-2.5-.29-1.25-.13.23-.75c1-3.17,1.5-4.75,2.5-7.91l1.07-3.33.21,3.48c.19,3.3.29,4.95.47,8.26ZM299,360.37l1.43.17c-.08-1.54-.15-2.73-.22-4C299.87,357.77,299.51,358.9,299,360.37Z" transform="translate(-4.65 -10.14)"/><path class="cls-13" d="M313.31,349c2.82,0,4.24,0,7.06,0,0,.67,0,1.61.14,2.78.25,2.83.59,5.37,1,7.49a11.78,11.78,0,0,0,.87,3c.76-4.65,1.15-7,1.91-11.61,2.84,0,4.26.08,7.09.16a102.94,102.94,0,0,0-4.24,20.67l-6.26.32a8.09,8.09,0,0,0-.62-1.22c-.95-2-1.44-2.94-2.41-4.9-.4-.79-.72-1.57-.72-1.57s-.64,4.75-.79,7c-2.49.17-3.75.27-6.24.46C311.35,362.58,312,358.05,313.31,349Z" transform="translate(-4.65 -10.14)"/><path class="cls-28" d="M319.06,371.9l-.06-.55a10.78,10.78,0,0,0-.55-1c-.9-1.87-1.39-2.85-2.23-4.55-.18,1.51-.4,3.48-.48,4.75l0,.57-.57,0c-2.49.18-3.75.27-6.23.46l-.82.07,3.46-23.93h.57c2.82,0,4.24,0,7.07,0h.65v.65c0,.51,0,1.42.13,2.72.23,2.57.55,5.08,1,7.43,0,.08,0,.16,0,.24l1.55-9.38h.56c2.84,0,4.26.09,7.11.17l.85,0-.25.81a101.9,101.9,0,0,0-4.22,20.53l0,.57-.57,0c-2.51.12-3.75.17-6.25.31Zm-2.76-9.06.18.43s.32.77.7,1.53c1,2,1.47,3,2.42,4.93.21.35.35.62.45.81l5.25-.27a102.8,102.8,0,0,1,4-19.41c-2.13-.07-3.49-.1-5.68-.15l-2.16,13.13-.89-1.89a12.68,12.68,0,0,1-.93-3.18c-.41-2.38-.73-4.93-1-7.53-.08-.92-.12-1.65-.13-2.2-2.23,0-3.6,0-5.85,0l-3.07,21.2c1.81-.14,3-.24,4.87-.36.49-6.93.93-7,1.35-7Z" transform="translate(-4.65 -10.14)"/><path class="cls-14" d="M162.44,387.78c-.84-8.36-2.37-14.62-2.23-14.93.58-1.31,9.15-2.66,12.3-2.75s5.56.57,7.19,1.83a8.73,8.73,0,0,1,3.14,6.47,11.53,11.53,0,0,1-1.15,6.39,13.23,13.23,0,0,1-3.86,4.25c-1.93,1.44-6.54,2.53-7.12,3.29-.44.6.46,4.79,1.16,8.43-3.25.65-4.87,1-8.11,1.7C163.62,399.75,163.15,394.84,162.44,387.78Zm7.32-2.67a7,7,0,0,0,4.42-2.09,5,5,0,0,0,1.31-3.18,2.59,2.59,0,0,0-2-3,7.49,7.49,0,0,0-4.66.72C169.19,380.57,169.38,382.09,169.76,385.1Z" transform="translate(-4.65 -10.14)"/><path class="cls-28" d="M161.61,402.71l0-.75c-.15-2.77-.64-7.86-1.33-14.65-.55-5.44-1.38-9.91-1.87-12.58-.41-2.18-.44-2.4-.31-2.69.88-2,11.14-3.08,12.87-3.14,3.22-.12,5.79.56,7.61,2a9.35,9.35,0,0,1,3.39,6.94,12.16,12.16,0,0,1-1.22,6.74,13.8,13.8,0,0,1-4,4.47,19.87,19.87,0,0,1-4.52,2.1,12.38,12.38,0,0,0-2.47,1.08c-.16.54.55,4.14,1,6.53l.4,2-.64.13c-3.24.66-4.86,1-8.1,1.69Zm-2.3-30.19c0,.34.19,1.14.35,2,.5,2.69,1.33,7.18,1.88,12.68.62,6.24,1.09,11,1.28,14,2.57-.56,4.14-.89,6.74-1.41l-.14-.74c-1-5.28-1.26-6.93-.77-7.58.36-.49,1.3-.85,3-1.5a19.26,19.26,0,0,0,4.19-1.92,12.62,12.62,0,0,0,3.68-4,10.88,10.88,0,0,0,1.07-6,8.1,8.1,0,0,0-2.88-6c-1.58-1.22-3.86-1.79-6.77-1.7C167.39,370.32,160.31,371.65,159.31,372.51Zm8.33,12.77-1.09-8.7.45-.19a8.2,8.2,0,0,1,5.08-.75,3.26,3.26,0,0,1,2.51,3.69,5.65,5.65,0,0,1-1.48,3.58,7.66,7.66,0,0,1-4.82,2.29Zm.33-7.86.8,6.39a6.13,6.13,0,0,0,3.39-1.79,4.35,4.35,0,0,0,1.14-2.77,2,2,0,0,0-1.54-2.35A6.4,6.4,0,0,0,168,377.42Z" transform="translate(-4.65 -10.14)"/><path class="cls-14" d="M196.3,368.11c5-.26,8.16,1.62,8.78,5,.73,4-5.62,9.73-5.82,10.86-.06.35,8.2,7.45,8.14,9.11,0,.72-4,3.73-6.68,6.23-3.42-4.5-5.16-6.75-8.73-11.19q.29,5.57.94,10.12c-3,1-4.53,1.44-7.53,2.44-.66-14.8-3.16-28.43-2.4-29.72C184,369.34,192.73,368.29,196.3,368.11Zm-4.73,10.52c0,1.19,0,1.78,0,3a16.77,16.77,0,0,0,3.11-2c1.63-1.33,2.34-2.5,2.1-3.39-.19-.66-.81-1-1.8-1s-3.12.18-3.47.62S191.51,377.75,191.57,378.64Z" transform="translate(-4.65 -10.14)"/><path class="cls-28" d="M183.25,401.06l0-.87c-.34-7.56-1.17-14.92-1.77-20.29-.75-6.66-1-9-.53-9.8,1.41-2.4,13.69-3.18,13.81-3.18,5.32-.27,8.77,1.79,9.46,5.55.56,3.09-2.48,6.83-4.48,9.31-.47.58-1,1.23-1.23,1.6.33.35,1,1,1.71,1.67,4.32,4.14,6.37,6.32,6.32,7.53,0,.69-1,1.55-3.81,4-1,.91-2.13,1.82-3.06,2.7l-.52.5-.44-.58c-3.05-4-4.74-6.19-7.44-9.57.19,2.88.47,5.58.81,8l.08.55-.52.17c-3,.95-4.52,1.44-7.52,2.44Zm12.37-32.87-.84,0c-5.22.27-12.14,1.49-12.75,2.54-.24.62.21,4.69.7,9,.58,5.18,1.38,12.22,1.74,19.53,2.32-.78,3.78-1.24,6.2-2-.39-2.91-.69-6.15-.87-9.64l-.11-2,1.27,1.58c3.36,4.2,5.08,6.39,8.31,10.64.82-.74,1.71-1.5,2.58-2.25a25.47,25.47,0,0,0,3.38-3.15c-.1-.83-4.2-4.76-5.94-6.43-2.16-2.07-2.29-2.19-2.21-2.65s.55-1.08,1.61-2.4c1.75-2.14,4.66-5.74,4.21-8.25C202.37,369.83,199.72,368.19,195.62,368.19Zm-6.21,13.92,0-4c0-.17,0-.41-.06-.66-.13-1.5-.16-2.2.17-2.61.65-.83,3.64-.87,4-.88h0a2.25,2.25,0,0,1,2.41,1.49c.33,1.19-.45,2.56-2.31,4.09a18.15,18.15,0,0,1-3.22,2.09Zm1.12-6.48a11.8,11.8,0,0,0,.08,1.69c0,.27,0,.52.06.73l0,1.9a17.15,17.15,0,0,0,2.06-1.44c1.34-1.1,2-2.12,1.87-2.72-.1-.36-.48-.54-1.15-.54v-.64l0,.64A11,11,0,0,0,190.54,375.64Z" transform="translate(-4.65 -10.14)"/><path class="cls-14" d="M209.37,373.5a11.31,11.31,0,0,1,9.84-5.73,10.6,10.6,0,0,1,8.87,4.53,14.68,14.68,0,0,1,2.64,5.18,20.2,20.2,0,0,1,.57,5.87,19.12,19.12,0,0,1-3.38,9.95c-2.46,3.68-5.58,5.58-9.49,5.64-3.44,0-6.26-1.59-8.59-4.48a14.86,14.86,0,0,1-2.6-4.81,20,20,0,0,1,2.14-16.14Zm13.05,5c-.81-1.83-1.92-2.75-3.31-2.74-1.61,0-2.86,1.22-3.76,3.52a17,17,0,0,0-1.23,5.43,7.3,7.3,0,0,0,.43,2.49,5.62,5.62,0,0,0,1.46,2.56,4.3,4.3,0,0,0,2.89,1,4,4,0,0,0,3.61-2.11,9,9,0,0,0,1-4.43A13.83,13.83,0,0,0,222.42,378.53Z" transform="translate(-4.65 -10.14)"/><path class="cls-28" d="M216.73,399c-3.42,0-6.43-1.58-8.95-4.73a15.39,15.39,0,0,1-2.71-5,19.77,19.77,0,0,1-.85-6.18,20,20,0,0,1,3.05-10.5,11.91,11.91,0,0,1,10.39-6h.15a11.26,11.26,0,0,1,9.23,4.8,15.17,15.17,0,0,1,2.75,5.42,20.53,20.53,0,0,1,.59,6.05,19.82,19.82,0,0,1-3.49,10.28c-2.6,3.88-6,5.87-10,5.93Zm1.08-31.18h-.13a10.7,10.7,0,0,0-9.3,5.44,18.59,18.59,0,0,0-2.85,9.82,18.38,18.38,0,0,0,.79,5.77,14.37,14.37,0,0,0,2.49,4.61c2.28,2.85,4.88,4.23,7.93,4.23h.13c3.64,0,6.57-1.79,8.95-5.35a18.44,18.44,0,0,0,3.27-9.61,19.23,19.23,0,0,0-.55-5.68,14.14,14.14,0,0,0-2.52-5A10,10,0,0,0,217.81,367.87Zm-.44,23a5,5,0,0,1-3.32-1.12,6.11,6.11,0,0,1-1.67-2.85,7.76,7.76,0,0,1-.46-2.72,17.42,17.42,0,0,1,1.27-5.64c1-2.59,2.48-3.91,4.35-3.92h.05c1.14,0,2.73.54,3.87,3.13a14.36,14.36,0,0,1,1.19,5.95,9.7,9.7,0,0,1-1.11,4.74,4.63,4.63,0,0,1-4.17,2.44Zm.23-15.61,0,.66c-1.31,0-2.35,1-3.16,3.11a16.6,16.6,0,0,0-1.19,5.22,7,7,0,0,0,.4,2.25,5,5,0,0,0,1.27,2.26,3.64,3.64,0,0,0,2.41.82,3.36,3.36,0,0,0,3.12-1.79,8.44,8.44,0,0,0,.93-4.12,13,13,0,0,0-1.07-5.4c-.68-1.57-1.59-2.35-2.67-2.35Z" transform="translate(-4.65 -10.14)"/><path class="cls-14" d="M240.76,369.53l4.56-.56c1.87-.2,2.81-.29,4.68-.47-.79,5.6-1.29,10.8-1.6,15.5a107,107,0,0,0-.19,12.89c-3.18.61-4.76.93-7.92,1.59-.13,0-1.72-.24-4.64-.8-1.13-.21-2.21-.42-3.2-.55l-1.72-.35c1.24-2.87,1.86-4.3,3.13-7.17l3.2.48c1.28.17,1.92.26,3.2.45C240.46,382.13,240.56,377.93,240.76,369.53Z" transform="translate(-4.65 -10.14)"/><path class="cls-28" d="M238.81,398.59h-.07c-.21,0-2-.27-4.75-.8-1.17-.23-2.21-.43-3.17-.55l-2.55-.5.32-.74c1.24-2.88,1.86-4.31,3.13-7.18l.2-.44.49.07c1.29.18,1.93.27,3.21.47l2.47.34.49-20.83.75-.09,4.38-.53c1.88-.21,2.82-.29,4.69-.48l.83-.08-.12.82c-.71,5-1.24,10.23-1.59,15.47a104,104,0,0,0-.18,12.8l0,.56-.56.11c-3.17.61-4.75.93-7.91,1.59Zm-8.7-2.83.93.19c.95.12,2,.33,3.13.53,2.66.51,4.18.75,4.55.79,2.91-.6,4.48-.92,7.28-1.45a110,110,0,0,1,.21-12.4c.34-5,.83-9.93,1.5-14.74l-3.85.4c-1.62.18-2.53.3-4,.49l-.49,21.18-.73-.12-3.19-.43-2.72-.4C231.69,392.12,231.08,393.5,230.11,395.76Z" transform="translate(-4.65 -10.14)"/><path class="cls-14" d="M264.77,376.75c-1.56,0-4.22-.11-4.57.22s-.27,1.64-.33,2.07c-.1.8-.15,1.2-.25,2l3.62-.29,3.6-.4c.05,1.15.08,1.72.12,2.87s.13,1.76.22,2.93l-4.61.39c-1.23.11-2.35.24-3.31.34l-.32,3.82,4.8-.35c1.91-.12,2.85-.19,4.75-.3.1,1.52.15,2.28.24,3.81s.11,2.29.18,3.82a70.51,70.51,0,0,0-8.21.35c-3,.3-9.72,1.76-10.14,1.4s.12-4.09.23-7.3c.1-3,.14-4.45.24-7.43q.34-9.7.51-14.67c3.52-.24,5.27-.34,8.8-.52s5.32-.25,8.88-.38c.1,1.51.15,2.26.26,3.78s.14,2.27.25,3.81C268,376.73,266.3,376.7,264.77,376.75Z" transform="translate(-4.65 -10.14)"/><path class="cls-28" d="M249.38,399.61a1.16,1.16,0,0,1-.78-.22c-.38-.34-.4-.79-.17-4.39.07-1.09.14-2.29.19-3.41l.76-22.7.59,0c3.52-.23,5.28-.34,8.81-.51s5.33-.26,8.88-.37l.63,0,.59,8.91h-1.56c-1.43,0-2.79,0-4.06,0H260.9a12.53,12.53,0,0,0-1.77.07A10.84,10.84,0,0,0,259,378c0,.23,0,.43,0,.56l-.16,1.22,2.82-.21,3.58-.4.69-.07.42,7.12-5.25.43c-.77.06-1.5.15-2.18.22l-.58.06-.21,2.52,4-.28,4.76-.31.65,0,.48,9h-.69a75.38,75.38,0,0,0-8.13.35c-1.25.11-3.13.44-4.94.75A42.66,42.66,0,0,1,249.38,399.61Zm1.25-29.5-.72,21.52c0,1.13-.11,2.34-.19,3.45s-.16,2.55-.15,3.21c.86,0,2.7-.37,4.49-.67s3.74-.64,5-.76a69,69,0,0,1,7.59-.36l-.34-6.29-4.1.27c-1.92.13-2.88.2-4.8.35l-.76.06.43-5.12,1.64-.17c.69-.08,1.44-.17,2.22-.23l4-.33-.27-4.49-2.9.32-3.65.28-.8.07.36-2.81c0-.11,0-.27,0-.47.06-1,.13-1.67.5-2s.92-.38,2.68-.38h2.3c1.28,0,2.67,0,4.11,0h.16l-.42-6.25c-3.14.11-4.91.19-8.24.36S253.77,369.91,250.64,370.11Z" transform="translate(-4.65 -10.14)"/><path class="cls-14" d="M271.57,393.32a19,19,0,0,1-1.21-8.66,19.58,19.58,0,0,1,2.41-7.73,14,14,0,0,1,5-5.37,9.24,9.24,0,0,1,6.94-1,15.61,15.61,0,0,1,7.81,5.12L290,378.23l-2.57,2.55c-2.56-2.08-4.8-2.4-6.64-1.06-1.58,1.15-2.54,3.17-2.68,5.92a8.34,8.34,0,0,0,1.8,6.2c1.52,1.67,3.65,1.72,6.45.11,1.42,2.2,2.12,3.33,3.5,5.55-2.43,2.54-4.94,3.91-7.55,4.15a8.76,8.76,0,0,1-6.38-2.15A14.35,14.35,0,0,1,271.57,393.32Z" transform="translate(-4.65 -10.14)"/><path class="cls-28" d="M280,401.78a9.65,9.65,0,0,1-6.08-2.32,15,15,0,0,1-4.56-6.45,19.65,19.65,0,0,1-1.24-9,20.08,20.08,0,0,1,2.49-8,14.53,14.53,0,0,1,5.24-5.61,10,10,0,0,1,7.42-1.07,16.32,16.32,0,0,1,8.15,5.32l.41.47-.67.67c-.87.86-1.38,1.37-2.31,2.31l-2.57,2.55-.41.41-.46-.36c-2.28-1.86-4.22-2.22-5.84-1-1.45,1-2.29,2.94-2.41,5.42a7.71,7.71,0,0,0,1.63,5.73c1.32,1.45,3.15,1.41,5.65,0l.53-.31.34.52c1.42,2.22,2.12,3.33,3.51,5.56l.27.43-.35.36c-2.54,2.64-5.21,4.1-8,4.35Zm.84-31.38a8.56,8.56,0,0,0-4.34,1.2,13.15,13.15,0,0,0-4.76,5.11,18.75,18.75,0,0,0-2.32,7.48,18.25,18.25,0,0,0,1.16,8.36,13.7,13.7,0,0,0,4.15,5.9,8.06,8.06,0,0,0,5.92,2,10.94,10.94,0,0,0,6.77-3.58c-1.1-1.77-1.78-2.85-2.9-4.59-2.81,1.46-5.08,1.26-6.71-.53a9.06,9.06,0,0,1-2-6.68c.15-2.9,1.18-5.11,3-6.41,2-1.44,4.39-1.2,7,.71.77-.77,1.27-1.28,2.16-2.15l2.1-2.1a14.56,14.56,0,0,0-7.06-4.47A9.09,9.09,0,0,0,280.89,370.4Z" transform="translate(-4.65 -10.14)"/><path class="cls-14" d="M314.54,382.32c-3.74-.4-7.67-1-8.07-.73-.94.7-1.32,10.5-1.89,21.64-3.7.21-5.56.33-9.24.61,1.13-9.05,1.7-13.58,2.83-22.62-.48,0-1.59,0-3.31,0-1.56,0-2.83,0-3.84,0,.59-3.12.89-4.67,1.48-7.77,8.73.23,13.09.43,21.85,1C314.43,377.54,314.47,379.13,314.54,382.32Z" transform="translate(-4.65 -10.14)"/><path class="cls-28" d="M293,404l2.83-22.71H293c-1.42,0-2.59,0-3.53,0h-.77l.14-.76c.59-3.12.89-4.68,1.48-7.77l.11-.55H291c8.77.23,13.06.42,21.87,1l.59,0,0,.59c.08,3.19.12,4.79.19,8l0,.74-.74-.07c-1.14-.13-2.3-.27-3.37-.41-1.78-.22-3.33-.41-4.09-.41h-.18c-.6,1.15-1,9.63-1.44,17.83l-.2,3.85-.58,0c-3.7.2-5.55.33-9.23.6Zm.62-24c1.52,0,2.52,0,3,.05l.69,0-2.82,22.52c3-.22,4.8-.34,7.87-.52l.14-2.69c.71-14.2,1-18.15,2-18.86a1.45,1.45,0,0,1,.93-.21c.84,0,2.42.19,4.25.42l2.61.32c-.05-2.52-.09-4.08-.17-6.64-8.21-.51-12.48-.71-20.67-.92-.48,2.5-.76,4-1.23,6.46.77,0,1.69,0,2.73,0Z" transform="translate(-4.65 -10.14)"/><path class="cls-29" d="M521,441.4c3.08,3,6.09,6.16,9.08,9.31l-.18.17C527,447.68,524.07,444.5,521,441.4Z" transform="translate(-4.65 -10.14)"/><path class="cls-29" d="M537.09,458.19q9,9.81,17.51,20l-.73.59q-8.32-10.35-17.11-20.32Z" transform="translate(-4.65 -10.14)"/><path class="cls-29" d="M561.08,486.13q8.32,10.36,16.07,21.18l-1.34.94q-7.49-10.93-15.63-21.42Z" transform="translate(-4.65 -10.14)"/><path class="cls-29" d="M583,515.73c5,7.37,9.66,14.93,13.95,22.73l-2,1.1c-4.1-7.81-8.63-15.4-13.42-22.83Z" transform="translate(-4.65 -10.14)"/><path class="cls-29" d="M601.68,547.59a149.75,149.75,0,0,1,9.78,25l-2.92.79a147,147,0,0,0-9.14-24.65Z" transform="translate(-4.65 -10.14)"/><path class="cls-29" d="M613.75,582.67a69.56,69.56,0,0,1,1,13.56,49.87,49.87,0,0,1-2.24,13.56L609,608.64a46.29,46.29,0,0,0,2.31-12.54,66.22,66.22,0,0,0-.7-12.92Z" transform="translate(-4.65 -10.14)"/><path class="cls-29" d="M608,619.48a42.6,42.6,0,0,1-2.89,4l-.06.07-.05.05a10.24,10.24,0,0,1-2.81,1.94,23.39,23.39,0,0,1-2.76,1.15,44.24,44.24,0,0,1-5.54,1.5,81.72,81.72,0,0,1-11.13,1.43l-.23-4.57A77.39,77.39,0,0,0,593.08,624a40.15,40.15,0,0,0,5-1.21,19.41,19.41,0,0,0,2.3-.88,6.79,6.79,0,0,0,1.72-1.06L602,621a38.57,38.57,0,0,0,2.69-3.62Z" transform="translate(-4.65 -10.14)"/><path class="cls-29" d="M572.34,629.86a182.59,182.59,0,0,1-26.8-2.76l1-5.45a177.47,177.47,0,0,0,26,3.36Z" transform="translate(-4.65 -10.14)"/><path class="cls-29" d="M535.39,625.11c-8.76-1.92-17.4-4.29-25.93-7l2.05-6.18c8.29,2.88,16.69,5.42,25.19,7.52Z" transform="translate(-4.65 -10.14)"/><path class="cls-29" d="M499.67,614.83c-8.44-3-16.76-6.25-25-9.78l3-6.83c8,3.68,16.06,7.12,24.26,10.24Z" transform="translate(-4.65 -10.14)"/><path class="cls-29" d="M465.27,600.87q-12.19-5.58-24.05-11.81l4-7.43q11.52,6.42,23.35,12.24Z" transform="translate(-4.65 -10.14)"/><path class="cls-29" d="M432.13,584.2q-11.75-6.43-23.2-13.37l5-8Q425,570,436.42,576.61Z" transform="translate(-4.65 -10.14)"/><path class="cls-29" d="M400.16,565.43q-11.35-7.1-22.42-14.62l5.94-8.52q10.73,7.69,21.73,15Z" transform="translate(-4.65 -10.14)"/><polygon class="cls-29" points="364.58 534.82 353.9 527.26 360.44 518.42 370.78 526.16 364.58 534.82"/><path class="cls-30" d="M272.51,511.5l138.29-37.63a12.89,12.89,0,0,1,15.77,9h0a12.89,12.89,0,0,1-9,15.77L279.26,536.3a12.89,12.89,0,0,1-15.77-9h0a12.89,12.89,0,0,1,9-15.77Z" transform="translate(-4.65 -10.14)"/><path class="cls-31" d="M272.51,511.5l138.29-37.63c-60.53-9.93-91.13-1.6-138.29,37.63Z" transform="translate(-4.65 -10.14)"/><path class="cls-32" d="M377.08,470.16c-31.6-8-54.2-2-77.32,21l77.32-21Z" transform="translate(-4.65 -10.14)"/><path class="cls-30" d="M330.31,470.62c-10.61,3.84-20.57,10.59-30.55,20.58l61.46-16.72a50.85,50.85,0,0,0-30.92-3.86Z" transform="translate(-4.65 -10.14)"/><path class="cls-31" d="M279.26,536.3l138.29-37.63c-47.16,39.23-77.76,47.55-138.29,37.63Z" transform="translate(-4.65 -10.14)"/><path class="cls-33" d="M279.26,536.3,383.41,508C379.79,517,372.31,525.87,362,533.2c-23.62,8.47-48.33,8.73-82.72,3.1Z" transform="translate(-4.65 -10.14)"/><path class="cls-31" d="M404.39,481.31a7.92,7.92,0,1,1-5.58,9.75,7.94,7.94,0,0,1,5.58-9.75Z" transform="translate(-4.65 -10.14)"/><path class="cls-31" d="M345.74,494a10.33,10.33,0,1,1-7.22,12.7,10.32,10.32,0,0,1,7.22-12.7Z" transform="translate(-4.65 -10.14)"/><path class="cls-31" d="M278.49,515.23a7.92,7.92,0,1,1-5.58,9.75,7.94,7.94,0,0,1,5.58-9.75Z" transform="translate(-4.65 -10.14)"/><path class="cls-34" d="M279,517.22a5.85,5.85,0,1,1-4.13,7.21,5.85,5.85,0,0,1,4.13-7.21Z" transform="translate(-4.65 -10.14)"/><path class="cls-34" d="M404.93,483.3a5.85,5.85,0,1,1-4.13,7.21,5.85,5.85,0,0,1,4.13-7.21Z" transform="translate(-4.65 -10.14)"/><path class="cls-34" d="M346.44,496.64a7.63,7.63,0,1,1-5.33,9.39,7.64,7.64,0,0,1,5.33-9.39Z" transform="translate(-4.65 -10.14)"/><path class="cls-35" d="M350.78,500.73a2.55,2.55,0,1,1,1.34,4.91,2.55,2.55,0,0,1-1.34-4.91Z" transform="translate(-4.65 -10.14)"/><path class="cls-35" d="M408.21,486.45a2,2,0,1,1,1,3.76,2,2,0,0,1-1-3.76Z" transform="translate(-4.65 -10.14)"/><path class="cls-35" d="M282.36,520.36a2,2,0,1,1-1.34,2.41,2,2,0,0,1,1.34-2.41Z" transform="translate(-4.65 -10.14)"/></g></g></svg>