<svg id="Capa_1" data-name="Capa 1" xmlns="http://www.w3.org/2000/svg" viewBox="0 0 288 115"><defs><style>.cls-1{fill:#fff;}.cls-2{fill:#272425;}.cls-3{fill:#dd902f;}.cls-4{fill:#61aaea;}</style></defs><title>logo_two</title><path class="cls-1" d="M6.63,18.2S28.11,83.37,32,106.73c.63-.3,38.19-7.17,115.34-5.52s101.45,5,101.45,5l32.57-90.33S227.68,6.41,141.74,8,6.63,18.2,6.63,18.2Z"/><path class="cls-2" d="M31,108.41l-.29-1.47c-3.79-23-25-87.65-25.27-88.35L5,17.23,6.43,17c.49-.08,50.24-8.62,135.3-10.2,6.5-.13,13.08-.18,19.53-.18,73.72,0,119.83,8,120.28,8.06l1.46.26-33.42,92.69-1-.15c-.24,0-25.18-3.38-101.3-5-5.18-.11-10.34-.17-15.37-.17-67.08,0-99.22,5.49-99.46,5.6ZM8.27,19.19c3.16,9.71,20.59,63.51,24.68,86,7-2,39.42-5.37,99-5.37,5,0,10.23.07,15.42.18,68,1.45,95.25,4.26,100.59,4.89l31.73-88c-8.38-1.34-52.2-7.78-118.38-7.78-6.44,0-13,.06-19.49.19C64.87,10.68,16.94,17.82,8.27,19.19Z"/><path class="cls-3" d="M43.8,31C40,31.6,36,32,35.71,32.37c-.7.89,1.36,10.14,3.63,20.66-3.61,1.15-5.42,1.72-9,2.9-1.14-8.73-1.71-13.1-2.85-21.82-.49.09-1.58.35-3.26.79-1.53.39-2.79.7-3.78.91-.18-3.05-.27-4.57-.45-7.63,8.6-1.92,12.92-2.83,21.59-4.53C42.46,26.6,42.92,28.06,43.8,31Z"/><path class="cls-2" d="M28,56.22,25.18,34.29l-2.33.59c-1.53.39-2.81.7-3.8.92l-1,.22-.55-9.34.7-.16c8.59-1.93,12.84-2.83,21.61-4.54l.75-.14.23.73c.89,3,1.34,4.42,2.22,7.37l.28.93-1,.16c-1.2.18-2.42.35-3.53.49-1.54.22-3.42.47-4.05.66-.17,1.44,1.74,10.25,3.43,18.06l.55,2.55L38,53c-3.61,1.13-5.42,1.72-9,2.89Zm-1.4-24L29.46,54c2.75-.91,4.48-1.47,7.3-2.36l-.22-1C33.36,35.86,32.67,32,33.47,31c.39-.5,1.21-.65,5.14-1.17.81-.12,1.66-.22,2.53-.35l-1.73-5.69c-8,1.57-12.23,2.46-20.1,4.23l.34,5.89,2.78-.68c1.72-.43,2.83-.71,3.32-.8Z"/><path class="cls-3" d="M53.14,22.88q-.15,7.89.24,13.49l4.21-1.06c-.45-4.57-.68-6.87-1.13-11.44,3.87-.87,5.81-1.29,9.69-2.11A142.71,142.71,0,0,0,67.73,49.7c-3.44,1-5.16,1.54-8.58,2.59-.41-4.4-.62-6.59-1-11-.95.27-3.93.67-4.25,1.15-.64,1,.85,6,1.32,8.33-3.39,1.08-5.09,1.62-8.46,2.73-1.27-11.34-1.91-17-3.2-28.38C47.36,24.21,49.28,23.76,53.14,22.88Z"/><path class="cls-2" d="M44.43,53.81,41,23.65l.73-.18c3.84-.93,5.77-1.38,9.63-2.26L52.43,21l0,1.1c-.09,4.7,0,8.86.17,12.39l2.5-.63L54,22.35l.74-.17c3.88-.86,5.81-1.28,9.7-2.1l1.06-.23,0,1.08A142.25,142.25,0,0,0,67,48.72l.13.74-.72.21c-3.44,1-5.16,1.53-8.57,2.59l-1,.32-1-11.08-.36.07a18.18,18.18,0,0,0-2.46.6c-.15.79.63,4,1,5.65.18.74.34,1.42.45,2l.16.76-.73.21c-3.39,1.09-5.08,1.63-8.44,2.74ZM42.88,24.94l3,26.59c2.52-.83,4.13-1.34,6.72-2.16-.08-.35-.18-.76-.28-1.17C51.3,44,51,42,51.58,41.14c.39-.56,1.32-.81,3.52-1.24.5-.09.94-.18,1.21-.25l1-.26,1,11c2.57-.79,4.22-1.29,6.87-2.07A143.84,143.84,0,0,1,63.7,22l-7.9,1.71,1.12,11.43-1.17.3L52,36.35l-1,.25-.07-1c-.25-3.54-.33-7.73-.26-12.49C47.74,23.78,45.89,24.21,42.88,24.94Z"/><path class="cls-3" d="M82,27.89c-1.56.22-4.24.39-4.57.77s-.06,1.6-.07,2c0,.79,0,1.19,0,2l3.62-.73c1.43-.32,2.13-.49,3.56-.82.2,1.1.3,1.65.49,2.74s.35,1.66.59,2.79l-4.6.92c-1.23.25-2.35.52-3.3.74.05,1.47.08,2.23.14,3.7,1.92-.38,2.89-.56,4.81-.91s2.87-.54,4.77-.89c.29,1.45.44,2.16.72,3.62s.4,2.16.66,3.62a81.7,81.7,0,0,0-8.29,1.36c-3.05.67-9.65,2.9-10.13,2.57-.31-.21-.36-3.93-.62-7-.25-2.85-.38-4.28-.63-7.13-.54-6.23-.94-10.92-1.21-14.12,3.5-.64,5.25-.94,8.76-1.54s5.29-.89,8.83-1.46c.3,1.44.44,2.16.73,3.58s.44,2.16.73,3.62C85.17,27.46,83.48,27.67,82,27.89Z"/><path class="cls-2" d="M69,51.38a1,1,0,0,1-.66-.2c-.51-.34-.58-.87-.77-4.33-.07-1.06-.13-2.23-.22-3.29l-1.9-22,.76-.15c3.5-.63,5.25-.94,8.77-1.54s5.29-.89,8.84-1.45l.81-.13,1.8,8.89-1.7.21c-1.47.17-2.87.34-4.16.53-.47.08-1.06.13-1.65.21s-1.81.21-2.32.31c0,.28,0,.69,0,.89s0,.4,0,.53v.92l2.59-.51,3.54-.83.87-.2L85,36.43l-5.43,1.09c-.77.15-1.51.33-2.19.48L77,38.1l.07,2c1.34-.26,2.27-.44,3.85-.73l4.78-.89.82-.14,1.72,9-.91.12a81,81,0,0,0-8.21,1.33c-1.22.27-3,.79-4.8,1.3A30.89,30.89,0,0,1,69,51.38ZM67.22,22.92,69,43.4c.1,1.11.16,2.26.22,3.34s.12,2.2.2,2.87c.94-.18,2.83-.73,4.41-1.19,1.78-.52,3.64-1.05,4.91-1.33,2.44-.53,5-.94,7.46-1.26l-1-5.51c-1.4.26-2.33.43-3.95.74L76.4,42l-1,.2-.21-5.42L77,36.36c.69-.17,1.44-.33,2.23-.49L83,35.1l-.75-3.82-2.69.61-3.65.73-1,.21,0-3c0-.09,0-.24,0-.41-.06-1.06-.08-1.73.3-2.14s1.24-.59,3.49-.84l1.6-.21c1.26-.18,2.64-.35,4.08-.53l-1.11-5.48c-3,.48-4.78.76-8,1.31Z"/><path class="cls-3" d="M99.47,48.65a160.08,160.08,0,0,0,5.42-27.49c3.27-.7,4.92-1.05,8.2-1.71,1.09,5.73,1.63,8.61,2.69,14.35.79-5.54,1.19-8.31,2-13.84,3.14-.27,4.71-.39,7.85-.63A167.4,167.4,0,0,0,132.47,48c-3.37.6-5.06.93-8.42,1.59-1.24-5.87-1.88-8.79-3.17-14.63-.73,5.54-1.09,8.32-1.78,13.86-2.78.23-4.17.37-6.94.63-.88-6.09-1.33-9.13-2.24-15.23-.91,6.3-1.35,9.45-2.21,15.74C104.41,49.4,102.76,49.14,99.47,48.65Z"/><path class="cls-2" d="M106.86,50.09l-.87-.14c-3.28-.54-4.93-.8-8.22-1.3l-1-.15.29-.94a159.62,159.62,0,0,0,5.38-27.33l.07-.61.6-.12c3.28-.71,4.92-1,8.21-1.71l.85-.18.16.86c.71,3.78,1.19,6.33,1.74,9.26.4-2.74.76-5.16,1.29-8.72l.1-.67.67-.05c3.14-.28,4.71-.4,7.85-.63l.8-.07.11.79a165.56,165.56,0,0,0,6.79,28.51l.3.92-.95.18c-3.38.62-5.06.94-8.42,1.59l-.82.17-.17-.83c-.86-4-1.43-6.68-2.12-9.87-.37,2.88-.69,5.35-1.15,9.05l-.09.68-.68.05c-2.77.24-4.16.38-6.93.64l-.81.08-.11-.8c-.56-3.87-.94-6.52-1.38-9.48-.45,3.15-.83,5.9-1.4,10ZM99,47.1c2.42.38,4,.62,6.42,1,.78-5.73,1.23-8.88,2.1-14.89l.82-5.71.86,5.71c.87,5.83,1.32,8.87,2.13,14.45,2-.21,3.37-.32,5.45-.51.64-5.11,1-7.88,1.7-13.19l.63-4.81,1,4.73c1.22,5.59,1.85,8.51,3,13.83,2.54-.49,4.14-.8,6.66-1.26a166.08,166.08,0,0,1-6.45-27.08c-2.42.18-3.93.3-6.37.51-.76,5.11-1.17,7.87-1.92,13.17l-.74,5.15-.94-5.12c-1-5.43-1.53-8.3-2.52-13.49-2.56.52-4.14.85-6.76,1.4A162.45,162.45,0,0,1,99,47.1Z"/><path class="cls-3" d="M131.14,47.62a207.93,207.93,0,0,0,7.14-27.15c4.73-.52,7.1-.77,11.84-1.22a202.92,202.92,0,0,0,6.43,28.26c-3.49.61-5.24.93-8.72,1.59-.4-2-.6-3-1-5l-5.71.47c-.44,2-.66,3-1.1,5C136.48,48.74,134.7,48.37,131.14,47.62Zm14.56-8.83c-.69-4.26-1-6.38-1.75-10.65-.88,4.24-1.3,6.36-2.15,10.61Z"/><path class="cls-2" d="M139.1,49.71l-.84-.17c-3.54-.8-5.3-1.19-8.87-1.92l-.93-.2.3-.9a210.7,210.7,0,0,0,7.13-27l.11-.62.63-.07c4.72-.52,7.1-.75,11.85-1.21l.81-.07.11.8a200.63,200.63,0,0,0,6.41,28.13l.26.91-.93.17c-3.49.6-5.24.93-8.72,1.59l-.82.14-1-5.09c-1.62.11-2.69.21-4.33.34Zm-8.43-3.56c2.71.56,4.41.93,7.12,1.54l1.05-4.8.62-.05c2.28-.18,3.42-.28,5.72-.45l.74-.07,1,4.94c2.66-.5,4.33-.8,7-1.26a203.68,203.68,0,0,1-6.08-26.66c-4,.38-6.34.62-10.4,1.06A209.86,209.86,0,0,1,130.67,46.15Zm14.46-7.34h-1l-3.9,0-1,0,.2-1c.86-4.24,1.29-6.36,2.16-10.61l.92-4.45.75,4.49c.71,4.25,1.05,6.38,1.75,10.66Zm-3.88-1.75,1.87,0c-.32-2-.57-3.51-.83-5.14Z"/><path class="cls-3" d="M171.18,20c5,.27,8,2.41,8.29,5.72.32,3.9-6.7,8.84-7,9.84-.08.32,7.53,8.1,7.32,9.56-.09.67-4.44,3.17-7.42,5.29-3-4.68-4.55-7-7.67-11.66-.21,3.59-.25,6.84-.14,9.8-3.17.59-4.77.9-7.93,1.52,1-14.25.06-27.61.92-28.75C158.69,19.84,167.58,19.81,171.18,20Zm-5.87,9.6c-.11,1.13-.17,1.69-.28,2.83a17.59,17.59,0,0,0,3.35-1.61c1.78-1.12,2.62-2.14,2.46-3-.11-.66-.7-1.08-1.7-1.17s-3.15-.19-3.55.21S165.35,28.75,165.31,29.61Z"/><path class="cls-2" d="M170.58,50.78,170.1,50c-2.58-4-4-6.24-6.22-9.5-.1,2.54-.1,5,0,7.17l0,.72-.72.13c-3.17.59-4.77.9-7.92,1.54l-1.09.22.07-1.11c.52-7.38.51-14.58.51-19.84,0-6.54,0-8.64.58-9.37.32-.44,1.32-1.74,10.67-1.74,1.43,0,2.73,0,3.67.08,5.37.3,8.77,2.73,9.08,6.5.27,3.16-3.25,6.52-5.58,8.73-.42.39-.91.86-1.19,1.18.34.4.93,1.08,1.47,1.7,4.59,5.19,5.79,6.91,5.64,8-.1.75-.93,1.37-4.44,3.64-1.12.74-2.31,1.49-3.33,2.22Zm-8.14-15.44,1.41,2.1c2.9,4.32,4.41,6.61,7.2,10.93.85-.58,1.77-1.18,2.66-1.75a37.29,37.29,0,0,0,3.65-2.54c-.36-1-3.74-4.86-5.2-6.52C170,35.09,170,35,170.11,34.5s.64-1,1.87-2.17c2-1.87,5.27-5,5.08-7.36-.25-2.89-3-4.7-7.49-4.94-.91-.05-2.18-.09-3.57-.09-6.14,0-8.94.64-9.31,1.06-.25.58-.24,4.35-.24,8.36,0,5,0,11.81-.44,18.84,2.27-.44,3.77-.74,6.13-1.18-.08-2.8,0-5.87.17-9.15Zm0-2.49.43-4.76c0-1.56.1-2.27.52-2.69s.78-.54,2.52-.54c.66,0,1.33,0,1.72.07,1.94.2,2.36,1.38,2.45,1.87.22,1.27-.73,2.58-2.85,3.89a18.77,18.77,0,0,1-3.52,1.7Zm2.21-6.21c-.06.37-.07,1.06-.08,1.49,0,.25,0,.47,0,.67l-.14,1.48a15,15,0,0,0,1.92-1c1.63-1,2.14-1.8,2.07-2.15s-.68-.44-.94-.47-.95-.07-1.55-.07A7.27,7.27,0,0,0,164.68,26.65Z"/><path class="cls-3" d="M203.55,30.31c-3.79-.19-7.8-.63-8.19-.3-.87.72-.72,10.18-.63,21-3.77.38-5.65.58-9.4,1,.66-8.79,1-13.17,1.64-21.94q-.74,0-3.34.1c-1.56.07-2.87.11-3.88.12.45-3,.67-4.53,1.11-7.54,8.8-.15,13.19-.18,22-.08C203.15,25.71,203.28,27.23,203.55,30.31Z"/><path class="cls-2" d="M182.84,52.09l1.64-22c-.61,0-1.39.05-2.39.09-1.58.06-2.88.11-3.9.13l-1,0L178.55,21h.72c5.75-.1,9.29-.14,13.08-.14,2.66,0,5.46,0,8.95.05h.77l.08.78c.24,2.66.38,4.2.58,6.56l.19,2.08-1-.05c-1.2,0-2.41-.14-3.54-.21-1.53-.11-2.83-.2-3.66-.2l-.43,0c-.46,1.37-.38,10.32-.31,18.26l0,2.71-.77.08c-3.76.37-5.64.58-9.39,1Zm2.45-23.75h.92l0,.91L184.7,50.17c2.86-.33,4.67-.52,7.61-.82V48.18c-.14-15,0-18.84,1-19.68.28-.23.65-.31,1.48-.31s2.22.08,3.78.21l2.53.15,0-.13c-.18-2.14-.31-3.58-.52-5.8-3.13,0-5.71-.05-8.16-.05-3.61,0-7,0-12.33.14l-.86,5.85,2.85-.1C183.66,28.37,184.75,28.34,185.3,28.34Z"/><path class="cls-3" d="M205.26,24.61c1.85-.08,2.77-.13,4.63-.2s2.72-.09,4.54-.13c-1.18,5.21-2.05,10.1-2.65,14.62a122.55,122.55,0,0,0-1,12.57c-1.64.21-2.46.32-4.09.56s-2.47.26-4.11.43C203.62,41.32,204.16,35.75,205.26,24.61Z"/><path class="cls-2" d="M200,52.57,202.91,23l.74,0c1.85-.1,2.78-.13,4.63-.21l4.55-.14,1.1,0-.25,1.07c-1.15,5.11-2,10-2.63,14.56a119.61,119.61,0,0,0-1,12.47l0,.74-.72.1c-1.64.2-2.44.3-4.08.54l-4.14.43Zm4.44-28-2.55,26.07,3.08-.32,3.36-.45c.12-3.69.46-7.71,1-11.92s1.37-8.86,2.41-13.65l-3.44.12Z"/><path class="cls-3" d="M212,52.33a207.42,207.42,0,0,0,10-26.24c4.76,0,7.15,0,11.92,0a203.27,203.27,0,0,0,3.42,28.79c-3.55.24-5.32.36-8.86.65-.19-2-.28-3.06-.48-5.1-2.29-.08-3.44-.1-5.73-.16-.65,1.95-1,2.92-1.62,4.87C217.18,54,215.45,53.45,212,52.33Zm15.43-7.24c-.24-4.31-.36-6.46-.61-10.78-1.32,4.13-2,6.19-3.27,10.32Z"/><path class="cls-2" d="M226.11,55.63l-.49-5.18c-1.63-.06-2.7-.08-4.35-.12-.53,1.57-.85,2.53-1.42,4.28l-.27.81-.81-.28c-3.45-1.16-5.16-1.72-8.62-2.85l-.91-.29.39-.87A210.53,210.53,0,0,0,219.6,25l.18-.61h4.37c2.65,0,4.83,0,8.18.05h.82l0,.82a201.59,201.59,0,0,0,3.41,28.66l.17.93-.94.06c-3.56.25-5.32.38-8.86.66Zm-6-7h.63c2.29.06,3.44.08,5.74.16l.75,0,.47,5c2.7-.23,4.4-.35,7.09-.53a201.83,201.83,0,0,1-3.24-27.16c-2.9,0-4.93,0-7.35,0H221A212.35,212.35,0,0,1,211.58,51c2.63.85,4.29,1.4,6.93,2.28l1.35-4.07Zm6.69-3.39-1-.12-3.27-.38-1.63-.17.31-1c1.3-4.13,2-6.2,3.27-10.32l1.39-4.35.27,4.55c.25,4.31.38,6.46.61,10.78Zm-3.67-2.15,1.87.23c-.11-2-.2-3.57-.29-5.2C224.15,39.67,223.68,41.15,223.08,43.06Z"/><path class="cls-3" d="M241.69,28.26c3.68,0,5.53,0,9.21,0,0,.87,0,2.1.19,3.63.32,3.7.77,7,1.25,9.78a15.51,15.51,0,0,0,1.13,3.93c1-6.07,1.5-9.1,2.5-15.16,3.7.06,5.56.11,9.26.21a134.14,134.14,0,0,0-5.54,27c-3.28.15-4.91.24-8.17.42a11.16,11.16,0,0,0-.82-1.59c-1.24-2.56-1.87-3.84-3.15-6.4-.52-1-.94-2-.94-2s-.84,6.2-1,9.09c-3.26.22-4.89.35-8.15.61C239.14,45.95,240,40,241.69,28.26Z"/><path class="cls-2" d="M249.2,58.12l-.08-.72a13.29,13.29,0,0,0-.72-1.33c-1.18-2.44-1.81-3.72-2.91-5.95-.24,2-.52,4.55-.63,6.2l0,.74-.75.05c-3.25.23-4.89.35-8.13.61l-1.07.1,4.51-31.24h.74c3.69,0,5.54,0,9.23,0h.85v.85c0,.67,0,1.85.17,3.54.3,3.36.72,6.63,1.25,9.7,0,.1,0,.21.05.31l2-12.25h.73c3.71.06,5.56.11,9.28.22l1.11,0-.32,1.06A133.15,133.15,0,0,0,259,56.87l-.07.74-.74,0c-3.28.15-4.9.23-8.16.41Zm-3.61-11.83.23.56s.42,1,.92,2c1.28,2.58,1.91,3.85,3.16,6.44.27.46.45.81.58,1.05l6.85-.35a134.63,134.63,0,0,1,5.19-25.33c-2.77-.1-4.56-.13-7.41-.19L252.3,47.6l-1.16-2.47A16.42,16.42,0,0,1,249.93,41c-.54-3.11-1-6.43-1.26-9.83-.11-1.2-.16-2.16-.18-2.87-2.92,0-4.7,0-7.64,0l-4,27.67c2.36-.18,3.91-.31,6.35-.47.64-9,1.22-9.09,1.76-9.12Z"/><path class="cls-4" d="M44.74,78.84c-1.1-10.92-3.09-19.09-2.92-19.49.75-1.71,12-3.47,16.06-3.6s7.25.74,9.39,2.39C69.6,60,71,62.75,71.37,66.6a15.08,15.08,0,0,1-1.5,8.34,17.28,17.28,0,0,1-5,5.55c-2.52,1.88-8.53,3.3-9.29,4.3-.57.78.6,6.25,1.52,11-4.24.85-6.36,1.29-10.59,2.21C46.27,94.47,45.67,88.06,44.74,78.84Zm9.55-3.49a9.18,9.18,0,0,0,5.78-2.73,6.55,6.55,0,0,0,1.71-4.15c.14-2.06-.71-3.42-2.64-3.93-1.51-.4-3.56-.12-6.09.94C53.55,69.44,53.8,71.42,54.29,75.35Z"/><path class="cls-2" d="M43.66,98.34l-.06-1c-.2-3.62-.84-10.26-1.73-19.12-.72-7.11-1.8-12.94-2.44-16.42C38.9,59,38.86,58.68,39,58.3c1.15-2.6,14.55-4,16.81-4.1,4.2-.16,7.55.73,9.94,2.57,2.59,2,4.07,5,4.42,9.06a15.88,15.88,0,0,1-1.6,8.8,18,18,0,0,1-5.28,5.84,26,26,0,0,1-5.9,2.74,16.26,16.26,0,0,0-3.22,1.42c-.21.7.71,5.41,1.32,8.53L56,95.76l-.83.17c-4.23.86-6.35,1.29-10.57,2.2Zm-3-39.42c.05.45.25,1.49.45,2.58C41.76,65,42.84,70.88,43.56,78c.82,8.14,1.42,14.4,1.68,18.22,3.35-.73,5.4-1.16,8.8-1.84l-.19-1c-1.35-6.9-1.65-9-1-9.89.48-.64,1.69-1.11,4-2A25.25,25.25,0,0,0,62.3,79.1a16.48,16.48,0,0,0,4.8-5.27A14.21,14.21,0,0,0,68.5,66c-.31-3.53-1.58-6.16-3.76-7.85s-5-2.34-8.85-2.22C51.2,56.06,42,57.79,40.65,58.92ZM51.53,75.59,50.11,64.23,50.7,64c2.66-1.11,4.91-1.44,6.63-1a4.26,4.26,0,0,1,3.27,4.82,7.38,7.38,0,0,1-1.94,4.68,10,10,0,0,1-6.3,3ZM52,65.32l1,8.35a8,8,0,0,0,4.43-2.34,5.67,5.67,0,0,0,1.48-3.62c.12-1.71-.51-2.66-2-3.06A8.36,8.36,0,0,0,52,65.32Z"/><path class="cls-4" d="M88.94,53.17c6.49-.33,10.66,2.12,11.46,6.55,1,5.22-7.34,12.71-7.59,14.18-.08.46,10.7,9.72,10.62,11.9,0,.94-5.21,4.86-8.72,8.13C90.25,88.05,88,85.12,83.32,79.32q.38,7.27,1.23,13.21c-3.94,1.25-5.91,1.88-9.83,3.19-.86-19.32-4.12-37.11-3.13-38.8C72.85,54.77,84.28,53.4,88.94,53.17ZM82.76,66.91c0,1.55,0,2.32,0,3.86a21.94,21.94,0,0,0,4.06-2.65c2.13-1.74,3.06-3.26,2.73-4.43-.24-.86-1.05-1.33-2.35-1.33-1.12,0-4.07.24-4.53.82C82.39,63.6,82.69,65.75,82.76,66.91Z"/><path class="cls-2" d="M71.9,96.18,71.85,95c-.44-9.88-1.52-19.48-2.31-26.49-1-8.69-1.29-11.77-.69-12.79,1.84-3.14,17.87-4.15,18-4.15,7-.35,11.45,2.33,12.34,7.25C100,62.9,96,67.78,93.37,71c-.61.76-1.31,1.61-1.6,2.09.42.45,1.35,1.32,2.24,2.18,5.64,5.4,8.32,8.25,8.25,9.83,0,.91-1.24,2-5,5.19-1.37,1.18-2.78,2.38-4,3.52l-.68.65L92,93.73c-4-5.24-6.19-8.08-9.71-12.5.25,3.77.61,7.28,1.06,10.46l.11.72-.69.23c-3.95,1.24-5.91,1.88-9.82,3.19Zm16.15-42.9c-.35,0-.72,0-1.1,0-6.82.35-15.84,1.95-16.65,3.32-.32.81.28,6.12.91,11.74.76,6.76,1.81,16,2.28,25.49,3-1,4.93-1.62,8.09-2.63-.51-3.8-.9-8-1.14-12.58L80.32,76,82,78.08C86.36,83.56,88.6,86.42,92.81,92,93.88,91,95,90,96.18,89c1.86-1.58,4.16-3.56,4.41-4.11-.13-1.09-5.48-6.21-7.76-8.4-2.82-2.71-3-2.86-2.89-3.45s.72-1.42,2.11-3.13c2.27-2.8,6.08-7.5,5.49-10.77C96.86,55.42,93.4,53.28,88.06,53.28ZM80,71.45l-.06-5.24c0-.22,0-.53-.07-.86-.17-2-.21-2.87.21-3.4.85-1.09,4.75-1.14,5.19-1.15h0c1.65,0,2.8.72,3.14,1.95.43,1.55-.58,3.34-3,5.34a23.69,23.69,0,0,1-4.21,2.73ZM81.42,63a15.56,15.56,0,0,0,.1,2.2c0,.35.06.69.08,1l0,2.48a22,22,0,0,0,2.69-1.88C86.06,65.32,87,64,86.76,63.21c-.12-.46-.63-.71-1.5-.71v-.83l0,.83A14.37,14.37,0,0,0,81.42,63Z"/><path class="cls-4" d="M106,60.2c3.08-4.9,7.44-7.42,12.85-7.48,4.66-.06,8.53,1.95,11.57,5.92a19.15,19.15,0,0,1,3.44,6.77,26.29,26.29,0,0,1,.75,7.66,25,25,0,0,1-4.41,13c-3.21,4.8-7.29,7.29-12.39,7.36-4.48.06-8.17-2.07-11.21-5.85a19.44,19.44,0,0,1-3.39-6.28A26.16,26.16,0,0,1,106,60.2Zm17,6.57c-1-2.39-2.51-3.6-4.31-3.58-2.11,0-3.74,1.6-4.91,4.6a22.05,22.05,0,0,0-1.61,7.09,9.45,9.45,0,0,0,.57,3.25,7.34,7.34,0,0,0,1.91,3.34,5.6,5.6,0,0,0,3.78,1.26A5.18,5.18,0,0,0,123.19,80a11.8,11.8,0,0,0,1.33-5.78A17.91,17.91,0,0,0,123,66.78Z"/><path class="cls-2" d="M115.61,93.56c-4.47,0-8.39-2.07-11.68-6.17a20.09,20.09,0,0,1-3.54-6.56,25.74,25.74,0,0,1-1.11-8.06,26.07,26.07,0,0,1,4-13.71c3.25-5.18,7.82-7.82,13.56-7.89H117c4.81,0,8.87,2.11,12.06,6.26a19.84,19.84,0,0,1,3.59,7.07,26.87,26.87,0,0,1,.77,7.9,25.84,25.84,0,0,1-4.55,13.42c-3.39,5.06-7.79,7.67-13.08,7.74ZM117,52.85h-.17c-5.13.07-9.22,2.45-12.15,7.1A24.3,24.3,0,0,0,101,72.78a24,24,0,0,0,1,7.54,18.83,18.83,0,0,0,3.25,6c3,3.72,6.37,5.52,10.36,5.52h.18c4.76-.06,8.58-2.34,11.69-7a24.08,24.08,0,0,0,4.27-12.55,25.07,25.07,0,0,0-.71-7.41,18.41,18.41,0,0,0-3.29-6.46C124.88,54.73,121.28,52.85,117,52.85Zm-.57,30a6.48,6.48,0,0,1-4.33-1.47A7.93,7.93,0,0,1,110,77.69a10.1,10.1,0,0,1-.61-3.55A22.86,22.86,0,0,1,111,66.78c1.31-3.38,3.23-5.1,5.68-5.12h.06c1.49,0,3.57.7,5.05,4.08a18.69,18.69,0,0,1,1.55,7.76,12.63,12.63,0,0,1-1.45,6.19,6,6,0,0,1-5.45,3.19Zm.3-20.38,0,.86c-1.72,0-3.07,1.34-4.13,4.06A21.49,21.49,0,0,0,111,74.21a9,9,0,0,0,.52,2.94,6.5,6.5,0,0,0,1.66,3,4.74,4.74,0,0,0,3.14,1.07,4.37,4.37,0,0,0,4.07-2.34,11,11,0,0,0,1.22-5.38,16.87,16.87,0,0,0-1.41-7c-.89-2-2.07-3.07-3.49-3.07Z"/><path class="cls-4" d="M147,55c2.38-.29,3.57-.45,6-.73s3.66-.38,6.11-.61C158,61,157.37,67.78,157,73.92a140,140,0,0,0-.24,16.83c-4.15.8-6.21,1.21-10.34,2.07-.17,0-2.24-.32-6.05-1-1.47-.28-2.89-.54-4.18-.72l-2.24-.45c1.61-3.74,2.43-5.62,4.09-9.36l4.18.63c1.67.22,2.5.34,4.17.58C146.6,71.47,146.72,66,147,55Z"/><path class="cls-2" d="M144.43,93h-.09c-.28,0-2.57-.35-6.2-1-1.53-.3-2.89-.56-4.14-.72l-3.33-.66.42-1c1.62-3.75,2.43-5.63,4.09-9.37l.26-.58.64.09c1.68.23,2.51.36,4.19.61l3.22.44.64-27.19,1-.12c2.22-.28,3.41-.42,5.72-.69s3.68-.38,6.12-.62L158,52l-.15,1.06c-.92,6.56-1.62,13.35-2.08,20.19A135.61,135.61,0,0,0,155.55,90l0,.74-.73.14c-4.14.8-6.21,1.22-10.32,2.08Zm-11.36-3.69,1.22.25c1.24.15,2.62.43,4.08.69,3.47.66,5.46,1,5.94,1,3.8-.79,5.85-1.2,9.5-1.9a144,144,0,0,1,.27-16.19c.44-6.51,1.09-13,2-19.24l-5,.52c-2.12.23-3.31.39-5.23.63l-.64,27.65-1-.15L140,82l-3.55-.53C135.14,84.51,134.35,86.32,133.08,89.26Z"/><path class="cls-4" d="M178.33,64.44c-2,.06-5.51-.14-6,.28s-.35,2.15-.42,2.7c-.13,1-.2,1.57-.33,2.64,1.89-.15,2.83-.24,4.73-.38l4.7-.52c.07,1.5.1,2.25.16,3.75s.18,2.3.29,3.83l-6,.51c-1.61.14-3.06.32-4.32.45l-.41,5c2.5-.19,3.76-.28,6.27-.45s3.72-.25,6.21-.39c.12,2,.19,3,.31,5s.14,3,.23,5a91.77,91.77,0,0,0-10.71.45c-4,.39-12.69,2.3-13.24,1.82-.37-.33.16-5.35.31-9.53.13-3.87.18-5.81.31-9.7q.44-12.66.66-19.15c4.59-.31,6.88-.44,11.48-.68s6.95-.33,11.59-.49c.13,2,.2,3,.34,4.94s.19,3,.32,5C182.51,64.42,180.32,64.39,178.33,64.44Z"/><path class="cls-2" d="M158.24,94.29a1.51,1.51,0,0,1-1-.28c-.5-.45-.52-1-.23-5.73.09-1.43.19-3,.24-4.45l1-29.64.76-.05c4.59-.3,6.89-.44,11.5-.67s7-.33,11.59-.49l.82,0,.77,11.64h-2c-1.86,0-3.65,0-5.3,0h-3.06a16.15,16.15,0,0,0-2.32.09,12.74,12.74,0,0,0-.14,1.42c0,.3,0,.57-.05.73l-.21,1.59,3.69-.28,4.67-.52.9-.09.55,9.3-6.85.56c-1,.08-2,.19-2.85.28l-.75.08-.28,3.29c1.89-.14,3.13-.23,5.29-.37l6.21-.4.85,0L182.61,92h-.9a98.65,98.65,0,0,0-10.61.45c-1.63.15-4.08.58-6.45,1A55.67,55.67,0,0,1,158.24,94.29Zm1.64-38.51-.94,28.09c0,1.47-.15,3.06-.24,4.51s-.21,3.33-.19,4.19c1.12-.06,3.53-.48,5.86-.88s4.88-.84,6.57-1a90.2,90.2,0,0,1,9.91-.47L180.4,82l-5.35.35c-2.51.17-3.76.26-6.27.45l-1,.08.56-6.68,2.14-.22c.9-.1,1.87-.22,2.9-.3l5.18-.43-.35-5.87-3.79.42-4.76.37-1,.09.48-3.67c0-.14,0-.35,0-.61.08-1.33.16-2.18.65-2.61s1.21-.5,3.51-.5h3c1.67-.05,3.48-.05,5.37,0h.21l-.54-8.16c-4.1.14-6.41.25-10.75.46S164,55.52,159.87,55.78Z"/><path class="cls-4" d="M187.21,86.08a24.77,24.77,0,0,1-1.58-11.31,25.5,25.5,0,0,1,3.14-10.09,18.19,18.19,0,0,1,6.53-7,12,12,0,0,1,9.06-1.31c3.46.81,6.91,3,10.2,6.68-1.33,1.33-2,2-3.32,3.32s-2,2-3.35,3.33c-3.34-2.71-6.27-3.13-8.67-1.38-2.06,1.5-3.32,4.13-3.5,7.72s.69,6.27,2.34,8.1c2,2.18,4.77,2.25,8.43.14,1.85,2.88,2.77,4.35,4.57,7.24-3.17,3.31-6.45,5.1-9.85,5.41a11.46,11.46,0,0,1-8.33-2.81A18.71,18.71,0,0,1,187.21,86.08Z"/><path class="cls-2" d="M198.27,97.13a12.61,12.61,0,0,1-7.93-3,19.55,19.55,0,0,1-6-8.42A25.7,25.7,0,0,1,182.76,74,26.24,26.24,0,0,1,186,63.56a19,19,0,0,1,6.84-7.32,13.07,13.07,0,0,1,9.68-1.4c3.69.87,7.27,3.22,10.64,6.95l.54.61-.88.87c-1.13,1.12-1.8,1.78-3,3l-3.36,3.33-.54.53-.6-.47c-3-2.43-5.51-2.9-7.63-1.36-1.9,1.37-3,3.83-3.15,7.08s.57,5.76,2.13,7.47c1.72,1.9,4.11,1.85,7.38,0l.7-.4.44.68c1.85,2.89,2.77,4.35,4.58,7.26l.35.56-.46.47c-3.31,3.45-6.8,5.36-10.39,5.67C198.95,97.11,198.61,97.13,198.27,97.13Zm1.1-41a11.16,11.16,0,0,0-5.67,1.56,17.18,17.18,0,0,0-6.22,6.67,24.46,24.46,0,0,0-3,9.76A23.85,23.85,0,0,0,186,85.07a17.88,17.88,0,0,0,5.42,7.7,10.52,10.52,0,0,0,7.73,2.62c3-.26,6-1.8,8.84-4.68-1.44-2.31-2.32-3.72-3.79-6-3.67,1.9-6.63,1.65-8.77-.69-1.87-2.06-2.75-5.07-2.57-8.71s1.53-6.67,3.86-8.36c2.57-1.88,5.73-1.57,9.1.93,1-1,1.66-1.67,2.82-2.81s1.77-1.78,2.74-2.74a19,19,0,0,0-9.22-5.83A11.88,11.88,0,0,0,199.37,56.15Z"/><path class="cls-4" d="M243.3,71.71c-4.88-.52-10-1.35-10.54-1-1.23.91-1.73,13.7-2.47,28.26-4.84.28-7.26.43-12.07.8,1.48-11.82,2.21-17.73,3.69-29.53-.63-.05-2.08-.06-4.32-.05-2,0-3.7,0-5-.05.76-4.07,1.15-6.09,1.93-10.15,11.39.3,17.1.56,28.52,1.28C243.16,65.48,243.21,67.56,243.3,71.71Z"/><path class="cls-2" d="M215.25,100l3.7-29.65h-3.77c-1.86,0-3.39,0-4.62,0l-1,0,.18-1c.77-4.08,1.16-6.1,1.93-10.14l.14-.71.72,0c11.45.3,17.05.55,28.56,1.29l.77.05,0,.77c.11,4.16.16,6.25.25,10.41l0,1-1-.09c-1.48-.17-3-.35-4.4-.53-2.33-.29-4.35-.53-5.34-.53h-.24c-.79,1.51-1.34,12.57-1.87,23.28l-.25,5-.76.05c-4.84.26-7.25.43-12.05.79Zm.8-31.37c2,0,3.3,0,3.91.07l.9.05-3.68,29.41c3.92-.29,6.27-.44,10.28-.68l.18-3.51c.92-18.54,1.34-23.69,2.59-24.62a1.9,1.9,0,0,1,1.22-.27c1.1,0,3.16.25,5.55.55l3.41.41c-.07-3.29-.12-5.32-.22-8.67-10.72-.67-16.3-.93-27-1.21-.62,3.27-1,5.24-1.6,8.44,1,0,2.21,0,3.57,0Z"/></svg>