<svg id="Capa_1" data-name="Capa 1" xmlns="http://www.w3.org/2000/svg" xmlns:xlink="http://www.w3.org/1999/xlink" viewBox="0 0 192 220"><defs><style>.cls-1{mask:url(#mask);filter:url(#luminosity-noclip-3);}.cls-2,.cls-4{mix-blend-mode:multiply;}.cls-2{fill:url(#linear-gradient);}.cls-3{mask:url(#mask-2);filter:url(#luminosity-noclip-4);}.cls-4{fill:url(#linear-gradient-2);}.cls-5{opacity:0.2;}.cls-6{fill:#312d2f;}.cls-7{fill:url(#linear-gradient-3);}.cls-8{fill:url(#linear-gradient-4);}.cls-9{fill:#fff;}.cls-10{fill:url(#linear-gradient-5);}.cls-11{fill:url(#linear-gradient-6);}.cls-12{fill:url(#linear-gradient-7);}.cls-13{fill:url(#linear-gradient-8);}.cls-14{fill:url(#linear-gradient-9);}.cls-15{fill:url(#linear-gradient-10);}.cls-16{fill:url(#linear-gradient-11);}.cls-17{fill:url(#linear-gradient-12);}.cls-18{fill:url(#linear-gradient-13);}.cls-19{fill:url(#linear-gradient-14);}.cls-20{fill:url(#linear-gradient-15);}.cls-21{fill:url(#linear-gradient-16);}.cls-22{fill:#e8e8e8;}.cls-23{fill:url(#linear-gradient-17);}.cls-24{fill:url(#linear-gradient-18);}.cls-25{fill:url(#linear-gradient-19);}.cls-26{fill:#656567;}.cls-27{fill:#4e4e4d;}.cls-28{fill:#3e393c;}.cls-29{fill:#7e7f7f;}.cls-30{fill:url(#linear-gradient-20);}.cls-31{fill:url(#linear-gradient-21);}.cls-32{fill:url(#linear-gradient-22);}.cls-33{mask:url(#mask-3);}.cls-34{fill:url(#linear-gradient-23);}.cls-35{fill:url(#linear-gradient-24);}.cls-36{fill:url(#linear-gradient-25);}.cls-37{fill:url(#linear-gradient-26);}.cls-38{mask:url(#mask-4);}.cls-39{fill:url(#linear-gradient-27);}.cls-40{fill:#f5f5f5;}.cls-41{fill:#9d9d9d;}.cls-42{fill:#cacbcc;}.cls-43{fill:#a8a9ab;}.cls-44{fill:#878787;}.cls-45{fill:url(#radial-gradient);}.cls-46{fill:url(#radial-gradient-2);}.cls-47{fill:url(#radial-gradient-3);}.cls-48{fill:url(#radial-gradient-4);}.cls-49{fill:#8e90b1;}.cls-50{fill:url(#radial-gradient-5);}.cls-51{fill:url(#radial-gradient-6);}.cls-52{fill:url(#linear-gradient-28);}.cls-53{fill:url(#linear-gradient-29);}.cls-54{fill:url(#linear-gradient-30);}.cls-55{fill:url(#linear-gradient-31);}.cls-56{fill:url(#linear-gradient-32);}.cls-57{fill:url(#linear-gradient-33);}.cls-58{fill:url(#linear-gradient-34);}.cls-59{fill:url(#linear-gradient-35);}.cls-60{fill:url(#linear-gradient-36);}.cls-61{fill:url(#linear-gradient-37);}.cls-62{fill:url(#linear-gradient-38);}.cls-63{fill:url(#linear-gradient-39);}.cls-64{filter:url(#luminosity-noclip-2);}.cls-65{filter:url(#luminosity-noclip);}</style><filter id="luminosity-noclip" x="20.58" y="-6605" width="31.59" height="32766" filterUnits="userSpaceOnUse" color-interpolation-filters="sRGB"><feFlood flood-color="#fff" result="bg"/><feBlend in="SourceGraphic" in2="bg"/></filter><mask id="mask" x="20.58" y="-6605" width="31.59" height="32766" maskUnits="userSpaceOnUse"><g class="cls-65"/></mask><linearGradient id="linear-gradient" x1="3933.81" y1="-3678.13" x2="3933.81" y2="-3692.15" gradientTransform="translate(-1307.93 -5136.99) rotate(118.71)" gradientUnits="userSpaceOnUse"><stop offset="0"/><stop offset="1" stop-color="#fff"/></linearGradient><filter id="luminosity-noclip-2" x="115.66" y="-6605" width="15.43" height="32766" filterUnits="userSpaceOnUse" color-interpolation-filters="sRGB"><feFlood flood-color="#fff" result="bg"/><feBlend in="SourceGraphic" in2="bg"/></filter><mask id="mask-2" x="115.66" y="-6605" width="15.43" height="32766" maskUnits="userSpaceOnUse"><g class="cls-64"/></mask><linearGradient id="linear-gradient-2" x1="335.52" y1="-1450.52" x2="335.52" y2="-1457.36" gradientTransform="translate(1238.35 1124.72) rotate(-61.29)" xlink:href="#linear-gradient"/><linearGradient id="linear-gradient-3" x1="321.45" y1="-2467.68" x2="321.45" y2="-2464.86" gradientTransform="matrix(0.48, -0.88, -0.88, -0.48, -2241.49, -755.6)" gradientUnits="userSpaceOnUse"><stop offset="0" stop-color="#656567"/><stop offset="1" stop-color="#3e393c"/></linearGradient><linearGradient id="linear-gradient-4" x1="321.45" y1="-2447.4" x2="321.45" y2="-2444.58" xlink:href="#linear-gradient-3"/><linearGradient id="linear-gradient-5" x1="255.6" y1="-2440.34" x2="269.2" y2="-2440.34" xlink:href="#linear-gradient-3"/><linearGradient id="linear-gradient-6" x1="255.61" y1="-2455.66" x2="269.2" y2="-2455.66" xlink:href="#linear-gradient-3"/><linearGradient id="linear-gradient-7" x1="270.83" y1="-2440.34" x2="284.66" y2="-2440.34" gradientTransform="matrix(1, 0, 0, -1, -241.87, -2274.59)" xlink:href="#linear-gradient-3"/><linearGradient id="linear-gradient-8" x1="255.6" y1="-2471.11" x2="269.21" y2="-2471.11" gradientTransform="matrix(1, 0, 0, -1, -206.21, -2277.24)" xlink:href="#linear-gradient-3"/><linearGradient id="linear-gradient-9" x1="270.83" y1="-2471.1" x2="284.66" y2="-2471.1" gradientTransform="matrix(1, 0, 0, -1, -216.7, -2290.45)" xlink:href="#linear-gradient-3"/><linearGradient id="linear-gradient-10" x1="286.3" y1="-2440.34" x2="299.2" y2="-2440.34" xlink:href="#linear-gradient-3"/><linearGradient id="linear-gradient-11" x1="286.28" y1="-2471.1" x2="299.2" y2="-2471.1" gradientTransform="matrix(1, 0, 0, -1, -224.24, -2303.65)" xlink:href="#linear-gradient-3"/><linearGradient id="linear-gradient-12" x1="300.82" y1="-2471.11" x2="315.37" y2="-2471.11" xlink:href="#linear-gradient-3"/><linearGradient id="linear-gradient-13" x1="286.29" y1="-2455.66" x2="299.2" y2="-2455.66" xlink:href="#linear-gradient-3"/><linearGradient id="linear-gradient-14" x1="270.83" y1="-2455.66" x2="284.68" y2="-2455.66" gradientTransform="matrix(1, 0, 0, -1, -227.8, -2282.66)" xlink:href="#linear-gradient-3"/><linearGradient id="linear-gradient-15" x1="300.83" y1="-2440.34" x2="315.36" y2="-2440.34" xlink:href="#linear-gradient-3"/><linearGradient id="linear-gradient-16" x1="300.82" y1="-2455.67" x2="315.35" y2="-2455.67" xlink:href="#linear-gradient-3"/><linearGradient id="linear-gradient-17" x1="3819.07" y1="-2467.45" x2="3819.07" y2="-2464.63" gradientTransform="translate(3924.96 -2375.27) rotate(-180)" xlink:href="#linear-gradient-3"/><linearGradient id="linear-gradient-18" x1="3819.06" y1="-2447.17" x2="3819.06" y2="-2444.35" gradientTransform="translate(-236.96 -4442.68) rotate(118.53)" xlink:href="#linear-gradient-3"/><linearGradient id="linear-gradient-19" x1="3845.28" y1="-2560.02" x2="3848.6" y2="-2555.05" gradientTransform="translate(-236.96 -4442.68) rotate(118.53)" gradientUnits="userSpaceOnUse"><stop offset="0" stop-color="#eaeaeb"/><stop offset="1" stop-color="#bcbec0"/></linearGradient><linearGradient id="linear-gradient-20" x1="3929.29" y1="-3679.85" x2="3909.87" y2="-3690.96" gradientTransform="translate(-1307.93 -5136.99) rotate(118.71)" gradientUnits="userSpaceOnUse"><stop offset="0" stop-color="#8e8e8e"/><stop offset="1" stop-color="#3e393c"/></linearGradient><linearGradient id="linear-gradient-21" x1="3940.87" y1="-3683.75" x2="3909.94" y2="-3688.31" gradientTransform="translate(-1307.93 -5136.99) rotate(118.71)" xlink:href="#linear-gradient-3"/><linearGradient id="linear-gradient-22" x1="3941.53" y1="-3695.19" x2="3951.56" y2="-3682.75" gradientTransform="translate(-1307.93 -5136.99) rotate(118.71)" xlink:href="#linear-gradient-3"/><filter id="luminosity-noclip-3" x="20.58" y="63.64" width="31.59" height="42.21" filterUnits="userSpaceOnUse" color-interpolation-filters="sRGB"><feFlood flood-color="#fff" result="bg"/><feBlend in="SourceGraphic" in2="bg"/></filter><mask id="mask-3" x="20.58" y="63.64" width="31.59" height="42.21" maskUnits="userSpaceOnUse"><g class="cls-1"><path class="cls-2" d="M23,100.9l1.43.76,2.81,1.48L30,104.55l1.32.67a7.79,7.79,0,0,1,1.28.64,48.67,48.67,0,0,1,2.7-10.48A67.23,67.23,0,0,1,44.8,78.07a49.76,49.76,0,0,1,7.37-7.91A6.7,6.7,0,0,1,51,69.43c-.42-.27-.87-.51-1.29-.76-.88-.52-1.77-1-2.65-1.55-1.85-1.06-3.7-2.16-5.6-3.14a2.89,2.89,0,0,0-1-.33c-.61-.07-1.07.38-1.54.84A55.8,55.8,0,0,0,33,71.76,95.74,95.74,0,0,0,28,80.1c-1.83,3.34-3.22,6.26-4.29,8.76-.08.21-.17.43-.27.64a59.26,59.26,0,0,0-2.09,5.84c-.36,1.21-1.17,3.06-.42,4a6.3,6.3,0,0,0,.72.74A9.34,9.34,0,0,0,23,100.9Z"/></g></mask><linearGradient id="linear-gradient-23" x1="3933.81" y1="-3678.13" x2="3933.81" y2="-3692.15" gradientTransform="translate(-1307.93 -5136.99) rotate(118.71)" xlink:href="#linear-gradient-3"/><linearGradient id="linear-gradient-24" x1="333.33" y1="-1451.35" x2="323.84" y2="-1456.79" gradientTransform="translate(1238.35 1124.72) rotate(-61.29)" xlink:href="#linear-gradient-20"/><linearGradient id="linear-gradient-25" x1="338.97" y1="-1453.26" x2="323.87" y2="-1455.48" gradientTransform="translate(1238.35 1124.72) rotate(-61.29)" xlink:href="#linear-gradient-3"/><linearGradient id="linear-gradient-26" x1="339.3" y1="-1458.84" x2="344.19" y2="-1452.77" gradientTransform="translate(1238.35 1124.72) rotate(-61.29)" xlink:href="#linear-gradient-3"/><filter id="luminosity-noclip-4" x="115.66" y="121.14" width="15.43" height="20.61" filterUnits="userSpaceOnUse" color-interpolation-filters="sRGB"><feFlood flood-color="#fff" result="bg"/><feBlend in="SourceGraphic" in2="bg"/></filter><mask id="mask-4" x="115.66" y="121.14" width="15.43" height="20.61" maskUnits="userSpaceOnUse"><g class="cls-3"><path class="cls-4" d="M129.88,123.56l-.7-.38-1.37-.72-1.32-.68-.66-.32a3.52,3.52,0,0,1-.63-.31,23.51,23.51,0,0,1-1.32,5.12,35.81,35.81,0,0,1-2,4.4,31.79,31.79,0,0,1-2.63,4.05,23.08,23.08,0,0,1-3.6,3.86,3.12,3.12,0,0,1,.59.36l.62.38,1.31.75c.92.51,1.8,1,2.74,1.53a1.3,1.3,0,0,0,.48.16c.3,0,.52-.2.75-.41a26.68,26.68,0,0,0,2.87-3.55c.75-1.11,1.57-2.44,2.47-4.08a47.52,47.52,0,0,0,2.09-4.28c0-.11.09-.21.14-.3.38-.94.72-1.9,1-2.86.18-.59.57-1.5.22-2a1.47,1.47,0,0,0-.36-.36A5,5,0,0,0,129.88,123.56Z"/></g></mask><linearGradient id="linear-gradient-27" x1="335.52" y1="-1450.52" x2="335.52" y2="-1457.36" gradientTransform="translate(1238.35 1124.72) rotate(-61.29)" xlink:href="#linear-gradient-3"/><radialGradient id="radial-gradient" cx="4335.68" cy="-4049.29" r="1.99" gradientTransform="matrix(-0.4, 0.73, -0.88, -0.48, -1735.99, -4960.25)" xlink:href="#linear-gradient-20"/><radialGradient id="radial-gradient-2" cx="4335.68" cy="-4015.54" r="1.99" gradientTransform="matrix(-0.4, 0.73, -0.88, -0.48, -1735.99, -4960.25)" xlink:href="#linear-gradient-20"/><radialGradient id="radial-gradient-3" cx="-3831.63" cy="-4048.64" r="1.99" gradientTransform="matrix(0.4, -0.73, -0.88, -0.48, -1917.42, -4624.68)" xlink:href="#linear-gradient-20"/><radialGradient id="radial-gradient-4" cx="-3831.64" cy="-4014.87" r="1.99" gradientTransform="matrix(0.4, -0.73, -0.88, -0.48, -1917.42, -4624.68)" xlink:href="#linear-gradient-20"/><radialGradient id="radial-gradient-5" cx="3892.35" cy="-3752.66" r="11.7" gradientTransform="translate(-1376.66 -5112.71) rotate(118.52)" xlink:href="#linear-gradient-20"/><radialGradient id="radial-gradient-6" cx="3892.36" cy="-3791.5" r="11.71" gradientTransform="translate(-1376.66 -5112.71) rotate(118.52)" xlink:href="#linear-gradient-20"/><linearGradient id="linear-gradient-28" x1="3753.21" y1="-2440.11" x2="3766.84" y2="-2440.11" gradientTransform="translate(-236.96 -4442.68) rotate(118.53)" xlink:href="#linear-gradient-3"/><linearGradient id="linear-gradient-29" x1="3753.22" y1="-2455.44" x2="3766.82" y2="-2455.44" gradientTransform="translate(-236.96 -4442.68) rotate(118.53)" xlink:href="#linear-gradient-3"/><linearGradient id="linear-gradient-30" x1="3768.45" y1="-2440.12" x2="3782.29" y2="-2440.12" gradientTransform="translate(-236.96 -4442.68) rotate(118.53)" xlink:href="#linear-gradient-3"/><linearGradient id="linear-gradient-31" x1="3753.22" y1="-2470.87" x2="3766.83" y2="-2470.87" gradientTransform="translate(-236.96 -4442.68) rotate(118.53)" xlink:href="#linear-gradient-3"/><linearGradient id="linear-gradient-32" x1="3768.44" y1="-2470.87" x2="3782.29" y2="-2470.87" gradientTransform="translate(-236.96 -4442.68) rotate(118.53)" xlink:href="#linear-gradient-3"/><linearGradient id="linear-gradient-33" x1="3783.91" y1="-2440.11" x2="3796.83" y2="-2440.11" gradientTransform="translate(-236.96 -4442.68) rotate(118.53)" xlink:href="#linear-gradient-3"/><linearGradient id="linear-gradient-34" x1="3783.91" y1="-2470.87" x2="3796.82" y2="-2470.87" gradientTransform="translate(-236.96 -4442.68) rotate(118.53)" xlink:href="#linear-gradient-3"/><linearGradient id="linear-gradient-35" x1="3798.45" y1="-2470.87" x2="3812.98" y2="-2470.87" gradientTransform="translate(-236.96 -4442.68) rotate(118.53)" xlink:href="#linear-gradient-3"/><linearGradient id="linear-gradient-36" x1="3783.91" y1="-2455.43" x2="3796.83" y2="-2455.43" gradientTransform="translate(3901.76 -2393.34) rotate(-179.97)" xlink:href="#linear-gradient-3"/><linearGradient id="linear-gradient-37" x1="3768.45" y1="-2455.43" x2="3782.29" y2="-2455.43" gradientTransform="translate(3893.03 -2407.92) rotate(-179.99)" xlink:href="#linear-gradient-3"/><linearGradient id="linear-gradient-38" x1="3798.45" y1="-2440.12" x2="3812.98" y2="-2440.12" gradientTransform="translate(-236.96 -4442.68) rotate(118.53)" xlink:href="#linear-gradient-3"/><linearGradient id="linear-gradient-39" x1="3798.45" y1="-2455.44" x2="3812.98" y2="-2455.44" gradientTransform="matrix(-1, 0, 0, -1, 3908.69, -2381.55)" xlink:href="#linear-gradient-3"/></defs><title>assets</title><g class="cls-5"><path class="cls-6" d="M120.92,190.68l14.56-26.79,34.09-4.71a3.75,3.75,0,0,0,.7,1.83Zm48.89-33.47a4.27,4.27,0,0,0-.3,1l-33.44,4.62,9.23-17ZM66.22,126.53l12.83,7-2.78,5.11-12.85-7Zm-8.05,81.2a4.58,4.58,0,0,0,4.1-2.34l29-53.35a4.61,4.61,0,0,0-1.85-6.27l-8.16-4.43L84,136.23l17.24,9.38,3.79,2.11,2.33,1.29a1.64,1.64,0,0,0,.64.31,2.28,2.28,0,0,0,1.83-.49,3.78,3.78,0,0,0,2.54-1.6c1.1-1.24,2.86-3.44,4.82-6.17.21-.27.42-.6.62-.87,0,0,0-.05,0-.06a2.21,2.21,0,0,1,.34.2c.9.51,1.81,1,2.74,1.53a1.22,1.22,0,0,0,.48.15c.06,0,.11,0,.17,0-9.2,21-10.46,41-3.31,50.63l1.21.65.45-.83,51-30.69a3.8,3.8,0,0,0,.53.45,4,4,0,0,0,3.79-7,4.54,4.54,0,0,0-.82-.24l-2-59.18.6-1.11L171.92,94c-12-.79-28.23,11.31-40.88,30.61a.76.76,0,0,0-.1-.27,1.47,1.47,0,0,0-.36-.36,5,5,0,0,0-.7-.39l-.7-.38-1.37-.72s0,0-.07,0c.16-.39.37-.8.51-1.18s.38-.89.54-1.32c1.23-3.1,2.13-5.78,2.61-7.38a4.09,4.09,0,0,0,.07-2.79,1.58,1.58,0,0,0-1-1l-2.33-1.29-22-12L108.62,91l7.15,3.86a4.48,4.48,0,0,0,4.17,0A4.53,4.53,0,0,0,123,92.64l29-53.36A4.6,4.6,0,0,0,150.18,33L112.58,12.6a4.5,4.5,0,0,0-4.18,0,4.67,4.67,0,0,0-3.08,2.26l-29,53.36a4.6,4.6,0,0,0,1.84,6.26l7.65,4.15-2.45,4.52L60.22,70.51,56.4,68.39l-2.31-1.27a1.51,1.51,0,0,0-.64-.32,2.33,2.33,0,0,0-1.84.49,3.11,3.11,0,0,0-1.88,1,.93.93,0,0,0-.15-.11L46.91,66.6c-1.85-1.07-3.69-2.15-5.59-3.12a2.3,2.3,0,0,0-1-.33c-.63-.08-1.08.37-1.54.84-.13.13-.29.29-.43.46-1.19,0-4.4.4-8.82,5.72-.12.16-.25.3-.37.45a57.86,57.86,0,0,0-8.57,15.69,3.4,3.4,0,0,1-.15.46c-2.28,7.19-.45,10.08.1,10.74a2.84,2.84,0,0,0,.06.79,1.82,1.82,0,0,0,.28,1.07,6.3,6.3,0,0,0,.72.74,9.34,9.34,0,0,0,1.44.78l1.43.76,2.81,1.48,2.63,1.36a3.72,3.72,0,0,0,.06,1.88,1.57,1.57,0,0,0,1,1l2.32,1.27,27.91,15.21-2.8,5.12-6.61-3.58a4.46,4.46,0,0,0-3.58-.35,4.51,4.51,0,0,0-4.08,2.35l-29,53.35A4.6,4.6,0,0,0,17,187L54.59,207.4A4.52,4.52,0,0,0,58.17,207.74Zm115.35-53a3.81,3.81,0,0,0-2,.52l-14.51-31,14.56-26.78Zm-2.79,1.1a4,4,0,0,0-.48.58L147.37,142l9.08-16.69ZM90.79,81.3l12.85,7-2.47,4.54-12.84-7Z"/></g><polygon class="cls-7" points="79.68 132.36 73.02 144.59 78 147.31 84.65 135.07 79.68 132.36"/><polygon class="cls-8" points="61.86 122.68 55.2 134.91 60.18 137.62 66.83 125.39 61.86 122.68"/><path class="cls-9" d="M91.26,152l-29,53.35A4.63,4.63,0,0,1,56,207.26L18.4,186.81a4.62,4.62,0,0,1-1.85-6.27l29-53.36a4.58,4.58,0,0,1,6.26-1.82l37.59,20.41A4.61,4.61,0,0,1,91.26,152Z"/><polygon class="cls-10" points="30.63 188.58 18.71 182.09 25.21 170.16 37.12 176.63 30.63 188.58"/><polygon class="cls-11" points="50.7 184.01 44.21 195.94 32.05 189.34 38.56 177.4 50.7 184.01"/><rect class="cls-12" x="28.33" y="159.1" width="13.83" height="13.55" transform="translate(-127.34 117.66) rotate(-61.49)"/><rect class="cls-13" x="48.15" y="187.16" width="13.6" height="13.78" transform="translate(-141.8 149.75) rotate(-61.5)"/><rect class="cls-14" x="55.35" y="173.67" width="13.83" height="13.78" transform="translate(-126.1 148.94) rotate(-61.44)"/><polygon class="cls-15" points="45.28 161.59 33.38 155.12 39.55 143.8 51.44 150.26 45.28 161.59"/><rect class="cls-16" x="62.98" y="160.5" width="12.91" height="13.79" transform="translate(-110.79 148.38) rotate(-61.45)"/><polygon class="cls-17" points="67.25 157 74.19 144.22 86.28 150.81 79.35 163.59 67.25 157"/><polygon class="cls-18" points="46.7 162.38 52.88 151.04 65.03 157.66 58.87 168.99 46.7 162.38"/><rect class="cls-19" x="41.79" y="166.27" width="13.84" height="13.83" transform="translate(-126.73 133.36) rotate(-61.5)"/><polygon class="cls-20" points="40.31 142.36 47.25 129.6 59.17 136.07 52.22 148.83 40.31 142.36"/><polygon class="cls-21" points="53.65 149.62 60.59 136.85 72.75 143.46 65.81 156.21 53.65 149.62"/><path class="cls-22" d="M88,145.93,50.41,125.5a4.6,4.6,0,0,0-6.25,1.86l-29,53.35A4.6,4.6,0,0,0,17,187L54.59,207.4a4.62,4.62,0,0,0,6.26-1.85l29-53.36A4.63,4.63,0,0,0,88,145.93ZM72.41,176.36,60.3,169.77l6.16-11.35L78.57,165Zm-25.71-14L52.88,151,65,157.66,58.87,169ZM65,189.93l-12.11-6.59,6.61-12.14,12.11,6.59ZM39.33,176l6.6-12.16,12.15,6.61-6.6,12.16Zm6.31,20.78,6.49-12,12.12,6.57-6.49,12Zm-13.59-7.39,6.5-11.94L50.7,184l-6.49,11.93Zm-6.84-19.18,11.91,6.47-6.5,11.95-11.91-6.49Zm7.38-13.6L44.5,163l-6.6,12.14L26,168.71Zm7-12.77,11.89,6.46-6.16,11.33-11.9-6.47Zm19.62-7.73-6.95,12.76-11.91-6.47,6.94-12.76Zm13.58,7.4-6.94,12.75-12.16-6.59,6.94-12.76Zm13.54,7.35-6.93,12.78L67.25,157l6.94-12.77Z"/><rect class="cls-23" x="98.69" y="87.67" width="13.94" height="5.67" transform="translate(-24.31 140.12) rotate(-61.48)"/><polygon class="cls-24" points="82.02 85.58 88.67 73.34 93.66 76.04 87 88.28 82.02 85.58"/><path class="cls-9" d="M174.11,157.46,172,95.25Z"/><polygon class="cls-22" points="171.53 95.25 172.52 95.23 174.59 157.42 173.6 157.47 171.53 95.25"/><polygon class="cls-22" points="155.94 124.22 156.82 123.79 172.91 158.18 172 158.58 155.94 124.22"/><path class="cls-9" d="M172.61,160.17l-53.34,32.09Z"/><polygon class="cls-22" points="119.03 191.81 172.36 159.75 172.87 160.62 119.54 192.68 119.03 191.81"/><polygon class="cls-22" points="134.87 162.99 172.44 157.79 172.57 158.78 134.99 163.96 134.87 162.99"/><polygon class="cls-22" points="176.19 160.16 138.37 142.62 140.91 137.96 176.19 160.16"/><path class="cls-25" d="M171.55,162.17a4,4,0,1,1,5.38-1.61A4,4,0,0,1,171.55,162.17Z"/><path class="cls-26" d="M38.87,64.49h0s-3.73-1.05-9.34,5.68c-.12.16-.25.3-.37.45l3.39,1.86A54.9,54.9,0,0,1,38.87,64.49Z"/><path class="cls-27" d="M28,80.1c1.64-3,3.19-5.51,4.6-7.61l-3.39-1.86a57.86,57.86,0,0,0-8.57,15.69L24,88.17C25,85.83,26.29,83.15,28,80.1Z"/><path class="cls-28" d="M20.7,97.7A53.21,53.21,0,0,1,24,88.17l-3.39-1.85a3.4,3.4,0,0,1-.15.46c-2.65,8.35.26,10.92.26,10.92Z"/><path class="cls-29" d="M22.95,100.38c.47.24,1,.51,1.44.78.93.48,1.87,1,2.8,1.47L29.92,104c.45.21.89.45,1.35.68a7.67,7.67,0,0,1,1.27.64,47.7,47.7,0,0,1,2.71-10.49,67.14,67.14,0,0,1,9.48-17.3,48.21,48.21,0,0,1,7.35-7.91c-.07.08-1.09-.66-1.21-.73-.43-.24-.86-.52-1.29-.75L46.91,66.6c-1.85-1.07-3.69-2.15-5.59-3.12a2.3,2.3,0,0,0-1-.33c-.63-.08-1.08.37-1.54.84a52.45,52.45,0,0,0-5.85,7.26,93,93,0,0,0-5.08,8.33,96.84,96.84,0,0,0-4.27,8.77c-.1.21-.18.42-.28.64a52.63,52.63,0,0,0-2.08,5.82c-.37,1.2-1.18,3.08-.42,4a3.71,3.71,0,0,0,.72.76A8.64,8.64,0,0,0,22.95,100.38Z"/><path class="cls-30" d="M44.8,78.07a49.76,49.76,0,0,1,7.37-7.91A6.7,6.7,0,0,1,51,69.43c-.42-.27-.87-.51-1.29-.76-.88-.52-1.77-1-2.65-1.55-1.85-1.06-3.7-2.16-5.6-3.14a2.89,2.89,0,0,0-1-.33c-.61-.07-1.07.38-1.54.84A55.8,55.8,0,0,0,33,71.76Q39.34,75,44.8,78.07Z"/><path class="cls-31" d="M35.33,95.37A67.23,67.23,0,0,1,44.8,78.07q-5.45-3-11.77-6.31A95.74,95.74,0,0,0,28,80.1c-1.83,3.34-3.22,6.26-4.29,8.76C27.79,91.23,31.67,93.39,35.33,95.37Z"/><path class="cls-32" d="M35.33,95.37a48.67,48.67,0,0,0-2.7,10.48,7.79,7.79,0,0,0-1.28-.64L30,104.55l-2.73-1.41-2.81-1.48L23,100.9a9.34,9.34,0,0,1-1.44-.78,6.3,6.3,0,0,1-.72-.74c-.74-1,.06-2.83.42-4A59.26,59.26,0,0,1,23.4,89.5c.09-.21.18-.43.27-.64C27.79,91.23,31.67,93.39,35.33,95.37Z"/><g class="cls-33"><path class="cls-34" d="M23,100.9l1.43.76,2.81,1.48L30,104.55l1.32.67a7.79,7.79,0,0,1,1.28.64,48.67,48.67,0,0,1,2.7-10.48A67.23,67.23,0,0,1,44.8,78.07a49.76,49.76,0,0,1,7.37-7.91A6.7,6.7,0,0,1,51,69.43c-.42-.27-.87-.51-1.29-.76-.88-.52-1.77-1-2.65-1.55-1.85-1.06-3.7-2.16-5.6-3.14a2.89,2.89,0,0,0-1-.33c-.61-.07-1.07.38-1.54.84A55.8,55.8,0,0,0,33,71.76,95.74,95.74,0,0,0,28,80.1c-1.83,3.34-3.22,6.26-4.29,8.76-.08.21-.17.43-.27.64a59.26,59.26,0,0,0-2.09,5.84c-.36,1.21-1.17,3.06-.42,4a6.3,6.3,0,0,0,.72.74A9.34,9.34,0,0,0,23,100.9Z"/></g><path class="cls-26" d="M122.15,141.34h0s1.82.52,4.57-2.77l.17-.23-1.64-.89A27.21,27.21,0,0,1,122.15,141.34Z"/><path class="cls-27" d="M127.48,133.71c-.79,1.46-1.55,2.7-2.24,3.73l1.64.89a22.69,22.69,0,0,0,2.38-3.63,24.81,24.81,0,0,0,1.8-4l-1.64-.91C128.93,130.91,128.29,132.24,127.48,133.71Z"/><path class="cls-28" d="M131,125.11a27.08,27.08,0,0,1-1.61,4.67l1.64.91.1-.23c1.3-4.09-.13-5.35-.13-5.35Z"/><path class="cls-29" d="M129.93,123.8c-.23-.12-.48-.24-.7-.37l-1.37-.73-1.34-.68-.66-.32c-.05,0-.63-.27-.61-.32a23.81,23.81,0,0,1-1.34,5.12,32.38,32.38,0,0,1-2,4.39,31.89,31.89,0,0,1-2.63,4.06,22.85,22.85,0,0,1-3.59,3.87,5.5,5.5,0,0,1,.59.35c.21.14.41.26.62.39l1.31.76c.9.51,1.81,1,2.74,1.53a1.22,1.22,0,0,0,.48.15c.3,0,.52-.18.75-.41a26,26,0,0,0,2.86-3.57,46.33,46.33,0,0,0,2.47-4.06,44.23,44.23,0,0,0,2.09-4.28c.05-.09.09-.22.14-.32.37-.95.72-1.89,1-2.84.16-.6.57-1.52.2-2a2.72,2.72,0,0,0-.34-.37C130.43,124,130.15,123.93,129.93,123.8Z"/><path class="cls-35" d="M119.26,134.71a23.08,23.08,0,0,1-3.6,3.86,3.12,3.12,0,0,1,.59.36l.62.38,1.31.75c.92.51,1.8,1,2.74,1.53a1.3,1.3,0,0,0,.48.16c.3,0,.52-.2.75-.41a26.68,26.68,0,0,0,2.87-3.55C122.95,136.71,121,135.69,119.26,134.71Z"/><path class="cls-36" d="M123.89,126.26a35.81,35.81,0,0,1-2,4.4,31.79,31.79,0,0,1-2.63,4.05c1.78,1,3.69,2,5.76,3.08.75-1.11,1.57-2.44,2.47-4.08a47.52,47.52,0,0,0,2.09-4.28C127.57,128.29,125.68,127.21,123.89,126.26Z"/><path class="cls-37" d="M123.89,126.26a23.51,23.51,0,0,0,1.32-5.12,3.52,3.52,0,0,0,.63.31l.66.32,1.32.68,1.37.72.7.38a5,5,0,0,1,.7.39,1.47,1.47,0,0,1,.36.36c.36.46,0,1.37-.22,2-.29,1-.63,1.92-1,2.86-.05.09-.09.2-.14.3C127.57,128.29,125.68,127.21,123.89,126.26Z"/><g class="cls-38"><path class="cls-39" d="M129.88,123.56l-.7-.38-1.37-.72-1.32-.68-.66-.32a3.52,3.52,0,0,1-.63-.31,23.51,23.51,0,0,1-1.32,5.12,35.81,35.81,0,0,1-2,4.4,31.79,31.79,0,0,1-2.63,4.05,23.08,23.08,0,0,1-3.6,3.86,3.12,3.12,0,0,1,.59.36l.62.38,1.31.75c.92.51,1.8,1,2.74,1.53a1.3,1.3,0,0,0,.48.16c.3,0,.52-.2.75-.41a26.68,26.68,0,0,0,2.87-3.55c.75-1.11,1.57-2.44,2.47-4.08a47.52,47.52,0,0,0,2.09-4.28c0-.11.09-.21.14-.3.38-.94.72-1.9,1-2.86.18-.59.57-1.5.22-2a1.47,1.47,0,0,0-.36-.36A5,5,0,0,0,129.88,123.56Z"/></g><path class="cls-40" d="M109.36,148.78c.62.16,1.66,0,3-1.55,1.1-1.24,2.86-3.44,4.82-6.17.21-.27.42-.6.62-.87a98.65,98.65,0,0,0,5.89-9.29,96.22,96.22,0,0,0,4.52-9.66c.19-.45.38-.89.54-1.32,1.23-3.1,2.13-5.78,2.61-7.38a4.09,4.09,0,0,0,.07-2.79,1.58,1.58,0,0,0-1-1l-2.33-1.29-67.92-37L56.4,68.39l-2.31-1.27a1.51,1.51,0,0,0-.64-.32c-.63-.15-1.68,0-3.05,1.55-1.08,1.26-2.85,3.46-4.8,6.18a101.39,101.39,0,0,0-6.52,10.17,99.61,99.61,0,0,0-5.06,11c-1.23,3.11-2.14,5.79-2.62,7.38a4.31,4.31,0,0,0-.08,2.79,1.66,1.66,0,0,0,1,1l2.32,1.28,67.93,37,3.81,2.1,2.32,1.28A1.41,1.41,0,0,0,109.36,148.78Z"/><path class="cls-22" d="M55.07,68.91l-2.33-1.26a1.31,1.31,0,0,0-.62-.32L58.89,71Z"/><path class="cls-41" d="M31,107.35l2.32,1.27,67.93,37L30,106.37A1.57,1.57,0,0,0,31,107.35Z"/><path class="cls-42" d="M105.06,147.72l2.33,1.29a1.64,1.64,0,0,0,.64.31l-6.76-3.7Z"/><path class="cls-22" d="M127.47,120.45c1.23-3.12,2.14-5.79,2.6-7.4a4,4,0,0,0,.07-2.78,1.59,1.59,0,0,0-1-1L126.81,108,58.89,71l-6.77-3.71c-.63-.13-1.68,0-3,1.55-1.08,1.26-2.86,3.47-4.81,6.18l82.66,46.69C127.1,121.31,127.29,120.88,127.47,120.45Z"/><path class="cls-41" d="M111.08,147.75c1.09-1.24,2.83-3.45,4.81-6.17l.62-.89L32.68,96.2c-1.23,3.13-2.14,5.79-2.61,7.4a4.07,4.07,0,0,0-.08,2.78l71.28,39.24,6.76,3.7C108.65,149.45,109.7,149.33,111.08,147.75Z"/><path class="cls-42" d="M126.92,121.75,44.26,75.06a98.23,98.23,0,0,0-6.52,10.18,96.26,96.26,0,0,0-5.06,11l83.83,44.5a96.22,96.22,0,0,0,5.9-9.29A102.05,102.05,0,0,0,126.92,121.75Z"/><path class="cls-43" d="M91.07,136a1.84,1.84,0,0,1-1-2.36,2,2,0,1,1,1,2.36Z"/><path class="cls-43" d="M91.11,136a1.6,1.6,0,1,1,2.41-.47A1.77,1.77,0,0,1,91.11,136Z"/><path class="cls-44" d="M91.06,136a1.75,1.75,0,0,1-.93-2.29,1.93,1.93,0,0,1,3.33,1.84A1.75,1.75,0,0,1,91.06,136Z"/><path class="cls-45" d="M91.43,135.32a.91.91,0,0,1-.47-1.18.89.89,0,0,1,1.23-.24.82.82,0,1,1-.76,1.42Z"/><path class="cls-29" d="M93.29,135.51s0-.09,0-.1.05,0,.09,0,.07.07,0,.08A.07.07,0,0,1,93.29,135.51Z"/><path class="cls-9" d="M93.31,135.5s-.05-.09,0-.1a.06.06,0,0,1,.1,0s0,0,0,.08A.07.07,0,0,1,93.31,135.5Z"/><path class="cls-29" d="M90.25,133.84s-.07-.07-.05-.1a.07.07,0,0,1,.11,0,.06.06,0,0,1,0,.08A.08.08,0,0,1,90.25,133.84Z"/><path class="cls-9" d="M90.25,133.82s0-.06,0-.09.06,0,.11,0,.05,0,0,.08S90.3,133.85,90.25,133.82Z"/><path class="cls-29" d="M91.07,135.94a.1.1,0,0,1,0-.09s.06-.06.11,0,0,.07,0,.1A.07.07,0,0,1,91.07,135.94Z"/><path class="cls-9" d="M91.09,135.92a0,0,0,0,1,0-.09.06.06,0,0,1,.08,0,.12.12,0,0,1,0,.09S91.12,136,91.09,135.92Z"/><path class="cls-29" d="M92.46,133.4s0-.05,0-.09a.12.12,0,0,1,.11,0s.06.08,0,.11A.08.08,0,0,1,92.46,133.4Z"/><path class="cls-9" d="M92.48,133.39s-.05-.06,0-.09.05,0,.09,0a.08.08,0,0,1,0,.1A.11.11,0,0,1,92.48,133.39Z"/><path class="cls-29" d="M93.35,134.45a.08.08,0,0,1,0-.09s.06,0,.12,0,0,0,0,.08S93.41,134.47,93.35,134.45Z"/><path class="cls-9" d="M93.38,134.44s0-.07,0-.08.06,0,.1,0,0,0,0,.09S93.42,134.45,93.38,134.44Z"/><path class="cls-29" d="M90.24,135a.07.07,0,0,1,0-.1.09.09,0,0,1,.09,0,.06.06,0,0,1,0,.1A.07.07,0,0,1,90.24,135Z"/><path class="cls-9" d="M90.25,135a.07.07,0,0,1,0-.09s.06,0,.09,0a.08.08,0,0,1,0,.1A.14.14,0,0,1,90.25,135Z"/><path class="cls-29" d="M92.34,136.13s-.06-.06,0-.08a.07.07,0,0,1,.1,0,.05.05,0,0,1,0,.08A.08.08,0,0,1,92.34,136.13Z"/><path class="cls-9" d="M92.36,136.12a.08.08,0,0,1,0-.09.1.1,0,0,1,.1,0s.06.05,0,.09S92.4,136.14,92.36,136.12Z"/><path class="cls-29" d="M91.18,133.18s-.06-.06,0-.09a.08.08,0,0,1,.1,0s.06.08,0,.1S91.23,133.19,91.18,133.18Z"/><path class="cls-9" d="M91.21,133.16a.06.06,0,0,1,0-.08s.06,0,.1,0a.07.07,0,0,1,0,.1S91.24,133.19,91.21,133.16Z"/><path class="cls-43" d="M61.46,119.78a1.8,1.8,0,0,1-.93-2.35,1.83,1.83,0,0,1,2.5-.49,1.65,1.65,0,1,1-1.57,2.84Z"/><path class="cls-43" d="M61.5,119.77a1.76,1.76,0,0,1-.92-2.29,1.94,1.94,0,1,1,.92,2.29Z"/><path class="cls-44" d="M61.44,119.77a1.6,1.6,0,1,1,2.43-.46A1.77,1.77,0,0,1,61.44,119.77Z"/><path class="cls-46" d="M61.81,119.1a.92.92,0,0,1-.46-1.18,1,1,0,0,1,1.69.94A.91.91,0,0,1,61.81,119.1Z"/><path class="cls-29" d="M63.67,119.28s0-.06,0-.08.05,0,.09,0,.05.05,0,.09A.09.09,0,0,1,63.67,119.28Z"/><path class="cls-9" d="M63.69,119.27a.06.06,0,0,1,0-.09s.06,0,.09,0,.07.05,0,.09S63.73,119.29,63.69,119.27Z"/><path class="cls-29" d="M60.64,117.62s-.06-.08,0-.09a.08.08,0,0,1,.11,0s.06.07,0,.11S60.67,117.64,60.64,117.62Z"/><path class="cls-9" d="M60.66,117.61s-.06-.07,0-.09a.08.08,0,0,1,.11,0s0,.06,0,.08S60.7,117.62,60.66,117.61Z"/><path class="cls-29" d="M61.46,119.72a.1.1,0,0,1,0-.09.15.15,0,0,1,.11,0s.07.07,0,.09S61.5,119.73,61.46,119.72Z"/><path class="cls-9" d="M61.46,119.72s0-.07,0-.09.06,0,.09,0,.06.06,0,.08S61.51,119.73,61.46,119.72Z"/><path class="cls-29" d="M62.85,117.18s0-.05,0-.08a.07.07,0,0,1,.11,0,.08.08,0,0,1,0,.11A.08.08,0,0,1,62.85,117.18Z"/><path class="cls-9" d="M62.87,117.18s0-.06,0-.1a.06.06,0,0,1,.09,0s.06.06.05.1S62.91,117.18,62.87,117.18Z"/><path class="cls-29" d="M63.75,118.23s-.06-.05,0-.09.07,0,.11,0a.06.06,0,0,1,0,.09S63.79,118.25,63.75,118.23Z"/><path class="cls-9" d="M63.77,118.21s-.05,0,0-.07.06,0,.1,0,0,0,0,.08A.07.07,0,0,1,63.77,118.21Z"/><path class="cls-29" d="M60.64,118.84s0-.08-.06-.11a.14.14,0,0,1,.12,0,.11.11,0,0,1,0,.11S60.68,118.86,60.64,118.84Z"/><path class="cls-9" d="M60.66,118.82a.08.08,0,0,1,0-.09.08.08,0,0,1,.09,0s.06.05,0,.09A0,0,0,0,1,60.66,118.82Z"/><path class="cls-29" d="M62.73,119.93a.1.1,0,0,1,0-.1.09.09,0,0,1,.11,0s0,.05,0,.1A.2.2,0,0,1,62.73,119.93Z"/><path class="cls-9" d="M62.77,119.91s-.07-.07-.05-.08a.07.07,0,0,1,.11,0s0,.06,0,.1A.06.06,0,0,1,62.77,119.91Z"/><path class="cls-29" d="M61.58,117a.09.09,0,0,1,0-.1.07.07,0,0,1,.1,0s.05,0,0,.09S61.61,117,61.58,117Z"/><path class="cls-9" d="M61.59,117a.11.11,0,0,1,0-.11.09.09,0,0,1,.1,0,.07.07,0,0,1,0,.09A.09.09,0,0,1,61.59,117Z"/><path class="cls-43" d="M108.84,103.54a1.65,1.65,0,1,0-1.56,2.85,1.79,1.79,0,0,0,2.5-.48A1.81,1.81,0,0,0,108.84,103.54Z"/><path class="cls-43" d="M108.85,103.58a1.6,1.6,0,1,0,.91,2.28A1.76,1.76,0,0,0,108.85,103.58Z"/><path class="cls-44" d="M108.83,103.53a1.6,1.6,0,1,0-1.51,2.77,1.6,1.6,0,1,0,1.51-2.77Z"/><path class="cls-47" d="M108.46,104.21a.91.91,0,0,0-1.24.24,1,1,0,1,0,1.24-.24Z"/><path class="cls-29" d="M109.63,105.68a.08.08,0,0,0-.11,0s0,.09,0,.1.07,0,.11,0A.07.07,0,0,0,109.63,105.68Z"/><path class="cls-9" d="M109.64,105.69a.08.08,0,0,0-.11,0s0,.06,0,.08a0,0,0,0,0,.08,0A.07.07,0,0,0,109.64,105.69Z"/><path class="cls-29" d="M106.58,104s-.09,0-.09,0,0,.07,0,.09.1,0,.11,0A.06.06,0,0,0,106.58,104Z"/><path class="cls-9" d="M106.57,104s-.07,0-.09,0,0,.07,0,.08.06,0,.09,0A.06.06,0,0,0,106.57,104Z"/><path class="cls-29" d="M108.8,103.58s-.07,0-.09,0,0,.06,0,.08.08,0,.11,0A.1.1,0,0,0,108.8,103.58Z"/><path class="cls-9" d="M108.8,103.58a.08.08,0,0,0-.09,0s0,.07,0,.08a.06.06,0,0,0,.09,0S108.83,103.61,108.8,103.58Z"/><path class="cls-29" d="M107.42,106.12a.07.07,0,0,0-.1,0s0,.08,0,.11.09,0,.11,0S107.46,106.12,107.42,106.12Z"/><path class="cls-9" d="M107.42,106.13a.07.07,0,0,0-.1,0,.07.07,0,0,0,.05.09s.07,0,.08,0S107.45,106.16,107.42,106.13Z"/><path class="cls-29" d="M108.77,106.31a.07.07,0,0,0-.1,0,.07.07,0,0,0,0,.1s.08,0,.09,0A.06.06,0,0,0,108.77,106.31Z"/><path class="cls-9" d="M108.77,106.31s-.08,0-.09,0,0,.07,0,.07a.07.07,0,1,0,.06-.11Z"/><path class="cls-29" d="M107.6,103.35a.07.07,0,0,0-.11,0s0,.05,0,.09a.08.08,0,0,0,.11,0S107.64,103.38,107.6,103.35Z"/><path class="cls-9" d="M107.59,103.36s-.08,0-.1,0,0,.05,0,.09.09,0,.1,0A.1.1,0,0,0,107.59,103.36Z"/><path class="cls-29" d="M109.64,104.55s-.07,0-.1,0a.09.09,0,0,0,.15.06A.07.07,0,0,0,109.64,104.55Z"/><path class="cls-9" d="M109.65,104.55a.09.09,0,0,0-.1,0,.08.08,0,0,0,0,.09h.09A.14.14,0,0,0,109.65,104.55Z"/><path class="cls-29" d="M106.54,105.16s-.09,0-.1,0,0,.06,0,.11a.09.09,0,0,0,.1,0A.07.07,0,0,0,106.54,105.16Z"/><path class="cls-9" d="M106.53,105.18a.06.06,0,0,0-.1,0s0,.07,0,.08a.09.09,0,0,0,.1,0A.07.07,0,0,0,106.53,105.18Z"/><path class="cls-43" d="M79.24,87.33a1.65,1.65,0,1,0,.95,2.36A1.82,1.82,0,0,0,79.24,87.33Z"/><path class="cls-43" d="M79.24,87.38a1.6,1.6,0,1,0,.92,2.28A1.76,1.76,0,0,0,79.24,87.38Z"/><path class="cls-44" d="M79.22,87.32a1.6,1.6,0,1,0,.9,2.28A1.76,1.76,0,0,0,79.22,87.32Z"/><path class="cls-48" d="M78.84,88a.81.81,0,1,0-.77,1.39.9.9,0,0,0,1.23-.25A.89.89,0,0,0,78.84,88Z"/><path class="cls-29" d="M80,89.46s-.08,0-.1,0,0,.09,0,.09a.14.14,0,0,0,.12,0A.11.11,0,0,0,80,89.46Z"/><path class="cls-9" d="M80,89.49a.08.08,0,0,0-.1,0,.07.07,0,0,0,0,.09s.08,0,.1,0S80.06,89.51,80,89.49Z"/><path class="cls-29" d="M77,87.8a.06.06,0,0,0-.1,0s0,.07,0,.08a.08.08,0,0,0,.1,0A.06.06,0,0,0,77,87.8Z"/><path class="cls-9" d="M77,87.81a.09.09,0,0,0-.1,0s0,.07,0,.09a.16.16,0,0,0,.1,0A.08.08,0,0,0,77,87.81Z"/><path class="cls-29" d="M79.18,87.36a.07.07,0,0,0-.09,0s0,.08,0,.1a.08.08,0,0,0,.1,0S79.22,87.38,79.18,87.36Z"/><path class="cls-9" d="M79.18,87.38s-.08,0-.08,0a.07.07,0,0,0,0,.1s.08,0,.09,0S79.23,87.4,79.18,87.38Z"/><path class="cls-29" d="M77.81,89.89a.07.07,0,0,0-.1,0s0,.07,0,.09.08,0,.09,0S77.84,89.93,77.81,89.89Z"/><path class="cls-9" d="M77.79,89.91a.06.06,0,0,0-.09,0,.12.12,0,0,0,0,.11.07.07,0,0,0,.08,0S77.84,89.93,77.79,89.91Z"/><path class="cls-29" d="M79.17,90.08a.14.14,0,0,0-.11,0s0,.07,0,.1a.07.07,0,0,0,.1,0S79.2,90.11,79.17,90.08Z"/><path class="cls-9" d="M79.16,90.11a.06.06,0,0,0-.09,0,.07.07,0,0,0,0,.09s.07,0,.08,0S79.18,90.12,79.16,90.11Z"/><path class="cls-29" d="M78,87.14s-.09,0-.1,0,0,.07,0,.09.08,0,.12,0A.12.12,0,0,0,78,87.14Z"/><path class="cls-9" d="M78,87.15a.05.05,0,0,0-.09,0s0,.07,0,.08a.07.07,0,0,0,.08,0A.06.06,0,0,0,78,87.15Z"/><path class="cls-29" d="M80,88.32s-.09,0-.11,0a.06.06,0,0,0,0,.07.06.06,0,0,0,.09,0S80.08,88.36,80,88.32Z"/><path class="cls-9" d="M80,88.35s-.08,0-.11,0,0,0,0,.07.08,0,.09,0S80.07,88.37,80,88.35Z"/><path class="cls-29" d="M76.92,88.94s-.08,0-.1,0a.08.08,0,0,0,0,.09A.08.08,0,0,0,77,89,.08.08,0,0,0,76.92,88.94Z"/><path class="cls-9" d="M76.92,89a.06.06,0,0,0-.09,0,.09.09,0,0,0,0,.09s.07,0,.08,0S76.94,89,76.92,89Z"/><path class="cls-43" d="M56.62,106.53s2,1.07,4.13,2.09,2.5-.64,2.5-.64c1.1-2.55,3-6.2,3.39-6.89s2.4-4.3,3.94-6.59c0,0,1.22-1.2-.81-2.46s-4-2.33-4-2.33S64,88.43,63,90s-3.54,5.51-4.21,6.66h0a.11.11,0,0,0,0,.08s0,0,0,0v0a.17.17,0,0,0-.06.1h0c-.59,1.17-2.66,5.56-3.29,7.15C54.63,105.78,56.62,106.53,56.62,106.53Z"/><path class="cls-49" d="M55.79,106.54s2,1.06,4.14,2.09,2.5-.65,2.5-.65c1.09-2.53,3-6.2,3.38-6.91s2.42-4.27,3.95-6.59c0,0,1.22-1.2-.81-2.44s-4-2.35-4-2.35-1.73-1.26-2.81.26-3.55,5.54-4.21,6.67h0s0,0,0,.08l0,0,0,.06a.16.16,0,0,0,0,.07h0c-.6,1.19-2.66,5.57-3.3,7.17S55.79,106.54,55.79,106.54Z"/><path class="cls-44" d="M56.33,106.52s2,1.07,4.14,2.09S63,108,63,108c1.1-2.53,3-6.2,3.38-6.89s2.41-4.3,3.94-6.59c0,0,1.22-1.2-.81-2.45s-4-2.34-4-2.34-1.73-1.25-2.8.26-3.56,5.52-4.22,6.67h0l0,.06,0,.06,0,0s0,.08-.05.09h0C57.73,98,55.66,102.43,55,104,54.32,105.75,56.33,106.52,56.33,106.52Z"/><path class="cls-50" d="M57.49,105.39s1.48.79,3.06,1.53,1.92-.64,1.92-.64c.93-2.12,2.56-5.2,2.87-5.77s2-3.62,3.29-5.56c0,0,1-1-.53-2s-2.93-1.74-2.93-1.74A1.46,1.46,0,0,0,63,91.6c-.81,1.16-2.94,4.65-3.48,5.63v0s0,.05,0,.07a.07.07,0,0,0,0,0l0,0a.1.1,0,0,0,0,.05v0c-.51,1-2.28,4.66-2.82,6A1.45,1.45,0,0,0,57.49,105.39Z"/><path class="cls-29" d="M65.55,101.22a.38.38,0,0,1-.16-.5.39.39,0,0,1,.52-.15.37.37,0,1,1-.36.65Z"/><path class="cls-9" d="M65.63,101.17a.38.38,0,0,1-.15-.5.36.36,0,0,1,.48-.13.34.34,0,0,1,.15.47A.35.35,0,0,1,65.63,101.17Z"/><path class="cls-29" d="M61.82,108.37a.38.38,0,0,1,.36-.66.37.37,0,0,1,.14.51A.38.38,0,0,1,61.82,108.37Z"/><path class="cls-9" d="M61.89,108.31a.34.34,0,0,1-.14-.48.35.35,0,0,1,.48-.14.36.36,0,0,1,.14.48A.37.37,0,0,1,61.89,108.31Z"/><path class="cls-29" d="M69.8,94a.38.38,0,0,1,.36-.68.38.38,0,0,1-.36.68Z"/><path class="cls-9" d="M69.87,93.89a.33.33,0,0,1-.14-.47.35.35,0,0,1,.48-.15.38.38,0,0,1,.14.49A.36.36,0,0,1,69.87,93.89Z"/><path class="cls-29" d="M58.6,97.45a.36.36,0,0,1-.15-.51.37.37,0,0,1,.5-.14.36.36,0,0,1,.14.51A.35.35,0,0,1,58.6,97.45Z"/><path class="cls-9" d="M58.67,97.39a.35.35,0,0,1-.13-.49.35.35,0,0,1,.46-.15.37.37,0,0,1,.16.49A.37.37,0,0,1,58.67,97.39Z"/><path class="cls-29" d="M55.5,105.18a.37.37,0,0,1-.14-.51.39.39,0,0,1,.51-.17A.38.38,0,0,1,56,105,.37.37,0,0,1,55.5,105.18Z"/><path class="cls-9" d="M55.57,105.12a.37.37,0,0,1,.35-.65A.38.38,0,0,1,56,105,.35.35,0,0,1,55.57,105.12Z"/><path class="cls-29" d="M63.48,90.75a.38.38,0,0,1-.16-.51.39.39,0,0,1,.52-.16.4.4,0,0,1,.14.52A.37.37,0,0,1,63.48,90.75Z"/><path class="cls-9" d="M63.55,90.7a.37.37,0,0,1-.14-.49.35.35,0,0,1,.48-.13.36.36,0,0,1,.14.48A.38.38,0,0,1,63.55,90.7Z"/><path class="cls-43" d="M90.74,125.08s2,1.08,4.14,2.1,2.51-.66,2.51-.66c1.09-2.54,3-6.22,3.38-6.89s2.42-4.3,3.95-6.6c0,0,1.23-1.16-.8-2.44s-4-2.35-4-2.35-1.74-1.27-2.81.26-3.56,5.51-4.22,6.65h0a.19.19,0,0,1-.06.09s0,0,0,0a.08.08,0,0,0,0,0l-.05.09h0c-.61,1.18-2.67,5.58-3.29,7.17S90.74,125.08,90.74,125.08Z"/><path class="cls-49" d="M89.9,125.1s2,1.06,4.14,2.08,2.5-.66,2.5-.66c1.09-2.54,3-6.2,3.39-6.88s2.41-4.29,4-6.6c0,0,1.21-1.18-.82-2.45s-4-2.35-4-2.35-1.73-1.26-2.82.27S92.69,114,92,115.2v0a.24.24,0,0,0,0,.09s0,0,0,.06,0,0,0,0,0,.08-.05.09h0c-.6,1.18-2.66,5.57-3.29,7.16C87.9,124.34,89.9,125.1,89.9,125.1Z"/><path class="cls-44" d="M90.45,125.06s2,1.07,4.15,2.09,2.5-.65,2.5-.65c1.1-2.55,3-6.2,3.37-6.9s2.42-4.28,3.94-6.59c0,0,1.23-1.2-.8-2.44s-4-2.35-4-2.35-1.73-1.26-2.82.27-3.54,5.51-4.21,6.66h0a.25.25,0,0,0-.05.1s0,0,0,0,0,0,0,0a.27.27,0,0,0,0,.09h0c-.62,1.17-2.68,5.56-3.3,7.15S90.45,125.06,90.45,125.06Z"/><path class="cls-51" d="M91.62,124s1.47.78,3.06,1.53,1.92-.66,1.92-.66c.94-2.12,2.56-5.18,2.88-5.77s2-3.61,3.27-5.54c0,0,1-1-.51-2s-2.94-1.73-2.94-1.73a1.48,1.48,0,0,0-2.15.33c-.8,1.18-2.94,4.66-3.48,5.61h0a.25.25,0,0,1,0,.08s0,0,0,0,0,0,0,0,0,.06,0,.07h0c-.51,1-2.28,4.66-2.82,6A1.47,1.47,0,0,0,91.62,124Z"/><path class="cls-29" d="M99.68,119.78a.38.38,0,0,1-.16-.51.39.39,0,0,1,.51-.16.4.4,0,0,1,.16.52A.38.38,0,0,1,99.68,119.78Z"/><path class="cls-9" d="M99.75,119.71a.38.38,0,0,1-.15-.5.37.37,0,0,1,.49-.13.36.36,0,1,1-.34.63Z"/><path class="cls-29" d="M96,126.92a.38.38,0,0,1-.16-.52.38.38,0,0,1,.65.38A.37.37,0,0,1,96,126.92Z"/><path class="cls-9" d="M96,126.85a.35.35,0,0,1,.34-.6.34.34,0,0,1,.15.47A.35.35,0,0,1,96,126.85Z"/><path class="cls-29" d="M103.92,112.52a.38.38,0,1,1,.37-.66.39.39,0,0,1,.14.52A.37.37,0,0,1,103.92,112.52Z"/><path class="cls-9" d="M104,112.45a.37.37,0,0,1-.15-.49.36.36,0,0,1,.49-.13.33.33,0,0,1,.13.47A.33.33,0,0,1,104,112.45Z"/><path class="cls-29" d="M92.72,116a.36.36,0,0,1-.14-.5.37.37,0,0,1,.51-.16.38.38,0,1,1-.37.66Z"/><path class="cls-9" d="M92.8,115.94a.35.35,0,1,1,.33-.62.34.34,0,0,1,.14.48A.35.35,0,0,1,92.8,115.94Z"/><path class="cls-29" d="M89.63,123.71a.35.35,0,0,1-.16-.49.38.38,0,0,1,.51-.16.37.37,0,0,1,.15.51A.36.36,0,0,1,89.63,123.71Z"/><path class="cls-9" d="M89.68,123.66a.39.39,0,0,1-.13-.5A.37.37,0,0,1,90,123a.36.36,0,0,1,.15.48A.38.38,0,0,1,89.68,123.66Z"/><path class="cls-29" d="M97.59,109.32a.4.4,0,0,1-.15-.5.36.36,0,0,1,.51-.16.37.37,0,0,1,.15.5A.38.38,0,0,1,97.59,109.32Z"/><path class="cls-9" d="M97.68,109.25a.35.35,0,0,1-.14-.49.35.35,0,0,1,.46-.14.37.37,0,0,1,.16.48A.38.38,0,0,1,97.68,109.25Z"/><path class="cls-42" d="M131.45,168.44l27.28-50.2c-6.92-.24-18.78.66-29,8.3-1.28,2.05-2.53,4.19-3.72,6.37s-2.33,4.48-3.38,6.7C121.8,152.31,127.46,162.78,131.45,168.44Z"/><path class="cls-22" d="M158.73,118.23,171.92,94c-12.4-.81-29.34,12.1-42.17,32.57C140,118.9,151.81,118,158.73,118.23Z"/><path class="cls-41" d="M118.31,192.59l13.15-24.15c-4-5.65-9.65-16.12-8.8-28.83C112.5,161.48,110.88,182.65,118.31,192.59Z"/><polygon class="cls-22" points="171.93 93.97 173.14 94.63 119.52 193.25 118.31 192.59 171.93 93.97"/><path class="cls-9" d="M123,92.64l29-53.36A4.6,4.6,0,0,0,150.18,33L112.58,12.6a4.6,4.6,0,0,0-6.25,1.84l-29,53.36a4.62,4.62,0,0,0,1.86,6.26L116.78,94.5A4.6,4.6,0,0,0,123,92.64Z"/><polygon class="cls-52" points="120.33 23.52 108.43 17.06 101.93 29.02 113.84 35.49 120.33 23.52"/><polygon class="cls-53" points="127.43 42.86 133.92 30.92 121.77 24.32 115.27 36.26 127.43 42.86"/><polygon class="cls-54" points="113.07 36.92 101.15 30.45 94.55 42.6 106.45 49.07 113.07 36.92"/><polygon class="cls-55" points="140.96 50.22 147.46 38.27 135.34 31.71 128.86 43.65 140.96 50.22"/><polygon class="cls-56" points="121.48 57.24 133.58 63.81 140.19 51.66 128.09 45.07 121.48 57.24"/><polygon class="cls-57" points="105.69 50.5 93.77 44.02 87.6 55.36 99.51 61.85 105.69 50.5"/><polygon class="cls-58" points="114.53 70 126.64 76.59 132.8 65.25 120.69 58.66 114.53 70"/><polygon class="cls-59" points="113.75 71.43 106.82 84.21 118.93 90.78 125.86 78.02 113.75 71.43"/><rect class="cls-60" x="103.65" y="53.34" width="12.9" height="13.83" transform="translate(4.61 128.26) rotate(-61.5)"/><rect class="cls-61" x="110.34" y="40.15" width="13.84" height="13.83" transform="translate(19.91 127.63) rotate(-61.48)"/><polygon class="cls-62" points="86.83 56.8 79.9 69.55 91.8 76.04 98.75 63.27 86.83 56.8"/><rect class="cls-63" x="95.51" y="66.81" width="14.53" height="13.85" transform="translate(-11.09 128.82) rotate(-61.47)"/><path class="cls-22" d="M122,93l29-53.36a4.62,4.62,0,0,0-1.85-6.27L111.58,13a4.61,4.61,0,0,0-6.26,1.84l-29,53.36a4.6,4.6,0,0,0,1.84,6.26l37.6,20.42A4.59,4.59,0,0,0,122,93Zm4.61-16.44L114.53,70l6.15-11.34,12.12,6.59Zm-7.38-18.71L113.1,69.22l-12.16-6.59,6.16-11.34Zm14.32,5.93-12.1-6.58,6.61-12.16,12.09,6.59ZM126.65,44.3,120,56.46l-12.15-6.61,6.61-12.16Zm20.82-6L141,50.22l-12.1-6.57,6.48-11.95Zm-13.54-7.36-6.49,11.94-12.16-6.6,6.5-11.95ZM108.43,17.06l11.9,6.46-6.49,12L101.93,29Zm-7.28,13.39,11.92,6.47-6.62,12.15L94.55,42.6ZM93.77,44l11.92,6.48L99.51,61.85,87.6,55.36ZM79.9,69.55,86.83,56.8l11.92,6.48L91.8,76Zm13.33,7.26L100.16,64l12.17,6.61-6.94,12.76Zm13.59,7.4,6.93-12.77L125.86,78l-6.93,12.76Z"/></svg>