<svg id="Capa_1" data-name="Capa 1" xmlns="http://www.w3.org/2000/svg" viewBox="0 0 307 185"><defs><style>.cls-1{fill:#353a3c;}.cls-1,.cls-2,.cls-3,.cls-4,.cls-5,.cls-6,.cls-7,.cls-8{fill-rule:evenodd;}.cls-2{fill:#1b1c1c;}.cls-3{fill:#9ed6dd;}.cls-4{fill:#7eadb5;}.cls-5{fill:#454a4d;}.cls-6{fill:#fdf9dc;}.cls-7{fill:#edc72f;}.cls-8{fill:#95a1a9;}</style></defs><title>spaceship</title><path class="cls-1" d="M298,24.72h0C276.45,111.33,86.94,193.05,9,149c33.55-1.87,93.56-21.4,151.41-46.19S273.6,47.87,298,24.72Z"/><path class="cls-2" d="M288.35,47.71c-40.51,69.65-177.55,128.7-256.09,110.17,34.68-6.09,84.57-23.13,132.94-43.94,48.2-20.74,94.89-45.24,123.15-66.23Z"/><path class="cls-3" d="M9,149C76.63,64.59,190.18,15.74,298,24.72,249.25,70.91,76,145.33,9,149Z"/><path class="cls-4" d="M9,149c38.42-48,91.73-84.52,150.45-105.46A165.36,165.36,0,0,1,228.07,70.5C156.16,108.7,56.18,146.41,9,149Z"/><path class="cls-5" d="M76.89,86A352,352,0,0,1,205.52,30.63c-14.77,12.44-36,25.31-60.79,36S96.08,83.8,76.89,86Z"/><path class="cls-6" d="M19.63,136.52c5.35-6,10.94-11.77,16.67-17.38,1.81,2.16,2.59,5.56,1.72,9.47-1.39,6.58-6.76,12.13-11.94,12.4a6.54,6.54,0,0,1-6.45-4.49ZM238.29,32.44c-4.07,3.32-3.23,9.14,1.88,13s12.47,4.35,16.42,1,3.23-9.14-1.79-13.07-12.47-4.35-16.5-.95Zm-66.07,35.1a9.51,9.51,0,0,0-3.65,13.64A11.24,11.24,0,0,0,183,85.56a9.46,9.46,0,0,0,3.65-13.64,11.25,11.25,0,0,0-14.45-4.38ZM102.9,95.1c5.25-1.48,10.22,2.08,11.06,7.9s-2.78,11.8-8.12,13.31-10.14-2.12-11-7.94,2.78-11.8,8-13.27Z"/><path class="cls-7" d="M239.92,34.39a3.93,3.93,0,0,0-1.46,2.3c-.64,2.63,1.27,5.24,3.29,6.73A13.26,13.26,0,0,0,249,46.1a9.08,9.08,0,0,0,6-1.59,4.14,4.14,0,0,0,1.55-2.33c.64-2.63-1.36-5.21-3.29-6.73A14.39,14.39,0,0,0,246,32.76c-2.1-.08-4.5.27-6.07,1.63Zm-66.5,35.48a7,7,0,0,0-2.67,10c2.25,3.64,7.24,5.42,11.19,3.43,3.79-1.92,4.69-6.43,2.55-10a8.69,8.69,0,0,0-11.07-3.38ZM21.66,134.17a4.93,4.93,0,0,0,2.17,3.68,3.13,3.13,0,0,0,2.19.53c2.14,0,4.17-1.5,5.58-3A16,16,0,0,0,35.5,128c.4-2,.5-5.22-1.05-7-4.36,4.23-8.65,8.63-12.79,13.16Zm81.95-36.53c-4.23,1.13-6.78,6.15-6.13,10.39.5,3.91,3.64,6.87,7.7,5.81,4.27-1.25,6.77-6.15,6.21-10.43-.54-4-3.68-7-7.79-5.78Z"/><path class="cls-8" d="M166.42,45.39c5.72-2.46,10.75-3.54,11.24-2.38s-3.71,4.15-9.43,6.61S157.5,53.16,157,51.92s3.75-4.07,9.46-6.52Z"/></svg>