<svg id="Capa_1" data-name="Capa 1" xmlns="http://www.w3.org/2000/svg" viewBox="0 0 206 206"><defs><style>.cls-1{fill:#d2ecef;}.cls-2{fill:#abdbe1;}.cls-3{fill:#fff;}</style></defs><title>star</title><polygon class="cls-1" points="141.05 129.28 193.32 92.52 132.15 73.85 113.48 12.68 76.44 64.66 12.68 64.08 50.88 114.92 30.49 175.52 91.08 155.13 141.92 193.32 141.05 129.28 141.05 129.28"/><path class="cls-2" d="M141.05,129.28l52.27-36.76L132.15,73.85,113.48,12.68l-.58,1.14a144,144,0,0,1,2.3,15.51c4,28.72,2.87,52.27-2.3,70.65-11.77,26.13-34.18,48-66.91,65.19-4.6,2.3-9.48,4.88-14.65,7.18l-.86,3.16,60.6-20.39,50.83,38.19-.86-64Z"/><path class="cls-3" d="M115.21,29.33a144,144,0,0,0-2.3-15.51L76.44,64.66l-63.76-.58,38.2,50.83L31.35,172.36c5.17-2.3,10.05-4.88,14.65-7.18l16.94-52.56L36.23,77.3,83.61,77l31.6-47.67Z"/></svg>